<svg xmlns="http://www.w3.org/2000/svg" xmlns:xlink="http://www.w3.org/1999/xlink" viewBox="0 0 500 500">
  <defs>
    <clipPath id="freepik--clip-path--inject-164">
      <rect x="66.83" y="88.85" width="369.87" height="223.95"
        style="fill:#0B512D;stroke:#263238;stroke-linecap:round;stroke-linejoin:round"></rect>
    </clipPath>
    <clipPath id="freepik--clip-path-2--inject-164">
      <path
        d="M178.8,297.58h0a4,4,0,0,1-4-3.95V188.85a4,4,0,0,1,4-3.95h0a4,4,0,0,1,3.95,3.95V293.63A4,4,0,0,1,178.8,297.58Z"
        style="fill:#0B512D"></path>
    </clipPath>
    <clipPath id="freepik--clip-path-3--inject-164">
      <path
        d="M191.65,287.57s-.52,9.61-1.16,25.77c-.48,12.11-4,49.63-5,62.3-1.29,16.75-5.38,66.91-5.38,66.91s5.38,4.62,13.84,1.92c0,0,10.22-49.34,13.08-66,2-11.67,6.84-46.92,10.38-58.23,1.16-3.7,6.54-14,6.54-14V287.57Z"
        style="fill:#0B512D;stroke:#263238;stroke-linecap:round;stroke-linejoin:round"></path>
    </clipPath>
    <clipPath id="freepik--clip-path-4--inject-164">
      <path
        d="M217,287.57H249l2.13,21.89s3.33,42.65,4.4,57c1.53,20.24,5,81.14,5,81.14l-14.57,1.15s-10.22-60.61-14.27-80.56C229,355,220.49,316,220.49,316S212.8,304.88,217,287.57Z"
        style="fill:#0B512D;stroke:#263238;stroke-linecap:round;stroke-linejoin:round"></path>
    </clipPath>
    <clipPath id="freepik--clip-path-5--inject-164">
      <path
        d="M179.25,436.93a61.94,61.94,0,0,0,17.08,3.3,8,8,0,0,1,.22,1.94c-.13.59-1.13,1.48-1.22,2.07s.63,1.55.49,2.06-1.3,1.31-1.3,1.31a52.92,52.92,0,0,1-16.23-3.44,8.5,8.5,0,0,1-.5-2.36c.06-.36.74-.9.78-1.27.07-.58-.88-1.66-.74-2.23S179.25,436.93,179.25,436.93Z"
        style="fill:#0B512D;stroke:#263238;stroke-linecap:round;stroke-linejoin:round"></path>
    </clipPath>
    <clipPath id="freepik--clip-path-6--inject-164">
      <path
        d="M244.14,443.26a61.93,61.93,0,0,0,17.3-1.74,8,8,0,0,1,.77,1.8c.05.6-.66,1.74-.57,2.34s1,1.3,1.05,1.83-.86,1.63-.86,1.63a53.09,53.09,0,0,1-16.54,1.35,8.42,8.42,0,0,1-1.15-2.12c0-.37.45-1.07.38-1.44-.1-.58-1.31-1.34-1.34-1.92S244.14,443.26,244.14,443.26Z"
        style="fill:#0B512D;stroke:#263238;stroke-linecap:round;stroke-linejoin:round"></path>
    </clipPath>
  </defs>
  <g id="freepik--background-simple--inject-164">
    <path
      d="M266.69,137.06C222,19.68,7.08,10.12,36.4,193.16c13.11,81.84,69.54,150,169.5,167.35,94,16.26,264-14.65,263.46-103C468.8,169,294.8,210.83,266.69,137.06Z"
      style="fill:#0B512D"></path>
    <path
      d="M266.69,137.06C222,19.68,7.08,10.12,36.4,193.16c13.11,81.84,69.54,150,169.5,167.35,94,16.26,264-14.65,263.46-103C468.8,169,294.8,210.83,266.69,137.06Z"
      style="fill:#fff;opacity:0.7000000000000001"></path>
  </g>
  <g id="freepik--Device--inject-164">
    <path
      d="M230.83,368.39a20.94,20.94,0,0,1,41.87,0l3.5-1.24V348.69l-12.41-8.07-18.74-5.48-14.22,8.65-6.26,11.66v11.42Z"
      style="fill:#263238"></path>
    <path
      d="M193.61,418.45H309.92a8.17,8.17,0,0,1,8.17,8.17v6.79a0,0,0,0,1,0,0H185.44a0,0,0,0,1,0,0v-6.79A8.17,8.17,0,0,1,193.61,418.45Z"
      style="fill:#999;stroke:#263238;stroke-linecap:round;stroke-linejoin:round"></path>
    <path
      d="M278,318.34H225.57L214.36,418.45h74.81Zm-26.2,67.46a20.94,20.94,0,1,1,20.94-20.93A20.93,20.93,0,0,1,251.76,385.8Z"
      style="fill:#757575;stroke:#263238;stroke-linecap:round;stroke-linejoin:round"></path>
    <rect x="49.52" y="71.54" width="404.48" height="258.56" rx="17.31"
      style="fill:#999;stroke:#263238;stroke-linecap:round;stroke-linejoin:round;stroke-width:0.75px"></rect>
    <path d="M49.57,313.72A17.29,17.29,0,0,0,66.83,330.1H436.7A17.3,17.3,0,0,0,454,313.72Z"
      style="fill:#263238;stroke:#263238;stroke-linecap:round;stroke-linejoin:round;stroke-width:0.75px"></path>
    <g id="freepik--Window--inject-164">
      <rect x="66.83" y="88.85" width="369.87" height="223.95" style="fill:#0B512D"></rect>
      <g style="clip-path:url(#freepik--clip-path--inject-164)">
        <rect x="66.83" y="88.85" width="369.87" height="223.95" style="fill:#fff;opacity:0.8"></rect>
      </g>
      <rect x="66.83" y="88.85" width="369.87" height="223.95"
        style="fill:none;stroke:#263238;stroke-linecap:round;stroke-linejoin:round"></rect>
      <rect x="66.83" y="88.85" width="369.87" height="20.56"
        style="fill:#0B512D;stroke:#263238;stroke-linecap:round;stroke-linejoin:round;stroke-width:0.75px"></rect>
      <path d="M86.09,99.13a5,5,0,1,1-5-5A5,5,0,0,1,86.09,99.13Z" style="fill:#fff"></path>
      <path d="M101.14,99.13a5,5,0,1,1-5-5A5,5,0,0,1,101.14,99.13Z" style="fill:#fff"></path>
      <path d="M116.19,99.13a5,5,0,1,1-5-5A5,5,0,0,1,116.19,99.13Z" style="fill:#fff"></path>
      <line x1="185.06" y1="312.79" x2="185.06" y2="109.41"
        style="fill:none;stroke:#263238;stroke-linecap:round;stroke-linejoin:round;stroke-width:0.75px"></line>
      <path
        d="M178.8,297.58h0a4,4,0,0,1-4-3.95V188.85a4,4,0,0,1,4-3.95h0a4,4,0,0,1,3.95,3.95V293.63A4,4,0,0,1,178.8,297.58Z"
        style="fill:#0B512D"></path>
      <g style="clip-path:url(#freepik--clip-path-2--inject-164)">
        <path
          d="M178.8,297.58h0a4,4,0,0,1-4-3.95V188.85a4,4,0,0,1,4-3.95h0a4,4,0,0,1,3.95,3.95V293.63A4,4,0,0,1,178.8,297.58Z"
          style="fill:#fff;opacity:0.30000000000000004"></path>
      </g>
      <rect x="76.06" y="142.41" width="88.81" height="11.54" style="fill:#0B512D"></rect>
      <rect x="91.11" y="161.16" width="73.76" height="11.54" style="fill:#0B512D"></rect>
      <rect x="91.11" y="179.9" width="73.76" height="11.54" style="fill:#0B512D"></rect>
      <rect x="97.81" y="198.65" width="67.05" height="11.54" style="fill:#0B512D"></rect>
      <polygon points="84.4 170.31 84.4 163.55 87.78 166.93 84.4 170.31"
        style="fill:#263238;stroke:#263238;stroke-linecap:round;stroke-linejoin:round;stroke-width:0.75px"></polygon>
      <polygon points="84.4 189.05 84.4 182.29 87.78 185.67 84.4 189.05"
        style="fill:#263238;stroke:#263238;stroke-linecap:round;stroke-linejoin:round;stroke-width:0.75px"></polygon>
      <polygon points="91.11 207.8 91.11 201.04 94.49 204.42 91.11 207.8"
        style="fill:#263238;stroke:#263238;stroke-linecap:round;stroke-linejoin:round;stroke-width:0.75px"></polygon>
      <rect x="76.06" y="225.47" width="88.81" height="11.54" style="fill:#0B512D"></rect>
      <rect x="91.11" y="244.22" width="73.76" height="11.54" style="fill:#0B512D"></rect>
      <rect x="97.84" y="262.97" width="67.03" height="11.54" style="fill:#0B512D"></rect>
      <rect x="97.84" y="281.72" width="67.03" height="11.54" style="fill:#0B512D"></rect>
      <polygon points="84.4 253.37 84.4 246.61 87.78 249.99 84.4 253.37"
        style="fill:#263238;stroke:#263238;stroke-linecap:round;stroke-linejoin:round;stroke-width:0.75px"></polygon>
      <polygon points="91.13 272.12 91.13 265.36 94.51 268.74 91.13 272.12"
        style="fill:#263238;stroke:#263238;stroke-linecap:round;stroke-linejoin:round;stroke-width:0.75px"></polygon>
      <polygon points="91.13 290.86 91.13 284.11 94.51 287.49 91.13 290.86"
        style="fill:#263238;stroke:#263238;stroke-linecap:round;stroke-linejoin:round;stroke-width:0.75px"></polygon>
      <rect x="306.39" y="126.07" width="116.91" height="40.86" transform="translate(729.68 292.99) rotate(180)"
        style="fill:#fff;stroke:#263238;stroke-linecap:round;stroke-linejoin:round;stroke-width:0.75px"></rect>
      <rect x="197.17" y="126.07" width="99.22" height="87.49" transform="translate(493.56 339.62) rotate(180)"
        style="fill:#fff;stroke:#263238;stroke-linecap:round;stroke-linejoin:round;stroke-width:0.75px"></rect>
      <line x1="296.39" y1="213.55" x2="197.17" y2="126.07"
        style="fill:none;stroke:#263238;stroke-linecap:round;stroke-linejoin:round;stroke-width:0.5px"></line>
      <line x1="197.17" y1="213.55" x2="296.39" y2="126.07"
        style="fill:none;stroke:#263238;stroke-linecap:round;stroke-linejoin:round;stroke-width:0.5px"></line>
      <rect x="306.39" y="172.69" width="54.99" height="40.86"
        style="fill:#0B512D;stroke:#263238;stroke-miterlimit:10;stroke-width:0.75px"></rect>
      <rect x="368.3" y="172.69" width="54.99" height="40.86"
        style="fill:#fff;stroke:#263238;stroke-linecap:round;stroke-linejoin:round;stroke-width:0.75px"></rect>
      <line x1="423.29" y1="213.55" x2="368.3" y2="172.69"
        style="fill:none;stroke:#263238;stroke-linecap:round;stroke-linejoin:round;stroke-width:0.5px"></line>
      <line x1="368.3" y1="213.55" x2="423.29" y2="172.69"
        style="fill:none;stroke:#263238;stroke-linecap:round;stroke-linejoin:round;stroke-width:0.5px"></line>
      <rect x="306.39" y="219.32" width="116.91" height="76.77"
        style="fill:#fff;stroke:#263238;stroke-linecap:round;stroke-linejoin:round;stroke-width:0.75px"></rect>
      <rect x="246.78" y="219.32" width="48.93" height="35.5"
        style="fill:#fff;stroke:#263238;stroke-linecap:round;stroke-linejoin:round;stroke-width:0.75px"></rect>
      <rect x="246.78" y="260.59" width="48.93" height="35.5"
        style="fill:none;stroke:#263238;stroke-linecap:round;stroke-linejoin:round;stroke-width:0.75px"></rect>
      <rect x="371.96" y="165.24" width="54.99" height="40.86"
        style="fill:#0B512D;stroke:#263238;stroke-linecap:round;stroke-linejoin:round;stroke-width:0.75px"></rect>
      <rect x="375.52" y="167.89" width="5.76" height="4.28"
        style="fill:#263238;stroke:#263238;stroke-linecap:round;stroke-linejoin:round"></rect>
      <polygon points="380.9 197.21 393.94 177.3 406.97 197.21 380.9 197.21"
        style="fill:#999;stroke:#263238;stroke-linecap:round;stroke-linejoin:round;stroke-width:0.75px"></polygon>
      <polygon points="398.12 197.21 408.07 182.01 418.03 197.21 398.12 197.21"
        style="fill:#757575;stroke:#263238;stroke-linecap:round;stroke-linejoin:round;stroke-width:0.75px"></polygon>
      <path d="M406.89,177.3a3.33,3.33,0,1,1-3.32-3.32A3.33,3.33,0,0,1,406.89,177.3Z"
        style="fill:#fff;stroke:#263238;stroke-linecap:round;stroke-linejoin:round;stroke-width:0.75px"></path>
      <rect x="238.08" y="222.21" width="48.93" height="35.5"
        style="fill:#0B512D;stroke:#263238;stroke-linecap:round;stroke-linejoin:round;stroke-width:0.75px"></rect>
      <polygon points="255.84 230.47 270.98 239.96 255.84 249.44 258.67 239.96 255.84 230.47"
        style="fill:#263238;stroke:#263238;stroke-linecap:round;stroke-linejoin:round;stroke-width:0.75px"></polygon>
      <polygon points="258.67 239.96 255.84 230.47 270.98 239.96 258.67 239.96"
        style="fill:#fff;stroke:#263238;stroke-linecap:round;stroke-linejoin:round;stroke-width:0.75px"></polygon>
      <polygon points="418.37 115.08 396.56 115.08 396.56 156.33 427.2 156.33 427.2 123.92 418.37 115.08"
        style="fill:#0B512D;stroke:#263238;stroke-linecap:round;stroke-linejoin:round;stroke-width:0.75px"></polygon>
      <polygon points="427.2 123.92 418.37 123.92 418.37 115.08 427.2 123.92"
        style="fill:#0B512D;stroke:#263238;stroke-linecap:round;stroke-linejoin:round;stroke-width:0.75px"></polygon>
      <path d="M409.9,127.62h3.79l2.89,17.77h-2.79l-.51-3.53v0h-3.17l-.51,3.48H407ZM413,139.5l-1.24-8.79h0l-1.22,8.79Z"
        style="fill:#263238"></path>
      <polygon points="378.33 118.88 356.52 118.88 356.52 160.12 387.17 160.12 387.17 127.72 378.33 118.88"
        style="fill:#0B512D;stroke:#263238;stroke-linecap:round;stroke-linejoin:round;stroke-width:0.75px"></polygon>
      <polygon points="387.17 127.72 378.33 127.72 378.33 118.88 387.17 127.72"
        style="fill:#0B512D;stroke:#263238;stroke-linecap:round;stroke-linejoin:round;stroke-width:0.75px"></polygon>
      <path d="M369,145.42l-.85,3.76h-1l3.71-17h1.63l3.78,17h-1.11l-.85-3.76Zm.17-1h4.95l-2.5-11Z" style="fill:#263238">
      </path>
      <polygon points="337.72 112.36 311.55 112.36 311.55 161.85 348.33 161.85 348.33 122.97 337.72 112.36"
        style="fill:#0B512D;stroke:#263238;stroke-linecap:round;stroke-linejoin:round;stroke-width:0.75px"></polygon>
      <polygon points="348.33 122.97 337.72 122.97 337.72 112.36 348.33 122.97"
        style="fill:#0B512D;stroke:#263238;stroke-linecap:round;stroke-linejoin:round;stroke-width:0.75px"></polygon>
      <path d="M326.53,144.8l-1.17,4.7h-.57l4.81-20h.89l4.92,20h-.63l-1.16-4.7Zm.11-.57h6.86L330,130.28Z"
        style="fill:#263238"></path>
      <rect x="254.38" y="264.72" width="48.93" height="35.5"
        style="fill:#fff;stroke:#263238;stroke-linecap:round;stroke-linejoin:round;stroke-width:0.75px"></rect>
      <path
        d="M285.82,273.44a9.87,9.87,0,0,0-14,14l7,7,7-7A9.87,9.87,0,0,0,285.82,273.44Zm-3.73,10.23a4.59,4.59,0,1,1,0-6.49A4.59,4.59,0,0,1,282.09,283.67Z"
        style="fill:#0B512D;stroke:#263238;stroke-linecap:round;stroke-linejoin:round"></path>
      <rect x="191.03" y="119.8" width="99.22" height="87.49" transform="translate(481.27 327.09) rotate(180)"
        style="fill:#0B512D;stroke:#263238;stroke-linecap:round;stroke-linejoin:round;stroke-width:0.75px"></rect>
      <rect x="195.59" y="123.82" width="8.64" height="7.62" transform="translate(399.81 255.27) rotate(180)"
        style="fill:#263238;stroke:#263238;stroke-linecap:round;stroke-linejoin:round"></rect>
      <polygon points="202.81 186.78 229.51 146.01 256.2 186.78 202.81 186.78"
        style="fill:#999;stroke:#263238;stroke-linecap:round;stroke-linejoin:round;stroke-width:0.75px"></polygon>
      <circle cx="249.23" cy="146.01" r="6.81"
        style="fill:#fff;stroke:#263238;stroke-linecap:round;stroke-linejoin:round;stroke-width:0.75px"></circle>
      <polygon points="238.08 186.78 258.46 155.65 278.84 186.78 238.08 186.78"
        style="fill:#999;stroke:#263238;stroke-linecap:round;stroke-linejoin:round;stroke-width:0.75px"></polygon>
      <path d="M350.32,255.49a12.78,12.78,0,1,1-14.8-10.37A12.77,12.77,0,0,1,350.32,255.49Z"
        style="fill:#0B512D;stroke:#263238;stroke-linecap:round;stroke-linejoin:round"></path>
      <line x1="331.62" y1="253.42" x2="343.85" y2="261.99"
        style="fill:none;stroke:#263238;stroke-linecap:round;stroke-linejoin:round;stroke-width:1.5px"></line>
      <line x1="342.02" y1="251.59" x2="333.46" y2="263.82"
        style="fill:none;stroke:#263238;stroke-linecap:round;stroke-linejoin:round;stroke-width:1.5px"></line>
      <path d="M377.42,270.64a12.78,12.78,0,1,1-14.81-10.37A12.78,12.78,0,0,1,377.42,270.64Z"
        style="fill:#fff;stroke:#263238;stroke-linecap:round;stroke-linejoin:round"></path>
      <line x1="358.72" y1="268.58" x2="370.95" y2="277.14"
        style="fill:none;stroke:#263238;stroke-linecap:round;stroke-linejoin:round;stroke-width:3px"></line>
      <line x1="369.12" y1="266.74" x2="360.55" y2="278.97"
        style="fill:none;stroke:#263238;stroke-linecap:round;stroke-linejoin:round;stroke-width:3px"></line>
      <path d="M402.31,251.2a12.78,12.78,0,1,1-14.81-10.36A12.79,12.79,0,0,1,402.31,251.2Z"
        style="fill:#999;stroke:#263238;stroke-linecap:round;stroke-linejoin:round;stroke-width:0.75px"></path>
      <path d="M395.84,259.44a1.7,1.7,0,0,1-1-.32l-12.23-8.56a1.73,1.73,0,0,1,2-2.84l12.23,8.57a1.73,1.73,0,0,1-1,3.15Z"
        style="fill:#fff"></path>
      <path
        d="M385.44,261.27a1.71,1.71,0,0,1-1-.31,1.72,1.72,0,0,1-.43-2.41l8.57-12.23a1.73,1.73,0,1,1,2.83,2l-8.56,12.23A1.75,1.75,0,0,1,385.44,261.27Z"
        style="fill:#fff"></path>
    </g>
  </g>
  <g id="freepik--plant-1--inject-164">
    <polygon points="132.21 433.4 67.82 433.4 60.9 407.53 139.13 407.53 132.21 433.4"
      style="fill:#263238;stroke:#263238;stroke-linecap:round;stroke-linejoin:round;stroke-width:0.75px"></polygon>
    <path d="M91.11,413.3s-5-26-24.28-40.7C51.79,361.1,36,335.14,36,335.14"
      style="fill:none;stroke:#263238;stroke-linecap:round;stroke-linejoin:round;stroke-width:0.75px"></path>
    <path d="M69.77,379.84s-19.9-4-13,8.08,22.78,6.92,22.78,6.92,13.56-8.95,6.64-19.76S69.77,379.84,69.77,379.84Z"
      style="fill:#0B512D"></path>
    <path d="M86.21,375.08c-6.93-10.81-16.44,4.76-16.44,4.76s-1.45,7.79,9.8,15C79.57,394.84,93.13,385.89,86.21,375.08Z"
      style="opacity:0.1"></path>
    <path d="M36.78,335.22s-12.62-11.63-12.92.16,13.45,15,13.45,15S51,349.82,50.75,339,36.78,335.22,36.78,335.22Z"
      style="fill:#0B512D"></path>
    <path d="M50.75,339c-.27-10.85-14-3.76-14-3.76s-4.45,5,.53,15.14C37.31,350.36,51,349.82,50.75,339Z"
      style="opacity:0.1"></path>
    <path d="M52.74,357.19s-5-16.43,5.78-11.55,7.62,18.63,7.62,18.63S59.67,376.38,50,371.4,52.74,357.19,52.74,357.19Z"
      style="fill:#0B512D"></path>
    <path d="M50,371.4c-9.65-5,2.71-14.21,2.71-14.21s6.44-1.82,13.4,7.08C66.14,364.27,59.67,376.38,50,371.4Z"
      style="opacity:0.1"></path>
    <path d="M107.55,413.3s8.08-23,28.26-35.74,29.06-28.29,29.06-28.29"
      style="fill:none;stroke:#263238;stroke-linecap:round;stroke-linejoin:round;stroke-width:0.75px"></path>
    <path d="M91.13,346.1s8.09,10.38,9.66,29,3,38.22,3,38.22"
      style="fill:none;stroke:#263238;stroke-linecap:round;stroke-linejoin:round;stroke-width:0.75px"></path>
    <path d="M99.13,361.56s-5.8-12.73,8.33-9.43,9.24,14.33,9.24,14.33-9.28,9.91-21.94,6.47S99.13,361.56,99.13,361.56Z"
      style="fill:#0B512D"></path>
    <path
      d="M94.76,372.93c-12.66-3.43,4.37-11.37,4.37-11.37s8.72-1.77,17.57,4.9C116.7,366.46,107.42,376.37,94.76,372.93Z"
      style="opacity:0.1"></path>
    <path
      d="M154.31,363.76s-5.8-12.72,8.33-9.43,9.24,14.33,9.24,14.33-9.28,9.91-21.94,6.48S154.31,363.76,154.31,363.76Z"
      style="fill:#0B512D"></path>
    <path
      d="M149.94,375.14c-12.66-3.44,4.37-11.38,4.37-11.38s8.72-1.77,17.57,4.9C171.88,368.66,162.6,378.57,149.94,375.14Z"
      style="opacity:0.1"></path>
    <path d="M122.51,391.08s-2.83-13.7,10.22-7.35,5.83,16,5.83,16-11.24,7.6-22.83,1.45S122.51,391.08,122.51,391.08Z"
      style="fill:#0B512D"></path>
    <path d="M115.73,401.2c-11.58-6.15,6.78-10.12,6.78-10.12s8.9.2,16,8.67C138.56,399.75,127.32,407.35,115.73,401.2Z"
      style="opacity:0.1"></path>
    <path d="M100.62,383.5s-4-8.68,5.68-6.44,6.29,9.77,6.29,9.77-6.32,6.76-15,4.42S100.62,383.5,100.62,383.5Z"
      style="fill:#0B512D"></path>
    <path d="M97.64,391.25c-8.63-2.34,3-7.75,3-7.75a16,16,0,0,1,12,3.33S106.27,393.59,97.64,391.25Z"
      style="opacity:0.1"></path>
    <path d="M92,345.36s4.95-13.27-6.53-9.57-7.77,15-7.77,15,7.29,10,17.59,6.22S92,345.36,92,345.36Z"
      style="fill:#0B512D"></path>
    <path d="M95.33,357c10.29-3.81-3.29-11.64-3.29-11.64s-7-1.65-14.3,5.42C77.74,350.78,85,360.82,95.33,357Z"
      style="opacity:0.1"></path>
    <path d="M164.1,344.27S158.47,336,167,336.6s7.86,9,7.86,9-3.32,8.12-11,7.23S164.1,344.27,164.1,344.27Z"
      style="fill:#0B512D"></path>
    <path d="M163.8,352.83c-7.71-.89.3-8.56.3-8.56s4.54-2.31,10.74,1.33C174.84,345.6,171.52,353.72,163.8,352.83Z"
      style="opacity:0.1"></path>
    <path d="M138.83,373.16s20.12-2.75,9.6-11.9-23.8,1-23.8,1-9.85,12.91.25,20.84S138.83,373.16,138.83,373.16Z"
      style="fill:#0B512D"></path>
    <path d="M124.88,383.07c10.1,7.93,14-9.91,14-9.91s-1.2-7.83-14.2-10.93C124.63,362.23,114.78,375.14,124.88,383.07Z"
      style="opacity:0.1"></path>
    <path d="M87.4,396.07s-5-16.43,5.77-11.56,7.62,18.63,7.62,18.63-6.46,12.11-16.11,7.14S87.4,396.07,87.4,396.07Z"
      style="fill:#0B512D"></path>
    <path d="M84.68,410.28c-9.64-5,2.72-14.21,2.72-14.21s6.44-1.83,13.39,7.07C100.79,403.14,94.33,415.25,84.68,410.28Z"
      style="opacity:0.1"></path>
  </g>
  <g id="freepik--plant-2--inject-164">
    <path
      d="M365.14,379.81s-35.44-45,2.94-5.48c0,0-7.29-43.82,6.92,1.74,0,0,9.59-42.36,6.14,6.24,0,0,17.58-40.77,2.41,9.57,0,0-58.66,17.88-14.6-.24,0,0-60.08-3.28-4.68-5.31C364.27,386.33,304,358.37,365.14,379.81Z"
      style="fill:#0B512D"></path>
    <path
      d="M365.14,379.81s-35.44-45,2.94-5.48c0,0-7.29-43.82,6.92,1.74,0,0,9.59-42.36,6.14,6.24,0,0,17.58-40.77,2.41,9.57,0,0-58.66,17.88-14.6-.24,0,0-60.08-3.28-4.68-5.31C364.27,386.33,304,358.37,365.14,379.81Z"
      style="opacity:0.1"></path>
    <path d="M369.94,380.42s20.18,12.11,25.66,29.42"
      style="fill:none;stroke:#263238;stroke-linecap:round;stroke-linejoin:round;stroke-width:0.75px"></path>
    <path
      d="M435.14,405.57h-66a2,2,0,1,0,0,3.93h1.42l4.57,17.06a9.22,9.22,0,0,0,8.91,6.85h36.17a9.22,9.22,0,0,0,8.91-6.85l4.57-17.06h1.42a2,2,0,1,0,0-3.93Z"
      style="fill:#263238;stroke:#263238;stroke-linecap:round;stroke-linejoin:round;stroke-width:0.75px"></path>
    <path
      d="M386.14,367.05s-21.38-64.33,5.47-4.92c0,0,9.48-51.7,7,4.72,0,0,27.69-43.31,4.34,9.41,0,0,35.94-38.33-1.17,11.61,0,0-72.47-3.64-16.15-6.12,0,0-65.56-27.77-3.08-7.8C382.55,374,326.69,318.63,386.14,367.05Z"
      style="fill:#0B512D"></path>
    <path d="M390.7,368.47s14.42,20.31,19.61,41.37"
      style="fill:none;stroke:#263238;stroke-linecap:round;stroke-linejoin:round;stroke-width:0.75px"></path>
    <path
      d="M421.84,370.06s50.43-39.72,6.14,3.28c0,0,49.1-8.17-2,7.76,0,0,47.47,10.75-7,6.89,0,0,45.69,19.7-10.72,2.69,0,0-20-65.73.26-16.36,0,0,3.68-67.32,6-5.24C414.54,369.08,445.87,301.53,421.84,370.06Z"
      style="fill:#0B512D"></path>
    <path
      d="M421.84,370.06s50.43-39.72,6.14,3.28c0,0,49.1-8.17-2,7.76,0,0,47.47,10.75-7,6.89,0,0,45.69,19.7-10.72,2.69,0,0-20-65.73.26-16.36,0,0,3.68-67.32,6-5.24C414.54,369.08,445.87,301.53,421.84,370.06Z"
      style="fill:#fff;opacity:0.30000000000000004"></path>
    <path d="M398,412.72c9.07-30.28,25-37.64,25-37.64"
      style="fill:none;stroke:#263238;stroke-linecap:round;stroke-linejoin:round;stroke-width:0.75px"></path>
  </g>
  <g id="freepik--Shadow--inject-164">
    <ellipse cx="230.47" cy="457.27" rx="81.09" ry="15.75" style="fill:#0B512D"></ellipse>
    <ellipse cx="230.47" cy="457.27" rx="81.09" ry="15.75" style="fill:#fff;opacity:0.7000000000000001"></ellipse>
  </g>
  <g id="freepik--Floor--inject-164">
    <line x1="26.23" y1="433.41" x2="476.14" y2="433.41"
      style="fill:none;stroke:#263238;stroke-linecap:round;stroke-linejoin:round"></line>
  </g>
</svg>