<svg width="738" height="12" viewBox="0 0 738 12" fill="none" xmlns="http://www.w3.org/2000/svg">
<g clip-path="url(#clip0_2910_312)">
<path d="M738.583 7.33333C739.135 7.33333 739.583 6.88561 739.583 6.33333C739.583 5.78105 739.135 5.33333 738.583 5.33333V7.33333ZM6.33333 11.6666C9.27885 11.6666 11.6666 9.27885 11.6666 6.33333C11.6666 3.38781 9.27885 1 6.33333 1C3.38781 1 1 3.38781 1 6.33333C1 9.27885 3.38781 11.6666 6.33333 11.6666ZM9.33435 7.33333C9.88664 7.33333 10.3344 6.88561 10.3344 6.33333C10.3344 5.78105 9.88664 5.33333 9.33435 5.33333V7.33333ZM15.3364 5.33333C14.7841 5.33333 14.3364 5.78105 14.3364 6.33333C14.3364 6.88561 14.7841 7.33333 15.3364 7.33333V5.33333ZM21.3384 7.33333C21.8907 7.33333 22.3384 6.88561 22.3384 6.33333C22.3384 5.78105 21.8907 5.33333 21.3384 5.33333V7.33333ZM27.3405 5.33333C26.7882 5.33333 26.3405 5.78105 26.3405 6.33333C26.3405 6.88561 26.7882 7.33333 27.3405 7.33333V5.33333ZM33.3425 7.33333C33.8948 7.33333 34.3425 6.88561 34.3425 6.33333C34.3425 5.78105 33.8948 5.33333 33.3425 5.33333V7.33333ZM39.3446 5.33333C38.7923 5.33333 38.3446 5.78105 38.3446 6.33333C38.3446 6.88561 38.7923 7.33333 39.3446 7.33333V5.33333ZM45.3466 7.33333C45.8989 7.33333 46.3466 6.88561 46.3466 6.33333C46.3466 5.78105 45.8989 5.33333 45.3466 5.33333V7.33333ZM51.3487 5.33333C50.7964 5.33333 50.3487 5.78105 50.3487 6.33333C50.3487 6.88561 50.7964 7.33333 51.3487 7.33333V5.33333ZM57.3507 7.33333C57.903 7.33333 58.3507 6.88561 58.3507 6.33333C58.3507 5.78105 57.903 5.33333 57.3507 5.33333V7.33333ZM63.3528 5.33333C62.8005 5.33333 62.3528 5.78105 62.3528 6.33333C62.3528 6.88561 62.8005 7.33333 63.3528 7.33333V5.33333ZM69.3548 7.33333C69.9071 7.33333 70.3548 6.88561 70.3548 6.33333C70.3548 5.78105 69.9071 5.33333 69.3548 5.33333V7.33333ZM75.3569 5.33333C74.8046 5.33333 74.3569 5.78105 74.3569 6.33333C74.3569 6.88561 74.8046 7.33333 75.3569 7.33333V5.33333ZM81.3589 7.33333C81.9112 7.33333 82.3589 6.88561 82.3589 6.33333C82.3589 5.78105 81.9112 5.33333 81.3589 5.33333V7.33333ZM87.361 5.33333C86.8087 5.33333 86.361 5.78105 86.361 6.33333C86.361 6.88561 86.8087 7.33333 87.361 7.33333V5.33333ZM93.363 7.33333C93.9153 7.33333 94.363 6.88561 94.363 6.33333C94.363 5.78105 93.9153 5.33333 93.363 5.33333V7.33333ZM99.3651 5.33333C98.8128 5.33333 98.3651 5.78105 98.3651 6.33333C98.3651 6.88561 98.8128 7.33333 99.3651 7.33333V5.33333ZM105.367 7.33333C105.919 7.33333 106.367 6.88561 106.367 6.33333C106.367 5.78105 105.919 5.33333 105.367 5.33333V7.33333ZM111.369 5.33333C110.817 5.33333 110.369 5.78105 110.369 6.33333C110.369 6.88561 110.817 7.33333 111.369 7.33333V5.33333ZM117.371 7.33333C117.923 7.33333 118.371 6.88561 118.371 6.33333C118.371 5.78105 117.923 5.33333 117.371 5.33333V7.33333ZM123.373 5.33333C122.821 5.33333 122.373 5.78105 122.373 6.33333C122.373 6.88561 122.821 7.33333 123.373 7.33333V5.33333ZM129.375 7.33333C129.927 7.33333 130.375 6.88561 130.375 6.33333C130.375 5.78105 129.927 5.33333 129.375 5.33333V7.33333ZM135.377 5.33333C134.825 5.33333 134.377 5.78105 134.377 6.33333C134.377 6.88561 134.825 7.33333 135.377 7.33333V5.33333ZM141.379 7.33333C141.931 7.33333 142.379 6.88561 142.379 6.33333C142.379 5.78105 141.931 5.33333 141.379 5.33333V7.33333ZM147.381 5.33333C146.829 5.33333 146.381 5.78105 146.381 6.33333C146.381 6.88561 146.829 7.33333 147.381 7.33333V5.33333ZM153.383 7.33333C153.935 7.33333 154.383 6.88561 154.383 6.33333C154.383 5.78105 153.935 5.33333 153.383 5.33333V7.33333ZM159.385 5.33333C158.833 5.33333 158.385 5.78105 158.385 6.33333C158.385 6.88561 158.833 7.33333 159.385 7.33333V5.33333ZM165.387 7.33333C165.94 7.33333 166.387 6.88561 166.387 6.33333C166.387 5.78105 165.94 5.33333 165.387 5.33333V7.33333ZM171.389 5.33333C170.837 5.33333 170.389 5.78105 170.389 6.33333C170.389 6.88561 170.837 7.33333 171.389 7.33333V5.33333ZM177.391 7.33333C177.944 7.33333 178.391 6.88561 178.391 6.33333C178.391 5.78105 177.944 5.33333 177.391 5.33333V7.33333ZM183.393 5.33333C182.841 5.33333 182.393 5.78105 182.393 6.33333C182.393 6.88561 182.841 7.33333 183.393 7.33333V5.33333ZM189.395 7.33333C189.948 7.33333 190.395 6.88561 190.395 6.33333C190.395 5.78105 189.948 5.33333 189.395 5.33333V7.33333ZM195.398 5.33333C194.845 5.33333 194.398 5.78105 194.398 6.33333C194.398 6.88561 194.845 7.33333 195.398 7.33333V5.33333ZM201.4 7.33333C201.952 7.33333 202.4 6.88561 202.4 6.33333C202.4 5.78105 201.952 5.33333 201.4 5.33333V7.33333ZM207.402 5.33333C206.849 5.33333 206.402 5.78105 206.402 6.33333C206.402 6.88561 206.849 7.33333 207.402 7.33333V5.33333ZM213.404 7.33333C213.956 7.33333 214.404 6.88561 214.404 6.33333C214.404 5.78105 213.956 5.33333 213.404 5.33333V7.33333ZM219.406 5.33333C218.853 5.33333 218.406 5.78105 218.406 6.33333C218.406 6.88561 218.853 7.33333 219.406 7.33333V5.33333ZM225.408 7.33333C225.96 7.33333 226.408 6.88561 226.408 6.33333C226.408 5.78105 225.96 5.33333 225.408 5.33333V7.33333ZM231.41 5.33333C230.858 5.33333 230.41 5.78105 230.41 6.33333C230.41 6.88561 230.858 7.33333 231.41 7.33333V5.33333ZM237.412 7.33333C237.964 7.33333 238.412 6.88561 238.412 6.33333C238.412 5.78105 237.964 5.33333 237.412 5.33333V7.33333ZM243.414 5.33333C242.862 5.33333 242.414 5.78105 242.414 6.33333C242.414 6.88561 242.862 7.33333 243.414 7.33333V5.33333ZM249.416 7.33333C249.968 7.33333 250.416 6.88561 250.416 6.33333C250.416 5.78105 249.968 5.33333 249.416 5.33333V7.33333ZM255.418 5.33333C254.866 5.33333 254.418 5.78105 254.418 6.33333C254.418 6.88561 254.866 7.33333 255.418 7.33333V5.33333ZM261.42 7.33333C261.972 7.33333 262.42 6.88561 262.42 6.33333C262.42 5.78105 261.972 5.33333 261.42 5.33333V7.33333ZM267.422 5.33333C266.87 5.33333 266.422 5.78105 266.422 6.33333C266.422 6.88561 266.87 7.33333 267.422 7.33333V5.33333ZM273.424 7.33333C273.976 7.33333 274.424 6.88561 274.424 6.33333C274.424 5.78105 273.976 5.33333 273.424 5.33333V7.33333ZM279.426 5.33333C278.874 5.33333 278.426 5.78105 278.426 6.33333C278.426 6.88561 278.874 7.33333 279.426 7.33333V5.33333ZM285.428 7.33333C285.98 7.33333 286.428 6.88561 286.428 6.33333C286.428 5.78105 285.98 5.33333 285.428 5.33333V7.33333ZM291.43 5.33333C290.878 5.33333 290.43 5.78105 290.43 6.33333C290.43 6.88561 290.878 7.33333 291.43 7.33333V5.33333ZM297.432 7.33333C297.985 7.33333 298.432 6.88561 298.432 6.33333C298.432 5.78105 297.985 5.33333 297.432 5.33333V7.33333ZM303.434 5.33333C302.882 5.33333 302.434 5.78105 302.434 6.33333C302.434 6.88561 302.882 7.33333 303.434 7.33333V5.33333ZM309.436 7.33333C309.989 7.33333 310.436 6.88561 310.436 6.33333C310.436 5.78105 309.989 5.33333 309.436 5.33333V7.33333ZM315.438 5.33333C314.886 5.33333 314.438 5.78105 314.438 6.33333C314.438 6.88561 314.886 7.33333 315.438 7.33333V5.33333ZM321.44 7.33333C321.993 7.33333 322.44 6.88561 322.44 6.33333C322.44 5.78105 321.993 5.33333 321.44 5.33333V7.33333ZM327.443 5.33333C326.89 5.33333 326.443 5.78105 326.443 6.33333C326.443 6.88561 326.89 7.33333 327.443 7.33333V5.33333ZM333.445 7.33333C333.997 7.33333 334.445 6.88561 334.445 6.33333C334.445 5.78105 333.997 5.33333 333.445 5.33333V7.33333ZM339.447 5.33333C338.894 5.33333 338.447 5.78105 338.447 6.33333C338.447 6.88561 338.894 7.33333 339.447 7.33333V5.33333ZM345.449 7.33333C346.001 7.33333 346.449 6.88561 346.449 6.33333C346.449 5.78105 346.001 5.33333 345.449 5.33333V7.33333ZM351.451 5.33333C350.898 5.33333 350.451 5.78105 350.451 6.33333C350.451 6.88561 350.898 7.33333 351.451 7.33333V5.33333ZM357.453 7.33333C358.005 7.33333 358.453 6.88561 358.453 6.33333C358.453 5.78105 358.005 5.33333 357.453 5.33333V7.33333ZM363.455 5.33333C362.903 5.33333 362.455 5.78105 362.455 6.33333C362.455 6.88561 362.903 7.33333 363.455 7.33333V5.33333ZM369.457 7.33333C370.009 7.33333 370.457 6.88561 370.457 6.33333C370.457 5.78105 370.009 5.33333 369.457 5.33333V7.33333ZM375.459 5.33333C374.907 5.33333 374.459 5.78105 374.459 6.33333C374.459 6.88561 374.907 7.33333 375.459 7.33333V5.33333ZM381.461 7.33333C382.013 7.33333 382.461 6.88561 382.461 6.33333C382.461 5.78105 382.013 5.33333 381.461 5.33333V7.33333ZM387.463 5.33333C386.911 5.33333 386.463 5.78105 386.463 6.33333C386.463 6.88561 386.911 7.33333 387.463 7.33333V5.33333ZM393.465 7.33333C394.017 7.33333 394.465 6.88561 394.465 6.33333C394.465 5.78105 394.017 5.33333 393.465 5.33333V7.33333ZM399.467 5.33333C398.915 5.33333 398.467 5.78105 398.467 6.33333C398.467 6.88561 398.915 7.33333 399.467 7.33333V5.33333ZM405.469 7.33333C406.021 7.33333 406.469 6.88561 406.469 6.33333C406.469 5.78105 406.021 5.33333 405.469 5.33333V7.33333ZM411.471 5.33333C410.919 5.33333 410.471 5.78105 410.471 6.33333C410.471 6.88561 410.919 7.33333 411.471 7.33333V5.33333ZM417.473 7.33333C418.025 7.33333 418.473 6.88561 418.473 6.33333C418.473 5.78105 418.025 5.33333 417.473 5.33333V7.33333ZM423.475 5.33333C422.923 5.33333 422.475 5.78105 422.475 6.33333C422.475 6.88561 422.923 7.33333 423.475 7.33333V5.33333ZM429.477 7.33333C430.03 7.33333 430.477 6.88561 430.477 6.33333C430.477 5.78105 430.03 5.33333 429.477 5.33333V7.33333ZM435.479 5.33333C434.927 5.33333 434.479 5.78105 434.479 6.33333C434.479 6.88561 434.927 7.33333 435.479 7.33333V5.33333ZM441.481 7.33333C442.034 7.33333 442.481 6.88561 442.481 6.33333C442.481 5.78105 442.034 5.33333 441.481 5.33333V7.33333ZM447.483 5.33333C446.931 5.33333 446.483 5.78105 446.483 6.33333C446.483 6.88561 446.931 7.33333 447.483 7.33333V5.33333ZM453.485 7.33333C454.038 7.33333 454.485 6.88561 454.485 6.33333C454.485 5.78105 454.038 5.33333 453.485 5.33333V7.33333ZM459.488 5.33333C458.935 5.33333 458.488 5.78105 458.488 6.33333C458.488 6.88561 458.935 7.33333 459.488 7.33333V5.33333ZM465.49 7.33333C466.042 7.33333 466.49 6.88561 466.49 6.33333C466.49 5.78105 466.042 5.33333 465.49 5.33333V7.33333ZM471.492 5.33333C470.939 5.33333 470.492 5.78105 470.492 6.33333C470.492 6.88561 470.939 7.33333 471.492 7.33333V5.33333ZM477.494 7.33333C478.046 7.33333 478.494 6.88561 478.494 6.33333C478.494 5.78105 478.046 5.33333 477.494 5.33333V7.33333ZM483.496 5.33333C482.943 5.33333 482.496 5.78105 482.496 6.33333C482.496 6.88561 482.943 7.33333 483.496 7.33333V5.33333ZM489.498 7.33333C490.05 7.33333 490.498 6.88561 490.498 6.33333C490.498 5.78105 490.05 5.33333 489.498 5.33333V7.33333ZM495.5 5.33333C494.948 5.33333 494.5 5.78105 494.5 6.33333C494.5 6.88561 494.948 7.33333 495.5 7.33333V5.33333ZM501.502 7.33333C502.054 7.33333 502.502 6.88561 502.502 6.33333C502.502 5.78105 502.054 5.33333 501.502 5.33333V7.33333ZM507.504 5.33333C506.952 5.33333 506.504 5.78105 506.504 6.33333C506.504 6.88561 506.952 7.33333 507.504 7.33333V5.33333ZM513.506 7.33333C514.058 7.33333 514.506 6.88561 514.506 6.33333C514.506 5.78105 514.058 5.33333 513.506 5.33333V7.33333ZM519.508 5.33333C518.956 5.33333 518.508 5.78105 518.508 6.33333C518.508 6.88561 518.956 7.33333 519.508 7.33333V5.33333ZM525.51 7.33333C526.062 7.33333 526.51 6.88561 526.51 6.33333C526.51 5.78105 526.062 5.33333 525.51 5.33333V7.33333ZM531.512 5.33333C530.96 5.33333 530.512 5.78105 530.512 6.33333C530.512 6.88561 530.96 7.33333 531.512 7.33333V5.33333ZM537.514 7.33333C538.066 7.33333 538.514 6.88561 538.514 6.33333C538.514 5.78105 538.066 5.33333 537.514 5.33333V7.33333ZM543.516 5.33333C542.964 5.33333 542.516 5.78105 542.516 6.33333C542.516 6.88561 542.964 7.33333 543.516 7.33333V5.33333ZM549.518 7.33333C550.071 7.33333 550.518 6.88561 550.518 6.33333C550.518 5.78105 550.071 5.33333 549.518 5.33333V7.33333ZM555.52 5.33333C554.968 5.33333 554.52 5.78105 554.52 6.33333C554.52 6.88561 554.968 7.33333 555.52 7.33333V5.33333ZM561.523 7.33333C562.075 7.33333 562.523 6.88561 562.523 6.33333C562.523 5.78105 562.075 5.33333 561.523 5.33333V7.33333ZM567.525 5.33333C566.972 5.33333 566.525 5.78105 566.525 6.33333C566.525 6.88561 566.972 7.33333 567.525 7.33333V5.33333ZM573.527 7.33333C574.079 7.33333 574.527 6.88561 574.527 6.33333C574.527 5.78105 574.079 5.33333 573.527 5.33333V7.33333ZM579.529 5.33333C578.976 5.33333 578.529 5.78105 578.529 6.33333C578.529 6.88561 578.976 7.33333 579.529 7.33333V5.33333ZM585.531 7.33333C586.083 7.33333 586.531 6.88561 586.531 6.33333C586.531 5.78105 586.083 5.33333 585.531 5.33333V7.33333ZM591.533 5.33333C590.981 5.33333 590.533 5.78105 590.533 6.33333C590.533 6.88561 590.981 7.33333 591.533 7.33333V5.33333ZM597.535 7.33333C598.087 7.33333 598.535 6.88561 598.535 6.33333C598.535 5.78105 598.087 5.33333 597.535 5.33333V7.33333ZM603.537 5.33333C602.985 5.33333 602.537 5.78105 602.537 6.33333C602.537 6.88561 602.985 7.33333 603.537 7.33333V5.33333ZM609.539 7.33333C610.091 7.33333 610.539 6.88561 610.539 6.33333C610.539 5.78105 610.091 5.33333 609.539 5.33333V7.33333ZM615.541 5.33333C614.989 5.33333 614.541 5.78105 614.541 6.33333C614.541 6.88561 614.989 7.33333 615.541 7.33333V5.33333ZM621.543 7.33333C622.096 7.33333 622.543 6.88561 622.543 6.33333C622.543 5.78105 622.096 5.33333 621.543 5.33333V7.33333ZM627.545 5.33333C626.993 5.33333 626.545 5.78105 626.545 6.33333C626.545 6.88561 626.993 7.33333 627.545 7.33333V5.33333ZM633.547 7.33333C634.1 7.33333 634.547 6.88561 634.547 6.33333C634.547 5.78105 634.1 5.33333 633.547 5.33333V7.33333ZM639.549 5.33333C638.997 5.33333 638.549 5.78105 638.549 6.33333C638.549 6.88561 638.997 7.33333 639.549 7.33333V5.33333ZM645.552 7.33333C646.104 7.33333 646.552 6.88561 646.552 6.33333C646.552 5.78105 646.104 5.33333 645.552 5.33333V7.33333ZM651.554 5.33333C651.001 5.33333 650.554 5.78105 650.554 6.33333C650.554 6.88561 651.001 7.33333 651.554 7.33333V5.33333ZM657.556 7.33333C658.108 7.33333 658.556 6.88561 658.556 6.33333C658.556 5.78105 658.108 5.33333 657.556 5.33333V7.33333ZM663.558 5.33333C663.005 5.33333 662.558 5.78105 662.558 6.33333C662.558 6.88561 663.005 7.33333 663.558 7.33333V5.33333ZM669.56 7.33333C670.112 7.33333 670.56 6.88561 670.56 6.33333C670.56 5.78105 670.112 5.33333 669.56 5.33333V7.33333ZM675.562 5.33333C675.01 5.33333 674.562 5.78105 674.562 6.33333C674.562 6.88561 675.01 7.33333 675.562 7.33333V5.33333ZM681.564 7.33333C682.116 7.33333 682.564 6.88561 682.564 6.33333C682.564 5.78105 682.116 5.33333 681.564 5.33333V7.33333ZM687.566 5.33333C687.014 5.33333 686.566 5.78105 686.566 6.33333C686.566 6.88561 687.014 7.33333 687.566 7.33333V5.33333ZM693.568 7.33333C694.12 7.33333 694.568 6.88561 694.568 6.33333C694.568 5.78105 694.12 5.33333 693.568 5.33333V7.33333ZM699.57 5.33333C699.018 5.33333 698.57 5.78105 698.57 6.33333C698.57 6.88561 699.018 7.33333 699.57 7.33333V5.33333ZM705.572 7.33333C706.125 7.33333 706.572 6.88561 706.572 6.33333C706.572 5.78105 706.125 5.33333 705.572 5.33333V7.33333ZM711.574 5.33333C711.022 5.33333 710.574 5.78105 710.574 6.33333C710.574 6.88561 711.022 7.33333 711.574 7.33333V5.33333ZM717.576 7.33333C718.129 7.33333 718.576 6.88561 718.576 6.33333C718.576 5.78105 718.129 5.33333 717.576 5.33333V7.33333ZM723.579 5.33333C723.026 5.33333 722.579 5.78105 722.579 6.33333C722.579 6.88561 723.026 7.33333 723.579 7.33333V5.33333ZM729.581 7.33333C730.133 7.33333 730.581 6.88561 730.581 6.33333C730.581 5.78105 730.133 5.33333 729.581 5.33333V7.33333ZM735.583 5.33333C735.03 5.33333 734.583 5.78105 734.583 6.33333C734.583 6.88561 735.03 7.33333 735.583 7.33333V5.33333ZM6.33333 7.33333H9.33435V5.33333H6.33333V7.33333ZM15.3364 7.33333H21.3384V5.33333H15.3364V7.33333ZM27.3405 7.33333H33.3425V5.33333H27.3405V7.33333ZM39.3446 7.33333H45.3466V5.33333H39.3446V7.33333ZM51.3487 7.33333H57.3507V5.33333H51.3487V7.33333ZM63.3528 7.33333H69.3548V5.33333H63.3528V7.33333ZM75.3569 7.33333H81.3589V5.33333H75.3569V7.33333ZM87.361 7.33333H93.363V5.33333H87.361V7.33333ZM99.3651 7.33333H105.367V5.33333H99.3651V7.33333ZM111.369 7.33333H117.371V5.33333H111.369V7.33333ZM123.373 7.33333H129.375V5.33333H123.373V7.33333ZM135.377 7.33333H141.379V5.33333H135.377V7.33333ZM147.381 7.33333H153.383V5.33333H147.381V7.33333ZM159.385 7.33333H165.387V5.33333H159.385V7.33333ZM171.389 7.33333H177.391V5.33333H171.389V7.33333ZM183.393 7.33333H189.395V5.33333H183.393V7.33333ZM195.398 7.33333H201.4V5.33333H195.398V7.33333ZM207.402 7.33333H213.404V5.33333H207.402V7.33333ZM219.406 7.33333H225.408V5.33333H219.406V7.33333ZM231.41 7.33333H237.412V5.33333H231.41V7.33333ZM243.414 7.33333H249.416V5.33333H243.414V7.33333ZM255.418 7.33333H261.42V5.33333H255.418V7.33333ZM267.422 7.33333H273.424V5.33333H267.422V7.33333ZM279.426 7.33333H285.428V5.33333H279.426V7.33333ZM291.43 7.33333H297.432V5.33333H291.43V7.33333ZM303.434 7.33333H309.436V5.33333H303.434V7.33333ZM315.438 7.33333H321.44V5.33333H315.438V7.33333ZM327.443 7.33333H333.445V5.33333H327.443V7.33333ZM339.447 7.33333H345.449V5.33333H339.447V7.33333ZM351.451 7.33333H357.453V5.33333H351.451V7.33333ZM363.455 7.33333H369.457V5.33333H363.455V7.33333ZM375.459 7.33333H381.461V5.33333H375.459V7.33333ZM387.463 7.33333H393.465V5.33333H387.463V7.33333ZM399.467 7.33333H405.469V5.33333H399.467V7.33333ZM411.471 7.33333H417.473V5.33333H411.471V7.33333ZM423.475 7.33333H429.477V5.33333H423.475V7.33333ZM435.479 7.33333H441.481V5.33333H435.479V7.33333ZM447.483 7.33333H453.485V5.33333H447.483V7.33333ZM459.488 7.33333H465.49V5.33333H459.488V7.33333ZM471.492 7.33333H477.494V5.33333H471.492V7.33333ZM483.496 7.33333H489.498V5.33333H483.496V7.33333ZM495.5 7.33333H501.502V5.33333H495.5V7.33333ZM507.504 7.33333H513.506V5.33333H507.504V7.33333ZM519.508 7.33333H525.51V5.33333H519.508V7.33333ZM531.512 7.33333H537.514V5.33333H531.512V7.33333ZM543.516 7.33333H549.518V5.33333H543.516V7.33333ZM555.52 7.33333H561.523V5.33333H555.52V7.33333ZM567.525 7.33333H573.527V5.33333H567.525V7.33333ZM579.529 7.33333H585.531V5.33333H579.529V7.33333ZM591.533 7.33333H597.535V5.33333H591.533V7.33333ZM603.537 7.33333H609.539V5.33333H603.537V7.33333ZM615.541 7.33333H621.543V5.33333H615.541V7.33333ZM627.545 7.33333H633.547V5.33333H627.545V7.33333ZM639.549 7.33333H645.552V5.33333H639.549V7.33333ZM651.554 7.33333H657.556V5.33333H651.554V7.33333ZM663.558 7.33333H669.56V5.33333H663.558V7.33333ZM675.562 7.33333H681.564V5.33333H675.562V7.33333ZM687.566 7.33333H693.568V5.33333H687.566V7.33333ZM699.57 7.33333H705.572V5.33333H699.57V7.33333ZM711.574 7.33333H717.576V5.33333H711.574V7.33333ZM723.579 7.33333H729.581V5.33333H723.579V7.33333ZM735.583 7.33333H738.583V5.33333H735.583V7.33333Z" fill="#E5E5E5"/>
<path d="M2 6C2 3.23858 4.23858 1 7 1C9.76142 1 12 3.23858 12 6C12 8.76142 9.76142 11 7 11C4.23858 11 2 8.76142 2 6Z" fill="white" stroke="#176B2C" stroke-width="2"/>
</g>
<defs>
<clipPath id="clip0_2910_312">
<rect width="738" height="12" fill="white"/>
</clipPath>
</defs>
</svg>
