<svg width="24" height="24" viewBox="0 0 24 24" fill="none" xmlns="http://www.w3.org/2000/svg">
<path d="M10.82 16.1195C12.51 16.7195 14.73 16.9095 16 16.9695C16.55 16.9995 17 16.5495 16.97 15.9995C16.91 14.7295 16.71 12.4995 16.12 10.8195M11.5 6.49954C13.14 6.49954 16.5 6.11954 18.21 5.42954C18.73 5.22954 18.76 4.60954 18.33 4.25954C16.4104 2.69332 13.9777 1.89546 11.5033 2.02058C9.02894 2.1457 6.68911 3.18488 4.93724 4.93675C3.18537 6.68863 2.14619 9.02845 2.02107 11.5028C1.89595 13.9772 2.69381 16.4099 4.26003 18.3295C4.61003 18.7595 5.22003 18.7295 5.43003 18.2095C6.12003 16.4995 6.50003 13.1395 6.50003 11.4995C7.84003 11.9495 9.60003 12.3995 11.38 12.1195C11.5645 12.0897 11.7347 12.0019 11.866 11.8688C11.9972 11.7358 12.0827 11.5644 12.11 11.3795C12.41 9.23954 11.96 7.87954 11.5 6.49954Z" fill="#8BCF3F"/>
<path d="M10.82 16.1195C12.51 16.7195 14.73 16.9095 16 16.9695C16.55 16.9995 17 16.5495 16.97 15.9995C16.91 14.7295 16.71 12.4995 16.12 10.8195M11.5 6.49954C13.14 6.49954 16.5 6.11954 18.21 5.42954C18.73 5.22954 18.76 4.60954 18.33 4.25954C16.4104 2.69332 13.9777 1.89546 11.5033 2.02058C9.02894 2.1457 6.68911 3.18488 4.93724 4.93675C3.18537 6.68863 2.14619 9.02845 2.02107 11.5028C1.89595 13.9772 2.69381 16.4099 4.26003 18.3295C4.61003 18.7595 5.22003 18.7295 5.43003 18.2095C6.12003 16.4995 6.50003 13.1395 6.50003 11.4995C7.84003 11.9495 9.60003 12.3995 11.38 12.1195C11.5645 12.0897 11.7347 12.0019 11.866 11.8688C11.9972 11.7358 12.0827 11.5644 12.11 11.3795C12.41 9.23954 11.96 7.87954 11.5 6.49954Z" stroke="#0F6A3B" stroke-width="2" stroke-linecap="round" stroke-linejoin="round"/>
<path d="M15.6201 16.9492C15.8201 17.7992 16.2401 19.7092 16.1201 21.2292C16.112 21.3363 16.0815 21.4404 16.0307 21.535C15.9799 21.6296 15.9099 21.7125 15.8251 21.7785C15.7403 21.8444 15.6427 21.8918 15.5386 21.9178C15.4344 21.9438 15.3259 21.9477 15.2201 21.9292C13.8069 21.6547 12.4354 21.1976 11.1401 20.5692" fill="#8BCF3F"/>
<path d="M15.6201 16.9492C15.8201 17.7992 16.2401 19.7092 16.1201 21.2292C16.112 21.3363 16.0815 21.4404 16.0307 21.535C15.9799 21.6296 15.9099 21.7125 15.8251 21.7785C15.7403 21.8444 15.6427 21.8918 15.5386 21.9178C15.4344 21.9438 15.3259 21.9477 15.2201 21.9292C13.8069 21.6547 12.4354 21.1976 11.1401 20.5692" stroke="#0F6A3B" stroke-width="2" stroke-linecap="round" stroke-linejoin="round"/>
<path d="M16.1299 21.0489C17.7799 21.6789 19.8099 21.8889 20.9999 21.9589C21.1282 21.9678 21.257 21.9491 21.3775 21.9039C21.498 21.8588 21.6074 21.7884 21.6984 21.6975C21.7894 21.6065 21.8598 21.497 21.9049 21.3765C21.95 21.256 21.9688 21.1273 21.9599 20.9989C21.8896 19.3414 21.5866 17.702 21.0599 16.1289" fill="#8BCF3F"/>
<path d="M16.1299 21.0489C17.7799 21.6789 19.8099 21.8889 20.9999 21.9589C21.1282 21.9678 21.257 21.9491 21.3775 21.9039C21.498 21.8588 21.6074 21.7884 21.6984 21.6975C21.7894 21.6065 21.8598 21.497 21.9049 21.3765C21.95 21.256 21.9688 21.1273 21.9599 20.9989C21.8896 19.3414 21.5866 17.702 21.0599 16.1289" stroke="#0F6A3B" stroke-width="2" stroke-linecap="round" stroke-linejoin="round"/>
<path d="M16.9399 15.6206C17.7999 15.8206 19.7099 16.2406 21.2299 16.1206C21.337 16.1125 21.4412 16.082 21.5358 16.0312C21.6303 15.9804 21.7133 15.9103 21.7792 15.8256C21.8451 15.7408 21.8926 15.6432 21.9185 15.539C21.9445 15.4349 21.9484 15.3264 21.9299 15.2206C21.6554 13.8074 21.1983 12.4359 20.5699 11.1406" fill="#8BCF3F"/>
<path d="M16.9399 15.6206C17.7999 15.8206 19.7099 16.2406 21.2299 16.1206C21.337 16.1125 21.4412 16.082 21.5358 16.0312C21.6303 15.9804 21.7133 15.9103 21.7792 15.8256C21.8451 15.7408 21.8926 15.6432 21.9185 15.539C21.9445 15.4349 21.9484 15.3264 21.9299 15.2206C21.6554 13.8074 21.1983 12.4359 20.5699 11.1406" stroke="#0F6A3B" stroke-width="2" stroke-linecap="round" stroke-linejoin="round"/>
<path d="M17.9901 5.52C19.2345 6.87415 20.2937 8.38734 21.1401 10.02C21.1939 10.1382 21.2182 10.2676 21.2107 10.3972C21.2033 10.5268 21.1644 10.6527 21.0975 10.7639C21.0306 10.8752 20.9375 10.9684 20.8265 11.0357C20.7155 11.103 20.5897 11.1422 20.4601 11.15C18.1301 11.35 15.1601 10.83 12.1901 9.58M4.93014 4.93L3.00014 3C2.93362 2.93482 2.88078 2.85703 2.8447 2.77117C2.80862 2.68532 2.79004 2.59313 2.79004 2.5C2.79004 2.40687 2.80862 2.31468 2.8447 2.22883C2.88078 2.14297 2.93362 2.06518 3.00014 2M9.58014 12.18C10.8201 15.16 11.3501 18.13 11.1501 20.46C11.1423 20.5896 11.1031 20.7153 11.0358 20.8264C10.9686 20.9374 10.8753 21.0304 10.7641 21.0973C10.6528 21.1643 10.527 21.2031 10.3974 21.2106C10.2678 21.218 10.1383 21.1938 10.0201 21.14C8.38748 20.2936 6.87429 19.2343 5.52014 17.99" fill="#8BCF3F"/>
<path d="M17.9901 5.52C19.2345 6.87415 20.2937 8.38734 21.1401 10.02C21.1939 10.1382 21.2182 10.2676 21.2107 10.3972C21.2033 10.5268 21.1644 10.6527 21.0975 10.7639C21.0306 10.8752 20.9375 10.9684 20.8265 11.0357C20.7155 11.103 20.5897 11.1422 20.4601 11.15C18.1301 11.35 15.1601 10.83 12.1901 9.58M4.93014 4.93L3.00014 3C2.93362 2.93482 2.88078 2.85703 2.8447 2.77117C2.80862 2.68532 2.79004 2.59313 2.79004 2.5C2.79004 2.40687 2.80862 2.31468 2.8447 2.22883C2.88078 2.14297 2.93362 2.06518 3.00014 2M9.58014 12.18C10.8201 15.16 11.3501 18.13 11.1501 20.46C11.1423 20.5896 11.1031 20.7153 11.0358 20.8264C10.9686 20.9374 10.8753 21.0304 10.7641 21.0973C10.6528 21.1643 10.527 21.2031 10.3974 21.2106C10.2678 21.218 10.1383 21.1938 10.0201 21.14C8.38748 20.2936 6.87429 19.2343 5.52014 17.99" stroke="#0F6A3B" stroke-width="2" stroke-linecap="round" stroke-linejoin="round"/>
</svg>
