<svg width="738" height="12" viewBox="0 0 738 12" fill="none" xmlns="http://www.w3.org/2000/svg">
<g clip-path="url(#clip0_2910_315)">
<path d="M738.999 7.0013C739.551 7.0013 739.999 6.55358 739.999 6.0013C739.999 5.44902 739.551 5.0013 738.999 5.0013V7.0013ZM6.74935 11.3346C9.69487 11.3346 12.0826 8.94682 12.0826 6.0013C12.0826 3.05578 9.69487 0.667969 6.74935 0.667969C3.80383 0.667969 1.41602 3.05578 1.41602 6.0013C1.41602 8.94682 3.80383 11.3346 6.74935 11.3346ZM9.75037 7.0013C10.3027 7.0013 10.7504 6.55358 10.7504 6.0013C10.7504 5.44902 10.3027 5.0013 9.75037 5.0013V7.0013ZM15.7524 5.0013C15.2001 5.0013 14.7524 5.44902 14.7524 6.0013C14.7524 6.55358 15.2001 7.0013 15.7524 7.0013V5.0013ZM21.7544 7.0013C22.3067 7.0013 22.7544 6.55358 22.7544 6.0013C22.7544 5.44902 22.3067 5.0013 21.7544 5.0013V7.0013ZM27.7565 5.0013C27.2042 5.0013 26.7565 5.44902 26.7565 6.0013C26.7565 6.55358 27.2042 7.0013 27.7565 7.0013V5.0013ZM33.7585 7.0013C34.3108 7.0013 34.7585 6.55358 34.7585 6.0013C34.7585 5.44902 34.3108 5.0013 33.7585 5.0013V7.0013ZM39.7606 5.0013C39.2083 5.0013 38.7606 5.44902 38.7606 6.0013C38.7606 6.55358 39.2083 7.0013 39.7606 7.0013V5.0013ZM45.7626 7.0013C46.3149 7.0013 46.7626 6.55358 46.7626 6.0013C46.7626 5.44902 46.3149 5.0013 45.7626 5.0013V7.0013ZM51.7647 5.0013C51.2124 5.0013 50.7647 5.44902 50.7647 6.0013C50.7647 6.55358 51.2124 7.0013 51.7647 7.0013V5.0013ZM57.7667 7.0013C58.319 7.0013 58.7667 6.55358 58.7667 6.0013C58.7667 5.44902 58.319 5.0013 57.7667 5.0013V7.0013ZM63.7688 5.0013C63.2165 5.0013 62.7688 5.44902 62.7688 6.0013C62.7688 6.55358 63.2165 7.0013 63.7688 7.0013V5.0013ZM69.7709 7.0013C70.3232 7.0013 70.7709 6.55358 70.7709 6.0013C70.7709 5.44902 70.3232 5.0013 69.7709 5.0013V7.0013ZM75.7729 5.0013C75.2206 5.0013 74.7729 5.44902 74.7729 6.0013C74.7729 6.55358 75.2206 7.0013 75.7729 7.0013V5.0013ZM81.7749 7.0013C82.3272 7.0013 82.7749 6.55358 82.7749 6.0013C82.7749 5.44902 82.3272 5.0013 81.7749 5.0013V7.0013ZM87.7771 5.0013C87.2248 5.0013 86.7771 5.44902 86.7771 6.0013C86.7771 6.55358 87.2248 7.0013 87.7771 7.0013V5.0013ZM93.7791 7.0013C94.3314 7.0013 94.7791 6.55358 94.7791 6.0013C94.7791 5.44902 94.3314 5.0013 93.7791 5.0013V7.0013ZM99.7812 5.0013C99.2289 5.0013 98.7812 5.44902 98.7812 6.0013C98.7812 6.55358 99.2289 7.0013 99.7812 7.0013V5.0013ZM105.783 7.0013C106.335 7.0013 106.783 6.55358 106.783 6.0013C106.783 5.44902 106.335 5.0013 105.783 5.0013V7.0013ZM111.785 5.0013C111.233 5.0013 110.785 5.44902 110.785 6.0013C110.785 6.55358 111.233 7.0013 111.785 7.0013V5.0013ZM117.787 7.0013C118.339 7.0013 118.787 6.55358 118.787 6.0013C118.787 5.44902 118.339 5.0013 117.787 5.0013V7.0013ZM123.789 5.0013C123.237 5.0013 122.789 5.44902 122.789 6.0013C122.789 6.55358 123.237 7.0013 123.789 7.0013V5.0013ZM129.791 7.0013C130.343 7.0013 130.791 6.55358 130.791 6.0013C130.791 5.44902 130.343 5.0013 129.791 5.0013V7.0013ZM135.793 5.0013C135.241 5.0013 134.793 5.44902 134.793 6.0013C134.793 6.55358 135.241 7.0013 135.793 7.0013V5.0013ZM141.795 7.0013C142.347 7.0013 142.795 6.55358 142.795 6.0013C142.795 5.44902 142.347 5.0013 141.795 5.0013V7.0013ZM147.797 5.0013C147.245 5.0013 146.797 5.44902 146.797 6.0013C146.797 6.55358 147.245 7.0013 147.797 7.0013V5.0013ZM153.799 7.0013C154.351 7.0013 154.799 6.55358 154.799 6.0013C154.799 5.44902 154.351 5.0013 153.799 5.0013V7.0013ZM159.801 5.0013C159.249 5.0013 158.801 5.44902 158.801 6.0013C158.801 6.55358 159.249 7.0013 159.801 7.0013V5.0013ZM165.803 7.0013C166.356 7.0013 166.803 6.55358 166.803 6.0013C166.803 5.44902 166.356 5.0013 165.803 5.0013V7.0013ZM171.805 5.0013C171.253 5.0013 170.805 5.44902 170.805 6.0013C170.805 6.55358 171.253 7.0013 171.805 7.0013V5.0013ZM177.807 7.0013C178.36 7.0013 178.807 6.55358 178.807 6.0013C178.807 5.44902 178.36 5.0013 177.807 5.0013V7.0013ZM183.809 5.0013C183.257 5.0013 182.809 5.44902 182.809 6.0013C182.809 6.55358 183.257 7.0013 183.809 7.0013V5.0013ZM189.811 7.0013C190.364 7.0013 190.811 6.55358 190.811 6.0013C190.811 5.44902 190.364 5.0013 189.811 5.0013V7.0013ZM195.814 5.0013C195.261 5.0013 194.814 5.44902 194.814 6.0013C194.814 6.55358 195.261 7.0013 195.814 7.0013V5.0013ZM201.816 7.0013C202.368 7.0013 202.816 6.55358 202.816 6.0013C202.816 5.44902 202.368 5.0013 201.816 5.0013V7.0013ZM207.818 5.0013C207.265 5.0013 206.818 5.44902 206.818 6.0013C206.818 6.55358 207.265 7.0013 207.818 7.0013V5.0013ZM213.82 7.0013C214.372 7.0013 214.82 6.55358 214.82 6.0013C214.82 5.44902 214.372 5.0013 213.82 5.0013V7.0013ZM219.822 5.0013C219.269 5.0013 218.822 5.44902 218.822 6.0013C218.822 6.55358 219.269 7.0013 219.822 7.0013V5.0013ZM225.824 7.0013C226.376 7.0013 226.824 6.55358 226.824 6.0013C226.824 5.44902 226.376 5.0013 225.824 5.0013V7.0013ZM231.826 5.0013C231.274 5.0013 230.826 5.44902 230.826 6.0013C230.826 6.55358 231.274 7.0013 231.826 7.0013V5.0013ZM237.828 7.0013C238.38 7.0013 238.828 6.55358 238.828 6.0013C238.828 5.44902 238.38 5.0013 237.828 5.0013V7.0013ZM243.83 5.0013C243.278 5.0013 242.83 5.44902 242.83 6.0013C242.83 6.55358 243.278 7.0013 243.83 7.0013V5.0013ZM249.832 7.0013C250.384 7.0013 250.832 6.55358 250.832 6.0013C250.832 5.44902 250.384 5.0013 249.832 5.0013V7.0013ZM255.834 5.0013C255.282 5.0013 254.834 5.44902 254.834 6.0013C254.834 6.55358 255.282 7.0013 255.834 7.0013V5.0013ZM261.836 7.0013C262.388 7.0013 262.836 6.55358 262.836 6.0013C262.836 5.44902 262.388 5.0013 261.836 5.0013V7.0013ZM267.838 5.0013C267.286 5.0013 266.838 5.44902 266.838 6.0013C266.838 6.55358 267.286 7.0013 267.838 7.0013V5.0013ZM273.84 7.0013C274.392 7.0013 274.84 6.55358 274.84 6.0013C274.84 5.44902 274.392 5.0013 273.84 5.0013V7.0013ZM279.842 5.0013C279.29 5.0013 278.842 5.44902 278.842 6.0013C278.842 6.55358 279.29 7.0013 279.842 7.0013V5.0013ZM285.844 7.0013C286.396 7.0013 286.844 6.55358 286.844 6.0013C286.844 5.44902 286.396 5.0013 285.844 5.0013V7.0013ZM291.846 5.0013C291.294 5.0013 290.846 5.44902 290.846 6.0013C290.846 6.55358 291.294 7.0013 291.846 7.0013V5.0013ZM297.848 7.0013C298.401 7.0013 298.848 6.55358 298.848 6.0013C298.848 5.44902 298.401 5.0013 297.848 5.0013V7.0013ZM303.85 5.0013C303.298 5.0013 302.85 5.44902 302.85 6.0013C302.85 6.55358 303.298 7.0013 303.85 7.0013V5.0013ZM309.852 7.0013C310.405 7.0013 310.852 6.55358 310.852 6.0013C310.852 5.44902 310.405 5.0013 309.852 5.0013V7.0013ZM315.854 5.0013C315.302 5.0013 314.854 5.44902 314.854 6.0013C314.854 6.55358 315.302 7.0013 315.854 7.0013V5.0013ZM321.856 7.0013C322.409 7.0013 322.856 6.55358 322.856 6.0013C322.856 5.44902 322.409 5.0013 321.856 5.0013V7.0013ZM327.859 5.0013C327.306 5.0013 326.859 5.44902 326.859 6.0013C326.859 6.55358 327.306 7.0013 327.859 7.0013V5.0013ZM333.861 7.0013C334.413 7.0013 334.861 6.55358 334.861 6.0013C334.861 5.44902 334.413 5.0013 333.861 5.0013V7.0013ZM339.863 5.0013C339.31 5.0013 338.863 5.44902 338.863 6.0013C338.863 6.55358 339.31 7.0013 339.863 7.0013V5.0013ZM345.865 7.0013C346.417 7.0013 346.865 6.55358 346.865 6.0013C346.865 5.44902 346.417 5.0013 345.865 5.0013V7.0013ZM351.867 5.0013C351.314 5.0013 350.867 5.44902 350.867 6.0013C350.867 6.55358 351.314 7.0013 351.867 7.0013V5.0013ZM357.869 7.0013C358.421 7.0013 358.869 6.55358 358.869 6.0013C358.869 5.44902 358.421 5.0013 357.869 5.0013V7.0013ZM363.871 5.0013C363.319 5.0013 362.871 5.44902 362.871 6.0013C362.871 6.55358 363.319 7.0013 363.871 7.0013V5.0013ZM369.873 7.0013C370.425 7.0013 370.873 6.55358 370.873 6.0013C370.873 5.44902 370.425 5.0013 369.873 5.0013V7.0013ZM375.875 5.0013C375.323 5.0013 374.875 5.44902 374.875 6.0013C374.875 6.55358 375.323 7.0013 375.875 7.0013V5.0013ZM381.877 7.0013C382.429 7.0013 382.877 6.55358 382.877 6.0013C382.877 5.44902 382.429 5.0013 381.877 5.0013V7.0013ZM387.879 5.0013C387.327 5.0013 386.879 5.44902 386.879 6.0013C386.879 6.55358 387.327 7.0013 387.879 7.0013V5.0013ZM393.881 7.0013C394.433 7.0013 394.881 6.55358 394.881 6.0013C394.881 5.44902 394.433 5.0013 393.881 5.0013V7.0013ZM399.883 5.0013C399.331 5.0013 398.883 5.44902 398.883 6.0013C398.883 6.55358 399.331 7.0013 399.883 7.0013V5.0013ZM405.885 7.0013C406.437 7.0013 406.885 6.55358 406.885 6.0013C406.885 5.44902 406.437 5.0013 405.885 5.0013V7.0013ZM411.887 5.0013C411.335 5.0013 410.887 5.44902 410.887 6.0013C410.887 6.55358 411.335 7.0013 411.887 7.0013V5.0013ZM417.889 7.0013C418.441 7.0013 418.889 6.55358 418.889 6.0013C418.889 5.44902 418.441 5.0013 417.889 5.0013V7.0013ZM423.891 5.0013C423.339 5.0013 422.891 5.44902 422.891 6.0013C422.891 6.55358 423.339 7.0013 423.891 7.0013V5.0013ZM429.893 7.0013C430.446 7.0013 430.893 6.55358 430.893 6.0013C430.893 5.44902 430.446 5.0013 429.893 5.0013V7.0013ZM435.895 5.0013C435.343 5.0013 434.895 5.44902 434.895 6.0013C434.895 6.55358 435.343 7.0013 435.895 7.0013V5.0013ZM441.897 7.0013C442.45 7.0013 442.897 6.55358 442.897 6.0013C442.897 5.44902 442.45 5.0013 441.897 5.0013V7.0013ZM447.899 5.0013C447.347 5.0013 446.899 5.44902 446.899 6.0013C446.899 6.55358 447.347 7.0013 447.899 7.0013V5.0013ZM453.901 7.0013C454.454 7.0013 454.901 6.55358 454.901 6.0013C454.901 5.44902 454.454 5.0013 453.901 5.0013V7.0013ZM459.904 5.0013C459.351 5.0013 458.904 5.44902 458.904 6.0013C458.904 6.55358 459.351 7.0013 459.904 7.0013V5.0013ZM465.906 7.0013C466.458 7.0013 466.906 6.55358 466.906 6.0013C466.906 5.44902 466.458 5.0013 465.906 5.0013V7.0013ZM471.908 5.0013C471.355 5.0013 470.908 5.44902 470.908 6.0013C470.908 6.55358 471.355 7.0013 471.908 7.0013V5.0013ZM477.91 7.0013C478.462 7.0013 478.91 6.55358 478.91 6.0013C478.91 5.44902 478.462 5.0013 477.91 5.0013V7.0013ZM483.912 5.0013C483.359 5.0013 482.912 5.44902 482.912 6.0013C482.912 6.55358 483.359 7.0013 483.912 7.0013V5.0013ZM489.914 7.0013C490.466 7.0013 490.914 6.55358 490.914 6.0013C490.914 5.44902 490.466 5.0013 489.914 5.0013V7.0013ZM495.916 5.0013C495.364 5.0013 494.916 5.44902 494.916 6.0013C494.916 6.55358 495.364 7.0013 495.916 7.0013V5.0013ZM501.918 7.0013C502.47 7.0013 502.918 6.55358 502.918 6.0013C502.918 5.44902 502.47 5.0013 501.918 5.0013V7.0013ZM507.92 5.0013C507.368 5.0013 506.92 5.44902 506.92 6.0013C506.92 6.55358 507.368 7.0013 507.92 7.0013V5.0013ZM513.922 7.0013C514.474 7.0013 514.922 6.55358 514.922 6.0013C514.922 5.44902 514.474 5.0013 513.922 5.0013V7.0013ZM519.924 5.0013C519.372 5.0013 518.924 5.44902 518.924 6.0013C518.924 6.55358 519.372 7.0013 519.924 7.0013V5.0013ZM525.926 7.0013C526.478 7.0013 526.926 6.55358 526.926 6.0013C526.926 5.44902 526.478 5.0013 525.926 5.0013V7.0013ZM531.928 5.0013C531.376 5.0013 530.928 5.44902 530.928 6.0013C530.928 6.55358 531.376 7.0013 531.928 7.0013V5.0013ZM537.93 7.0013C538.482 7.0013 538.93 6.55358 538.93 6.0013C538.93 5.44902 538.482 5.0013 537.93 5.0013V7.0013ZM543.932 5.0013C543.38 5.0013 542.932 5.44902 542.932 6.0013C542.932 6.55358 543.38 7.0013 543.932 7.0013V5.0013ZM549.934 7.0013C550.487 7.0013 550.934 6.55358 550.934 6.0013C550.934 5.44902 550.487 5.0013 549.934 5.0013V7.0013ZM555.936 5.0013C555.384 5.0013 554.936 5.44902 554.936 6.0013C554.936 6.55358 555.384 7.0013 555.936 7.0013V5.0013ZM561.939 7.0013C562.491 7.0013 562.939 6.55358 562.939 6.0013C562.939 5.44902 562.491 5.0013 561.939 5.0013V7.0013ZM567.941 5.0013C567.388 5.0013 566.941 5.44902 566.941 6.0013C566.941 6.55358 567.388 7.0013 567.941 7.0013V5.0013ZM573.943 7.0013C574.495 7.0013 574.943 6.55358 574.943 6.0013C574.943 5.44902 574.495 5.0013 573.943 5.0013V7.0013ZM579.945 5.0013C579.392 5.0013 578.945 5.44902 578.945 6.0013C578.945 6.55358 579.392 7.0013 579.945 7.0013V5.0013ZM585.947 7.0013C586.499 7.0013 586.947 6.55358 586.947 6.0013C586.947 5.44902 586.499 5.0013 585.947 5.0013V7.0013ZM591.949 5.0013C591.397 5.0013 590.949 5.44902 590.949 6.0013C590.949 6.55358 591.397 7.0013 591.949 7.0013V5.0013ZM597.951 7.0013C598.503 7.0013 598.951 6.55358 598.951 6.0013C598.951 5.44902 598.503 5.0013 597.951 5.0013V7.0013ZM603.953 5.0013C603.401 5.0013 602.953 5.44902 602.953 6.0013C602.953 6.55358 603.401 7.0013 603.953 7.0013V5.0013ZM609.955 7.0013C610.507 7.0013 610.955 6.55358 610.955 6.0013C610.955 5.44902 610.507 5.0013 609.955 5.0013V7.0013ZM615.957 5.0013C615.405 5.0013 614.957 5.44902 614.957 6.0013C614.957 6.55358 615.405 7.0013 615.957 7.0013V5.0013ZM621.959 7.0013C622.512 7.0013 622.959 6.55358 622.959 6.0013C622.959 5.44902 622.512 5.0013 621.959 5.0013V7.0013ZM627.961 5.0013C627.409 5.0013 626.961 5.44902 626.961 6.0013C626.961 6.55358 627.409 7.0013 627.961 7.0013V5.0013ZM633.963 7.0013C634.516 7.0013 634.963 6.55358 634.963 6.0013C634.963 5.44902 634.516 5.0013 633.963 5.0013V7.0013ZM639.965 5.0013C639.413 5.0013 638.965 5.44902 638.965 6.0013C638.965 6.55358 639.413 7.0013 639.965 7.0013V5.0013ZM645.968 7.0013C646.52 7.0013 646.968 6.55358 646.968 6.0013C646.968 5.44902 646.52 5.0013 645.968 5.0013V7.0013ZM651.97 5.0013C651.417 5.0013 650.97 5.44902 650.97 6.0013C650.97 6.55358 651.417 7.0013 651.97 7.0013V5.0013ZM657.972 7.0013C658.524 7.0013 658.972 6.55358 658.972 6.0013C658.972 5.44902 658.524 5.0013 657.972 5.0013V7.0013ZM663.974 5.0013C663.421 5.0013 662.974 5.44902 662.974 6.0013C662.974 6.55358 663.421 7.0013 663.974 7.0013V5.0013ZM669.976 7.0013C670.528 7.0013 670.976 6.55358 670.976 6.0013C670.976 5.44902 670.528 5.0013 669.976 5.0013V7.0013ZM675.978 5.0013C675.426 5.0013 674.978 5.44902 674.978 6.0013C674.978 6.55358 675.426 7.0013 675.978 7.0013V5.0013ZM681.98 7.0013C682.532 7.0013 682.98 6.55358 682.98 6.0013C682.98 5.44902 682.532 5.0013 681.98 5.0013V7.0013ZM687.982 5.0013C687.43 5.0013 686.982 5.44902 686.982 6.0013C686.982 6.55358 687.43 7.0013 687.982 7.0013V5.0013ZM693.984 7.0013C694.536 7.0013 694.984 6.55358 694.984 6.0013C694.984 5.44902 694.536 5.0013 693.984 5.0013V7.0013ZM699.986 5.0013C699.434 5.0013 698.986 5.44902 698.986 6.0013C698.986 6.55358 699.434 7.0013 699.986 7.0013V5.0013ZM705.988 7.0013C706.541 7.0013 706.988 6.55358 706.988 6.0013C706.988 5.44902 706.541 5.0013 705.988 5.0013V7.0013ZM711.99 5.0013C711.438 5.0013 710.99 5.44902 710.99 6.0013C710.99 6.55358 711.438 7.0013 711.99 7.0013V5.0013ZM717.992 7.0013C718.545 7.0013 718.992 6.55358 718.992 6.0013C718.992 5.44902 718.545 5.0013 717.992 5.0013V7.0013ZM723.995 5.0013C723.442 5.0013 722.995 5.44902 722.995 6.0013C722.995 6.55358 723.442 7.0013 723.995 7.0013V5.0013ZM729.997 7.0013C730.549 7.0013 730.997 6.55358 730.997 6.0013C730.997 5.44902 730.549 5.0013 729.997 5.0013V7.0013ZM735.999 5.0013C735.446 5.0013 734.999 5.44902 734.999 6.0013C734.999 6.55358 735.446 7.0013 735.999 7.0013V5.0013ZM6.74935 7.0013H9.75037V5.0013H6.74935V7.0013ZM15.7524 7.0013H21.7544V5.0013H15.7524V7.0013ZM27.7565 7.0013H33.7585V5.0013H27.7565V7.0013ZM39.7606 7.0013H45.7626V5.0013H39.7606V7.0013ZM51.7647 7.0013H57.7667V5.0013H51.7647V7.0013ZM63.7688 7.0013H69.7709V5.0013H63.7688V7.0013ZM75.7729 7.0013H81.7749V5.0013H75.7729V7.0013ZM87.7771 7.0013H93.7791V5.0013H87.7771V7.0013ZM99.7812 7.0013H105.783V5.0013H99.7812V7.0013ZM111.785 7.0013H117.787V5.0013H111.785V7.0013ZM123.789 7.0013H129.791V5.0013H123.789V7.0013ZM135.793 7.0013H141.795V5.0013H135.793V7.0013ZM147.797 7.0013H153.799V5.0013H147.797V7.0013ZM159.801 7.0013H165.803V5.0013H159.801V7.0013ZM171.805 7.0013H177.807V5.0013H171.805V7.0013ZM183.809 7.0013H189.811V5.0013H183.809V7.0013ZM195.814 7.0013H201.816V5.0013H195.814V7.0013ZM207.818 7.0013H213.82V5.0013H207.818V7.0013ZM219.822 7.0013H225.824V5.0013H219.822V7.0013ZM231.826 7.0013H237.828V5.0013H231.826V7.0013ZM243.83 7.0013H249.832V5.0013H243.83V7.0013ZM255.834 7.0013H261.836V5.0013H255.834V7.0013ZM267.838 7.0013H273.84V5.0013H267.838V7.0013ZM279.842 7.0013H285.844V5.0013H279.842V7.0013ZM291.846 7.0013H297.848V5.0013H291.846V7.0013ZM303.85 7.0013H309.852V5.0013H303.85V7.0013ZM315.854 7.0013H321.856V5.0013H315.854V7.0013ZM327.859 7.0013H333.861V5.0013H327.859V7.0013ZM339.863 7.0013H345.865V5.0013H339.863V7.0013ZM351.867 7.0013H357.869V5.0013H351.867V7.0013ZM363.871 7.0013H369.873V5.0013H363.871V7.0013ZM375.875 7.0013H381.877V5.0013H375.875V7.0013ZM387.879 7.0013H393.881V5.0013H387.879V7.0013ZM399.883 7.0013H405.885V5.0013H399.883V7.0013ZM411.887 7.0013H417.889V5.0013H411.887V7.0013ZM423.891 7.0013H429.893V5.0013H423.891V7.0013ZM435.895 7.0013H441.897V5.0013H435.895V7.0013ZM447.899 7.0013H453.901V5.0013H447.899V7.0013ZM459.904 7.0013H465.906V5.0013H459.904V7.0013ZM471.908 7.0013H477.91V5.0013H471.908V7.0013ZM483.912 7.0013H489.914V5.0013H483.912V7.0013ZM495.916 7.0013H501.918V5.0013H495.916V7.0013ZM507.92 7.0013H513.922V5.0013H507.92V7.0013ZM519.924 7.0013H525.926V5.0013H519.924V7.0013ZM531.928 7.0013H537.93V5.0013H531.928V7.0013ZM543.932 7.0013H549.934V5.0013H543.932V7.0013ZM555.936 7.0013H561.939V5.0013H555.936V7.0013ZM567.941 7.0013H573.943V5.0013H567.941V7.0013ZM579.945 7.0013H585.947V5.0013H579.945V7.0013ZM591.949 7.0013H597.951V5.0013H591.949V7.0013ZM603.953 7.0013H609.955V5.0013H603.953V7.0013ZM615.957 7.0013H621.959V5.0013H615.957V7.0013ZM627.961 7.0013H633.963V5.0013H627.961V7.0013ZM639.965 7.0013H645.968V5.0013H639.965V7.0013ZM651.97 7.0013H657.972V5.0013H651.97V7.0013ZM663.974 7.0013H669.976V5.0013H663.974V7.0013ZM675.978 7.0013H681.98V5.0013H675.978V7.0013ZM687.982 7.0013H693.984V5.0013H687.982V7.0013ZM699.986 7.0013H705.988V5.0013H699.986V7.0013ZM711.99 7.0013H717.992V5.0013H711.99V7.0013ZM723.995 7.0013H729.997V5.0013H723.995V7.0013ZM735.999 7.0013H738.999V5.0013H735.999V7.0013Z" fill="#E5E5E5"/>
<path d="M2 6C2 3.23858 4.23858 1 7 1C9.76142 1 12 3.23858 12 6C12 8.76142 9.76142 11 7 11C4.23858 11 2 8.76142 2 6Z" fill="white" stroke="#176B2C" stroke-width="2"/>
</g>
<defs>
<clipPath id="clip0_2910_315">
<rect width="738" height="12" fill="white"/>
</clipPath>
</defs>
</svg>
