<svg width="2141" height="648" viewBox="0 0 2141 648" fill="none" xmlns="http://www.w3.org/2000/svg">
<path d="M865.44 109.001V403.001H783.12V174.941H671.4V403.001H589.5V109.001H865.44Z" fill="#8BCF3F"/>
<path d="M1158.03 175.361V403.001H1082.01V379.061C1073.61 388.021 1063.53 394.881 1051.77 399.641C1040.29 404.401 1027.97 406.781 1014.81 406.781C985.129 406.781 961.469 398.101 943.829 380.741C926.469 363.381 917.789 337.341 917.789 302.621V175.361H997.589V289.601C997.589 322.361 1010.33 338.741 1035.81 338.741C1048.41 338.741 1058.63 334.401 1066.47 325.721C1074.31 316.761 1078.23 303.181 1078.23 284.981V175.361H1158.03Z" fill="#8BCF3F"/>
<path d="M1430.42 249.281C1447.78 254.881 1460.94 263.561 1469.9 275.321C1479.14 287.081 1483.76 301.641 1483.76 319.001C1483.76 345.041 1473.54 365.621 1453.1 380.741C1432.94 395.581 1404.24 403.001 1367 403.001H1216.22V109.001H1359.02C1394.3 109.001 1421.6 115.721 1440.92 129.161C1460.52 142.321 1470.32 161.081 1470.32 185.441C1470.32 199.721 1466.82 212.321 1459.82 223.241C1453.1 234.161 1443.3 242.841 1430.42 249.281ZM1298.12 226.601H1351.04C1374.56 226.601 1386.32 216.941 1386.32 197.621C1386.32 178.301 1374.56 168.641 1351.04 168.641H1298.12V226.601ZM1363.64 343.361C1387.72 343.361 1399.76 333.141 1399.76 312.701C1399.76 292.821 1387.72 282.881 1363.64 282.881H1298.12V343.361H1363.64Z" fill="#8BCF3F"/>
<path d="M1647.62 290.441H1609.82V403.001H1527.08V109.001H1609.82V223.241H1649.72L1719.86 109.001H1807.22L1715.24 250.961L1808.06 403.001H1714.4L1647.62 290.441Z" fill="#8BCF3F"/>
<path d="M1977.57 408.881C1946.49 408.881 1918.49 402.301 1893.57 389.141C1868.93 375.981 1849.47 357.781 1835.19 334.541C1821.19 311.301 1814.19 285.121 1814.19 256.001C1814.19 226.881 1821.19 200.701 1835.19 177.461C1849.47 154.221 1868.93 136.021 1893.57 122.861C1918.49 109.701 1946.49 103.121 1977.57 103.121C2008.65 103.121 2036.51 109.701 2061.15 122.861C2086.07 136.021 2105.53 154.221 2119.53 177.461C2133.81 200.701 2140.95 226.881 2140.95 256.001C2140.95 285.121 2133.81 311.301 2119.53 334.541C2105.53 357.781 2086.07 375.981 2061.15 389.141C2036.51 402.301 2008.65 408.881 1977.57 408.881ZM1977.57 340.001C1992.41 340.001 2005.85 336.501 2017.89 329.501C2029.93 322.501 2039.45 312.701 2046.45 300.101C2053.45 287.221 2056.95 272.521 2056.95 256.001C2056.95 239.481 2053.45 224.921 2046.45 212.321C2039.45 199.441 2029.93 189.501 2017.89 182.501C2005.85 175.501 1992.41 172.001 1977.57 172.001C1962.73 172.001 1949.29 175.501 1937.25 182.501C1925.21 189.501 1915.69 199.441 1908.69 212.321C1901.69 224.921 1898.19 239.481 1898.19 256.001C1898.19 272.521 1901.69 287.221 1908.69 300.101C1915.69 312.701 1925.21 322.501 1937.25 329.501C1949.29 336.501 1962.73 340.001 1977.57 340.001Z" fill="#8BCF3F"/>
<path d="M726.144 487.578V617.252H697.309V600.497C692.302 606.648 686.083 611.262 678.652 614.338C671.383 617.414 663.306 618.952 654.422 618.952C641.822 618.952 630.515 616.2 620.499 610.696C610.646 605.191 602.892 597.421 597.238 587.384C591.746 577.346 589 565.69 589 552.415C589 539.14 591.746 527.565 597.238 517.69C602.892 507.653 610.646 499.882 620.499 494.377C630.515 488.873 641.822 486.121 654.422 486.121C662.822 486.121 670.495 487.578 677.441 490.492C684.548 493.406 690.687 497.696 695.856 503.362V487.578H726.144ZM657.814 592.969C668.96 592.969 678.168 589.245 685.437 581.798C692.706 574.351 696.34 564.557 696.34 552.415C696.34 540.273 692.706 530.479 685.437 523.032C678.168 515.585 668.96 511.862 657.814 511.862C646.668 511.862 637.461 515.585 630.192 523.032C623.084 530.479 619.53 540.273 619.53 552.415C619.53 564.557 623.084 574.351 630.192 581.798C637.461 589.245 646.668 592.969 657.814 592.969Z" fill="#8BCF3F"/>
<path d="M825.136 618.952C811.728 618.952 799.694 616.119 789.032 610.453C778.371 604.787 770.052 596.935 764.075 586.898C758.098 576.699 755.11 565.205 755.11 552.415C755.11 539.626 758.098 528.213 764.075 518.175C770.052 508.138 778.29 500.287 788.79 494.62C799.452 488.954 811.567 486.121 825.136 486.121C837.897 486.121 849.043 488.711 858.573 493.892C868.266 499.072 875.535 506.519 880.381 516.233L857.12 529.831C853.404 523.842 848.72 519.39 843.066 516.476C837.574 513.4 831.516 511.862 824.893 511.862C813.586 511.862 804.217 515.585 796.786 523.032C789.356 530.317 785.64 540.112 785.64 552.415C785.64 564.719 789.275 574.594 796.544 582.041C803.975 589.326 813.424 592.969 824.893 592.969C831.516 592.969 837.574 591.512 843.066 588.598C848.72 585.522 853.404 580.989 857.12 574.999L880.381 588.598C875.373 598.311 868.023 605.839 858.331 611.181C848.801 616.362 837.735 618.952 825.136 618.952Z" fill="#8BCF3F"/>
<path d="M964.034 618.952C950.627 618.952 938.592 616.119 927.931 610.453C917.269 604.787 908.95 596.935 902.974 586.898C896.997 576.699 894.008 565.205 894.008 552.415C894.008 539.626 896.997 528.213 902.974 518.175C908.95 508.138 917.189 500.287 927.688 494.62C938.35 488.954 950.465 486.121 964.034 486.121C976.795 486.121 987.941 488.711 997.472 493.892C1007.16 499.072 1014.43 506.519 1019.28 516.233L996.018 529.831C992.303 523.842 987.618 519.39 981.964 516.476C976.472 513.4 970.415 511.862 963.792 511.862C952.484 511.862 943.115 515.585 935.685 523.032C928.254 530.317 924.539 540.112 924.539 552.415C924.539 564.719 928.173 574.594 935.442 582.041C942.873 589.326 952.323 592.969 963.792 592.969C970.415 592.969 976.472 591.512 981.964 588.598C987.618 585.522 992.303 580.989 996.018 574.999L1019.28 588.598C1014.27 598.311 1006.92 605.839 997.229 611.181C987.699 616.362 976.634 618.952 964.034 618.952Z" fill="#8BCF3F"/>
<path d="M1101.72 618.952C1088.64 618.952 1076.84 616.119 1066.34 610.453C1055.84 604.787 1047.61 596.935 1041.63 586.898C1035.81 576.699 1032.91 565.205 1032.91 552.415C1032.91 539.626 1035.81 528.213 1041.63 518.175C1047.61 508.138 1055.84 500.287 1066.34 494.62C1076.84 488.954 1088.64 486.121 1101.72 486.121C1114.97 486.121 1126.84 488.954 1137.34 494.62C1147.84 500.287 1156 508.138 1161.81 518.175C1167.79 528.213 1170.78 539.626 1170.78 552.415C1170.78 565.205 1167.79 576.699 1161.81 586.898C1156 596.935 1147.84 604.787 1137.34 610.453C1126.84 616.119 1114.97 618.952 1101.72 618.952ZM1101.72 592.969C1112.87 592.969 1122.07 589.245 1129.34 581.798C1136.61 574.351 1140.25 564.557 1140.25 552.415C1140.25 540.273 1136.61 530.479 1129.34 523.032C1122.07 515.585 1112.87 511.862 1101.72 511.862C1090.57 511.862 1081.37 515.585 1074.1 523.032C1066.99 530.479 1063.44 540.273 1063.44 552.415C1063.44 564.557 1066.99 574.351 1074.1 581.798C1081.37 589.245 1090.57 592.969 1101.72 592.969Z" fill="#8BCF3F"/>
<path d="M1342.69 591.512V647.121H1314.34V617.252H1200.7V487.578H1230.99V591.512H1292.77V487.578H1323.06V591.512H1342.69Z" fill="#8BCF3F"/>
<path d="M1492.25 487.578V617.252H1463.42V600.739C1458.57 606.568 1452.51 611.1 1445.25 614.338C1438.14 617.414 1430.38 618.952 1421.98 618.952C1404.7 618.952 1391.05 614.176 1381.04 604.625C1371.02 594.911 1366.01 580.584 1366.01 561.643V487.578H1396.3V557.515C1396.3 569.171 1398.89 577.913 1404.05 583.741C1409.39 589.407 1416.98 592.24 1426.83 592.24C1437.49 592.24 1445.97 588.921 1452.27 582.284C1458.73 575.485 1461.96 565.771 1461.96 553.144V487.578H1492.25Z" fill="#8BCF3F"/>
<path d="M1659.15 487.578V617.252H1630.32V600.497C1625.31 606.648 1619.09 611.262 1611.66 614.338C1604.39 617.414 1596.31 618.952 1587.43 618.952C1574.83 618.952 1563.52 616.2 1553.51 610.696C1543.65 605.191 1535.9 597.421 1530.25 587.384C1524.75 577.346 1522.01 565.69 1522.01 552.415C1522.01 539.14 1524.75 527.565 1530.25 517.69C1535.9 507.653 1543.65 499.882 1553.51 494.377C1563.52 488.873 1574.83 486.121 1587.43 486.121C1595.83 486.121 1603.5 487.578 1610.45 490.492C1617.56 493.406 1623.7 497.696 1628.86 503.362V487.578H1659.15ZM1590.82 592.969C1601.97 592.969 1611.18 589.245 1618.45 581.798C1625.71 574.351 1629.35 564.557 1629.35 552.415C1629.35 540.273 1625.71 530.479 1618.45 523.032C1611.18 515.585 1601.97 511.862 1590.82 511.862C1579.68 511.862 1570.47 515.585 1563.2 523.032C1556.09 530.479 1552.54 540.273 1552.54 552.415C1552.54 564.557 1556.09 574.351 1563.2 581.798C1570.47 589.245 1579.68 592.969 1590.82 592.969Z" fill="#8BCF3F"/>
<path d="M1841.25 591.512V647.121H1812.9V617.252H1699.26V487.578H1729.55V591.512H1791.34V487.578H1821.63V591.512H1841.25Z" fill="#8BCF3F"/>
<path d="M1990.82 487.578V617.252H1961.99V600.739C1957.14 606.568 1951.08 611.1 1943.81 614.338C1936.71 617.414 1928.95 618.952 1920.55 618.952C1903.27 618.952 1889.62 614.176 1879.6 604.625C1869.59 594.911 1864.58 580.584 1864.58 561.643V487.578H1894.87V557.515C1894.87 569.171 1897.45 577.913 1902.62 583.741C1907.95 589.407 1915.54 592.24 1925.4 592.24C1936.06 592.24 1944.54 588.921 1950.84 582.284C1957.3 575.485 1960.53 565.771 1960.53 553.144V487.578H1990.82Z" fill="#8BCF3F"/>
<path d="M2141 487.578V617.252H2113.86V578.156H2079.7L2053.29 617.252H2020.82L2051.35 574.028C2041.98 570.79 2034.79 565.852 2029.78 559.215C2024.94 552.415 2022.51 544.078 2022.51 534.203C2022.51 519.309 2027.76 507.814 2038.26 499.72C2048.76 491.625 2063.22 487.578 2081.64 487.578H2141ZM2082.6 513.076C2063.06 513.076 2053.29 520.442 2053.29 535.174C2053.29 549.744 2062.74 557.029 2081.64 557.029H2113.86V513.076H2082.6Z" fill="#8BCF3F"/>
<g clip-path="url(#clip0_2859_208)">
<path d="M229.905 445.342C225.046 443.849 222.562 442.69 218.807 440.038C211.848 435.064 206.605 427.554 204.505 419.595C201.742 408.767 205.222 395.895 213.227 387.882C219.412 381.64 225.263 379.097 234.818 378.601C242.328 378.268 246.636 379.155 253.371 382.412C257.072 384.292 259.06 385.727 262.814 389.483C270.657 397.272 273.583 404.511 273.086 414.621C272.811 420.588 271.099 426.001 268.006 430.974C265.631 434.622 256.079 443.625 254.479 443.625C254.092 443.625 253.045 443.958 252.104 444.4C247.245 446.61 235.76 447.052 229.908 445.339L229.905 445.342Z" fill="#FF9F1C"/>
<path d="M138.961 465.893C134.102 461.473 99.038 420.924 95.2289 415.233C92.745 411.531 93.0746 410.096 99.2589 398.163C102.239 392.305 106.381 383.244 108.427 377.998C110.469 372.695 112.79 367.666 113.507 366.783L114.886 365.181H123.334C134.985 365.181 141.058 363.746 151.938 358.497C156.631 356.233 157.956 356.012 160.385 356.896C164.307 358.388 191.141 381.759 194.124 386.233C195.891 388.885 195.724 392.091 193.461 399.162C192.245 403.14 191.861 405.516 191.694 411.041C191.361 420.156 192.248 424.355 196.221 432.422C197.879 435.846 199.258 439.164 199.258 439.824C199.258 442.363 196.883 445.736 190.203 452.916C179.655 464.186 181.368 463.303 169.054 463.632C161.49 463.853 158.177 464.129 156.739 464.737C154.143 465.897 145.308 467.943 143.1 467.943C141.775 467.943 140.616 467.389 138.958 465.9L138.961 465.893Z" fill="#8BCF3F"/>
<path d="M206.162 373.411C204.12 372.857 196.169 366.506 183.746 355.62C173.64 346.835 171.652 344.57 171.652 342.248C171.652 341.364 172.757 338.379 174.082 335.619C175.407 332.912 176.899 329.706 177.449 328.547C178.554 326.171 180.708 324.845 185.734 323.573C187.555 323.131 191.918 321.972 195.397 321.088C219.306 314.679 273.089 303.297 279.328 303.297C283.691 303.297 284.517 303.793 286.562 307.825C287.225 309.151 288.992 312.079 290.429 314.401C291.921 316.719 293.3 319.317 293.467 320.258C294.021 323.186 292.804 324.954 274.968 346.943C254.978 371.582 256.415 370.314 249.293 368.875C244.046 367.771 229.527 367.55 227.04 368.542C226.21 368.875 223.947 369.481 222.126 369.868C220.247 370.31 217.1 371.361 215.113 372.299C211.412 374.012 209.204 374.288 206.166 373.404L206.162 373.411Z" fill="#8BCF3F"/>
<path d="M464.526 356.45C445.089 343.137 417.26 322.031 395.006 303.747L390.035 299.66L390.201 293.085C390.81 273.363 380.87 255.684 363.201 245.019C358.121 241.925 354.2 240.324 347.244 238.389C343.764 237.397 341.61 236.455 340.784 235.625C340.067 234.796 339.184 232.365 338.467 229.438C336.313 220.211 332.228 196.619 332.558 195.239C333.054 193.305 335.263 193.526 341.281 196.178C367.455 207.723 395.285 216.287 414.609 218.773C421.51 219.602 421.952 219.765 421.623 220.928C421.456 221.703 422.781 223.359 426.315 226.84C447.186 247.504 462.979 274.573 470.102 301.921C474.132 317.445 474.519 320.484 474.519 339.764C474.519 349.321 474.353 357.831 474.077 358.715C473.36 361.367 470.873 360.816 464.526 356.45Z" fill="#0F6A3B"/>
<path d="M294.235 219.659C277.062 203.969 268.56 193.916 254.587 172.976C244.703 158.116 239.901 152.646 234.213 149.773C228.912 147.121 225.766 146.512 219.969 147.009C215.218 147.396 213.122 147.726 200.92 150.103C196.557 150.932 192.968 151.095 179.937 151.095C164.972 151.041 163.868 150.986 157.85 149.603C154.371 148.828 150.065 147.614 148.353 146.951C145.373 145.846 145.148 145.625 145.148 143.969C145.148 142.919 145.59 141.759 146.141 141.263C147.741 139.771 157.68 135.351 172.754 129.275C194.841 120.436 202.462 116.513 214.828 107.673C219.466 104.304 220.625 103.75 223.662 103.253C228.246 102.536 236.639 99.772 241.661 97.3412C245.471 95.4611 248.95 92.3673 253.48 86.9004C254.696 85.4079 255.359 85.0781 257.068 85.0781C259.168 85.0781 259.277 85.1325 260.272 88.0053C263.419 97.0114 269.603 110.713 277.996 127.341C287.327 145.849 290.698 153.196 294.507 163.912C300.8 181.479 305.275 205.291 305.275 221.315V226.506H303.508C301.962 226.506 300.528 225.455 294.232 219.655L294.235 219.659Z" fill="#0F6A3B"/>
<path d="M105.942 536.889C89.2102 518.38 77.5585 497.72 69.4441 472.085C67.0689 464.518 65.0811 455.787 65.0811 452.914C65.0811 449.433 65.9102 448.161 73.5828 440.318C82.472 431.257 81.3132 431.091 91.8606 443.524C96.4445 448.882 103.621 457.279 107.875 462.141C112.126 467.003 116.214 471.752 116.877 472.64C117.594 473.578 120.135 476.451 122.51 479.048L126.873 483.856L124.994 488.442C122.177 495.405 121.348 499.049 121.019 506.121C120.686 513.138 121.24 517.612 123.282 524.021L124.553 528.053L122.344 530.705C121.127 532.197 118.477 535.07 116.489 537.168C111.576 542.196 110.747 542.196 105.942 536.892V536.889Z" fill="#0F6A3B"/>
<path d="M235.096 623.571C215.384 609.982 199.37 596.39 185.234 581.308C174.357 569.705 171.652 566.227 171.652 563.85C171.652 562.028 171.761 561.861 173.253 561.861C175.461 561.861 183.358 559.485 187.83 557.496C192.139 555.562 195.34 553.464 200.199 549.319C203.403 546.555 203.845 546.392 206.55 546.392C209.421 546.392 209.642 546.559 220.243 554.293C226.153 558.604 232.612 563.741 234.6 565.73C240.122 571.309 245.147 581.033 247.964 591.752C249.069 595.839 249.181 597.773 249.235 608.547C249.235 618.604 249.069 621.364 248.185 624.734L247.193 628.711H244.818C242.775 628.711 241.559 628.103 235.099 623.574L235.096 623.571Z" fill="#0F6A3B"/>
<path d="M246.802 646.883C241.447 644.507 217.535 627.382 205.612 617.38C191.143 605.28 173.032 587.326 163.813 575.943C157.52 568.097 150.119 557.214 150.119 555.725C150.119 554.066 151.39 553.902 157.517 554.674C169.002 556.167 177.12 555.228 185.292 551.359C190.205 549.095 193.355 546.831 198.819 541.582C204.453 536.166 205.112 536.057 210.029 539.042C217.318 543.516 236.204 557.438 240.509 561.528C248.073 568.712 255.419 579.207 258.896 587.992C265.688 605.062 265.134 621.857 257.183 637.989C254.312 643.902 251.882 647.162 250.115 647.658C249.507 647.767 248.015 647.437 246.802 646.883ZM246.527 623.071C248.127 616.884 248.019 599.813 246.306 593.405C243.489 582.688 238.463 572.962 232.942 567.383C228.416 562.854 208.259 548.102 206.546 548.045C205.829 548.045 203.841 549.262 201.854 550.972C196.994 555.116 193.79 557.214 189.485 559.148C185.013 561.137 177.116 563.514 174.907 563.514C174.024 563.514 173.307 563.68 173.307 563.847C173.307 564.51 180.045 572.353 186.889 579.646C197.711 591.137 208.867 601.136 222.724 611.743C231.283 618.318 243.927 627.046 244.811 627.046C245.253 627.046 245.97 625.332 246.523 623.068L246.527 623.071Z" fill="#0F6A3B"/>
<path d="M120.907 480.811C118.477 478.105 115.936 475.232 115.273 474.294C114.556 473.41 111.352 469.653 108.151 466.005C102.296 459.375 82.7508 436.614 82.1425 435.73C81.7008 435.121 69.0569 448.051 67.6195 450.59C65.4652 454.347 64.5273 452.746 64.5273 445.12V440.204L72.3699 431.973C77.6164 426.503 80.5964 423.742 81.3712 423.742C83.1925 423.742 89.489 430.538 110.139 454.68C127.033 474.457 128.029 475.841 128.029 479.319C128.029 481.362 126.537 485.615 125.82 485.615C125.545 485.615 123.336 483.459 120.907 480.808V480.811Z" fill="#0F6A3B"/>
<path d="M289.539 452.691C288.322 452.249 286.226 451.365 284.846 450.702C283.466 450.039 281.533 449.485 280.537 449.485C278.716 449.431 278.658 449.376 278.937 447.384C279.103 446.004 278.937 445.12 278.441 444.678C277.999 444.345 277.666 443.185 277.666 442.193C277.666 440.37 277.72 440.312 279.929 440.312C281.642 440.312 284.788 441.472 291.69 444.566C296.878 446.942 300.691 448.931 300.137 449.04C299.583 449.149 298.424 448.985 297.599 448.707C296.053 448.152 295.998 448.21 296.107 449.812C296.273 451.8 295.057 453.68 294.34 452.576C293.898 451.967 293.786 451.967 293.511 452.684C293.069 453.735 292.461 453.735 289.535 452.684L289.539 452.691Z" fill="#0F6A3B"/>
<path d="M249.507 547.107C245.365 544.676 223.057 528.653 220.186 526.059C218.694 524.733 217.148 523.077 216.818 522.411C216.431 521.748 215.989 517.549 215.768 512.687C215.547 507.659 215.051 502.522 214.443 500.258C213.118 494.842 209.254 487.165 205.608 482.579L202.516 478.71L204.229 477.33C205.112 476.555 208.425 472.964 211.572 469.32C216.985 462.966 217.314 462.69 219.577 462.524C220.848 462.415 224.549 463.02 227.804 463.849C232.938 465.121 234.484 465.284 239.014 465.009C251.383 464.291 264.801 458.6 275.624 449.594C278.108 447.493 278.441 447.384 281.146 447.605C282.746 447.772 285.396 448.489 287.055 449.264C291.251 451.144 292.026 451.42 292.026 450.811C292.026 450.478 292.522 450.257 293.13 450.257C294.014 450.257 294.235 449.87 294.235 448.323C294.235 447.106 294.51 446.388 294.952 446.388C295.781 446.388 330.236 461.745 332.941 463.292C336.308 465.281 335.571 467.266 335.901 476.99C336.121 484.228 337.301 485.669 336.584 487.104C335.591 488.984 323.828 500.142 317.698 505.004C315.598 506.717 313.447 508.54 313.005 509.091C312.563 509.645 310.242 511.3 310.242 511.3L302.954 517.046C302.954 517.046 297.486 521.52 297.266 521.52C297.045 521.52 292.682 524.726 292.682 524.726L283.735 531.189L276.337 536.768L272.307 539.474L264.964 543.949C264.964 543.949 262.039 545.937 260.214 546.876C255.851 549.086 252.925 549.14 249.503 547.097L249.507 547.107Z" fill="#0F6A3B"/>
<path d="M202.849 479.152C200.144 475.616 199.978 474.511 201.633 471.693C203.179 469.095 212.289 457.879 214.497 455.948C216.319 454.289 218.527 454.347 224.491 456.169C228.854 457.495 230.233 457.662 237.631 457.662C245.249 457.662 246.299 457.553 250.608 456.115C258.226 453.575 263.86 450.424 271.92 444.073C273.741 442.638 275.95 441.2 276.779 440.867C278.437 440.258 281.529 440.15 282.855 440.646C284.346 441.2 283.847 442.138 282.192 441.805C280.534 441.472 278.825 442.138 279.763 442.744C281.363 443.736 282.301 448.047 280.921 448.047C280.588 448.047 280.534 448.323 280.7 448.601C280.867 448.935 280.755 449.156 280.367 449.156C280.034 449.156 278.6 450.094 277.163 451.311C265.79 460.868 252.759 466.117 238.953 466.668C232.714 466.943 231.443 466.834 226.088 465.509C222.829 464.679 219.795 464.128 219.407 464.291C219.02 464.4 216.04 467.661 212.781 471.475C209.577 475.232 206.322 478.768 205.547 479.264C204.443 479.981 204.276 480.315 204.83 480.978C205.163 481.42 205.326 481.753 205.163 481.753C204.997 481.753 203.947 480.593 202.846 479.155L202.849 479.152Z" fill="#0F6A3B"/>
<path d="M340.339 448.381C329.407 444.791 291.693 427.938 288.71 425.286C286.392 423.243 286.226 422.58 285.893 413.85C285.617 406.557 285.339 404.514 284.014 400.59C282.301 395.287 282.58 393.352 285.118 393.352C286.997 393.352 286.885 392.468 284.564 387.828C283.514 385.726 282.631 383.299 282.631 382.412C282.631 380.532 284.785 377.55 290.915 370.699C293.232 368.102 297.653 362.91 300.8 359.096C303.892 355.285 307.922 350.369 309.747 348.213C312.784 344.511 313.226 344.181 315.16 344.181C316.318 344.181 318.693 344.677 320.515 345.286C325.428 346.999 329.846 348.104 335.313 348.934C338.018 349.322 340.502 349.927 340.835 350.26C341.11 350.535 342.547 354.571 343.927 359.099C346.356 366.946 347.24 368.547 347.24 365.12C347.24 362.581 347.794 361.86 349.724 361.86C350.995 361.86 351.657 362.135 351.878 362.853C351.987 363.349 352.983 366.776 354.087 370.421C359.5 388.929 367.118 424.229 367.118 430.75C367.118 434.782 366.014 436.166 360.546 438.872C357.896 440.252 353.7 442.85 351.27 444.672C347.019 447.878 344.644 449.201 343.207 449.092C342.819 449.092 341.548 448.759 340.335 448.374L340.339 448.381Z" fill="#8BCF3F"/>
<path d="M284.734 403.133C283.517 398.272 280.65 392.084 277.445 387.61C274.574 383.578 274.132 382.361 274.849 380.484C275.182 379.709 279.708 373.909 284.955 367.555C290.256 361.258 297.82 352.031 301.85 347.112C305.88 342.196 309.855 337.664 310.63 337.001C312.509 335.508 313.889 335.62 318.748 337.555C324.103 339.656 330.287 341.203 337.192 342.196C345.972 343.413 346.36 343.909 350.832 359.378C353.37 368.051 353.812 370.757 351.882 366.062C351.273 364.682 350.502 363.522 350.115 363.522C349.727 363.522 349.561 363.798 349.727 364.077C349.894 364.41 349.782 364.631 349.452 364.631C349.065 364.631 349.01 364.964 349.452 365.681C349.839 366.456 349.785 366.841 349.286 367.062C348.789 367.337 348.789 367.449 349.34 367.725C350.278 368.167 350.169 369.105 349.231 368.717C348.677 368.496 348.569 368.826 348.789 369.989C348.898 370.818 348.844 371.369 348.623 371.094C348.348 370.873 347.685 371.094 347.189 371.59C345.972 372.695 346.03 372.916 342.439 361.037C341.005 356.509 339.622 352.419 339.234 352.031C338.901 351.644 336.363 350.981 333.658 350.596C328.024 349.712 325.54 349.104 319.468 347.173C314.497 345.514 314.996 345.293 310.413 350.984C303.62 359.49 296.607 367.888 292.577 372.365C290.259 374.963 287.442 378.278 286.338 379.712L284.35 382.418L286.78 387.28C288.271 390.262 289.043 392.363 288.713 392.529C288.38 392.75 288.159 393.192 288.217 393.522C288.438 395.29 288.108 395.678 286.783 395.402C285.791 395.236 285.182 395.457 284.795 396.177C284.408 396.953 284.462 397.228 284.904 397.228C285.346 397.228 285.346 397.449 284.849 398.057C284.296 398.72 284.353 399.604 285.125 402.423C285.679 404.357 286.008 406.234 285.899 406.509C285.791 406.843 285.237 405.35 284.741 403.14L284.734 403.133Z" fill="#8BCF3F"/>
<path d="M478.77 380.927C476.232 379.492 474.519 378.163 459.884 366.892C442.16 353.137 409.25 326.506 395.115 314.464C390.531 310.541 388.655 308.11 388.655 306.067C388.655 303.194 389.98 297.778 390.697 297.778C391.085 297.778 393.677 299.658 396.494 301.977C419.19 320.594 446.744 341.479 466.235 354.793C471.148 358.162 471.756 358.441 472.31 357.611C472.643 356.948 472.864 350.648 472.864 340.32C472.864 325.626 472.698 323.358 471.593 317.392C465.905 287.613 454.145 262.696 434.82 239.492C433.329 237.67 428.636 232.642 424.385 228.388C419.36 223.306 417.181 219.393 417.623 219.117C419.492 219.117 423.74 219.117 434.049 221.317C436.258 222.476 447.301 233.25 452.935 239.825C477.948 268.941 489.708 300.046 489.708 337.005C489.708 348.33 489.045 356.343 487.17 367.392C485.569 376.84 484.519 380.376 482.919 381.481C481.427 382.531 481.594 382.531 478.777 380.927H478.77Z" fill="#0F6A3B"/>
<path d="M37.4728 281.262C37.4728 276.951 44.3197 258.113 49.9502 246.842C58.8971 228.943 68.5032 215.796 83.5223 200.768C95.6701 188.614 106.547 179.996 119.911 171.874L123.612 169.609L130.126 171.598C143.874 175.797 154.2 177.565 170.545 178.503C180.484 179.112 192.411 178.945 200.804 178.116L204.226 177.728V179.221C204.226 185.133 189.757 202.149 174.408 214.249C171.204 216.734 167.728 219.498 166.678 220.382C163.861 222.646 150.058 231.985 144.316 235.463C125.929 246.734 97.1041 261.485 75.571 270.546C59.2267 277.451 42.3319 283.417 39.1276 283.417C37.5815 283.417 37.4694 283.309 37.4694 281.262H37.4728Z" fill="#0F6A3B"/>
<path d="M175.516 225.24C175.516 224.798 174.908 224.135 174.136 223.748C173.362 223.36 172.757 222.697 172.757 222.255C172.757 221.868 172.261 221.538 171.653 221.538C171.044 221.538 170.548 221.262 170.548 220.984C170.548 220.596 169.277 220.542 166.96 220.763C162.763 221.205 162.434 220.654 165.359 218.386C179.828 207.17 189.325 198.331 195.506 190.321C199.428 185.347 202.849 179.326 202.353 178.496C202.187 178.221 203.182 177.888 204.616 177.667C208.317 177.171 208.646 177.225 208.646 178.384C208.646 179.047 209.309 179.765 210.305 180.207C211.739 180.815 211.963 181.199 211.963 183.025C211.963 188.495 202.465 202.251 191.31 212.858C187.113 216.89 176.4 225.951 175.849 225.951C175.683 225.951 175.516 225.618 175.516 225.233V225.24Z" fill="#0F6A3B"/>
<path d="M33.7723 295.956C34.3262 291.811 35.1519 287.337 36.2019 283.139C37.0854 279.491 37.3606 278.994 38.465 278.994C39.5149 278.994 39.6237 279.215 39.3484 280.375C39.0732 281.425 39.1819 281.7 39.7358 281.534C78.1127 269.325 125.267 246.343 157.734 223.911C161.601 221.259 165.077 219.049 165.577 218.995C169.719 218.332 171.707 218.332 172.037 219.104C172.203 219.545 172.866 219.879 173.528 219.879C174.136 219.879 174.466 219.658 174.136 219.437C173.032 218.662 173.362 217.778 174.69 217.89C176.124 217.944 177.008 219.382 176.349 220.487C176.128 220.82 175.632 220.929 175.19 220.763C174.031 220.321 174.252 221.15 175.523 221.98C176.185 222.367 176.627 222.422 176.627 222.089C176.627 221.813 176.902 221.534 177.181 221.534C177.514 221.534 177.677 221.701 177.677 221.976C177.456 223.193 177.898 223.136 179.444 221.868C180.382 221.092 181.544 220.433 182.04 220.487C182.815 220.487 182.757 220.596 181.874 220.984C181.265 221.205 179.39 222.697 177.789 224.244C173.039 228.718 157.415 239.325 142.396 248.277C138.916 250.378 135.603 252.421 135.107 252.863C134.611 253.305 132.732 254.356 130.965 255.182C129.144 256.066 126.602 257.446 125.222 258.33C122.626 260.044 119.205 261.812 104.569 269.159C75.4147 283.798 52.7195 293.192 35.6582 297.72L33.5039 298.274L33.7791 295.956H33.7723Z" fill="#0F6A3B"/>
<path d="M210.305 185.078C210.305 184.194 210.305 183.256 210.359 183.09C210.359 182.869 209.642 182.372 208.701 181.872C207.484 181.318 206.988 180.655 206.988 179.771C206.988 178.887 206.767 178.554 206.159 178.779C205.717 178.945 205.109 178.945 204.725 178.724C203.621 178.007 205.442 177.344 208.701 177.344C212.568 177.344 213.339 178.061 212.897 181.43C212.289 185.796 210.301 188.614 210.301 185.078H210.305Z" fill="#0F6A3B"/>
<path d="M279.104 606.499C278.937 605.781 278.662 603.517 278.496 601.362C277.779 592.91 274.795 582.411 270.432 573.021L268.332 568.435L273.687 565.011C297.653 549.763 317.087 534.903 341.219 513.412C344.807 510.152 346.466 510.206 352.429 513.746C354.913 515.18 358.117 516.952 359.551 517.557C361.926 518.607 362.147 518.883 362.147 520.596C362.147 523.027 355.854 535.735 349.999 545.013C333.93 570.536 313.831 590.04 289.04 604.129C282.081 608.052 279.542 608.658 279.1 606.505L279.104 606.499Z" fill="#0F6A3B"/>
<path d="M280.263 622.794C279.6 622.019 279.379 620.142 279.213 613.733C279.046 606.495 279.158 605.724 279.93 605.887C281.53 606.329 295.611 597.877 305.771 590.418C316.54 582.462 330.288 568.594 339.398 556.495C346.299 547.322 355.079 532.682 359.11 523.568L360.489 520.362L357.893 519.202C356.459 518.594 353.255 516.826 350.771 515.391C348.233 513.899 346.02 512.685 345.857 512.685C345.636 512.685 344.311 513.735 342.877 515.061C319.023 536.33 298.979 551.691 276.396 565.997C273.083 568.098 270.266 570.141 270.045 570.583C269.603 571.743 266.677 565.888 266.623 563.733C266.623 561.193 268.003 559.809 276.674 553.843C302.35 536.164 309.03 531.136 326.978 515.779C342.493 502.52 344.08 500.109 347.115 500.109C349.378 500.109 349.119 502.577 352.765 505.284C358.399 509.482 364.692 512.41 371.869 514.235C371.869 514.235 375.997 514.235 378.053 513.879C380.109 513.522 378.053 517.604 378.053 517.604C378.053 517.604 374.574 530.643 369.881 540.033C352.378 574.894 323.886 603.289 288.822 620.914C282.692 624.008 281.588 624.229 280.263 622.794Z" fill="#0F6A3B"/>
<path d="M107.984 557.163C104.063 555.119 90.7563 541.473 83.522 532.025C74.9081 520.809 65.7403 504.568 60.4972 491.142C55.4716 478.213 50.7246 460.921 50.7246 455.23C50.7246 452.912 50.9455 452.578 54.4794 449.264C59.7259 444.29 66.019 438.656 66.2398 438.656C66.4063 438.656 66.6816 445.452 66.7359 451.915C66.7359 454.292 68.999 463.628 71.0989 470.424C79.2167 496.058 91.0893 517.052 107.651 535.227L111.297 539.259L115.382 534.949C117.645 532.572 120.186 529.699 121.07 528.594C121.953 527.435 123.652 526.289 124.036 526.289C124.376 526.969 128.025 534.724 128.025 536.771C128.025 538.926 125.983 541.962 119.412 549.642C114.661 555.279 111.569 557.985 110.081 557.985C109.805 557.985 108.81 557.598 107.981 557.156L107.984 557.163Z" fill="#0F6A3B"/>
<path d="M409.029 514.624C405.607 511.142 404.17 508.657 404.116 506.335C404.116 504.513 404.669 503.571 408.366 498.988C413.059 493.188 416.097 485.175 416.651 477.332C417.092 470.814 415.822 464.681 412.621 458.051C410.466 453.686 409.308 452.085 405.332 448.107C401.852 444.626 399.256 442.637 395.835 440.76C384.958 434.793 385.729 436.007 382.253 419.878C378.831 403.967 373.969 384.85 368.226 364.632C363.863 349.275 362.704 344.522 362.871 342.642C363.146 340.102 364.417 338.331 367.455 336.233C376.289 330.1 377.615 329.604 380.54 331.372C382.474 332.477 386.116 335.183 412.675 354.963C421.177 361.317 435.092 371.537 443.597 377.724C452.098 383.858 460.162 389.879 461.487 391.096L463.917 393.306L463.584 404.797C462.7 435.735 453.811 464.96 437.963 489.159C432.662 497.281 424.932 507.226 419.631 512.805C413.943 518.826 413.28 518.938 409.029 514.627V514.624Z" fill="#8BCF3F"/>
<path d="M30.6805 445.235C26.8136 443.025 20.1332 419.826 17.8701 400.825C16.5449 390.165 16.9866 369.008 18.6449 359.395C20.7448 346.968 23.4496 337.134 27.3131 327.191C30.3509 319.513 31.564 317.47 33.7727 316.09C37.6396 313.714 78.3068 298.359 80.2402 298.359C80.8484 298.359 77.5592 300.569 77.5592 311.229C77.5048 322.993 77.6136 324.431 78.7757 328.738C80.2096 334.041 83.4139 341.22 86.0644 345.034C87.0022 346.414 89.7648 349.786 92.14 352.491C97.22 358.29 97.7738 359.837 96.2821 364.589C95.0656 368.566 88.2764 382.153 84.1887 388.948C71.6535 409.55 50.3413 433.967 36.9226 443.08C33.2766 445.51 32.0092 446.007 30.6839 445.235H30.6805Z" fill="#8BCF3F"/>
<path d="M181.313 306.949C179.159 306.011 178.717 305.402 177.171 301.092C175.292 295.621 173.141 291.756 169.495 286.948C165.411 281.478 162.206 278.384 155.913 273.577C151.496 270.262 150.942 269.599 150.779 267.886C150.558 265.346 151.883 264.183 163.369 256.34C191.473 237.114 215.218 215.566 226.316 199.159C229.521 194.464 230.9 193.138 232.225 193.58C232.779 193.747 238.243 199.326 244.319 205.901C250.449 212.53 262.981 225.79 272.257 235.404C281.809 245.294 289.485 253.8 290.039 254.963C291.255 257.503 290.977 259.05 287.884 266.4C286.78 269.052 285.288 273.914 284.571 277.174C283.413 282.311 282.971 283.307 281.258 285.075C279.767 286.622 278.496 287.285 276.124 287.839C274.411 288.227 272.757 288.723 272.424 288.944C272.148 289.165 269.661 289.607 266.902 289.995C259.447 290.987 247.19 293.476 222.728 298.946C196.832 304.746 192.415 305.851 190.039 306.902C187.939 307.895 183.525 307.952 181.317 306.956L181.313 306.949Z" fill="#0F6A3B"/>
<path d="M18.2029 299.107C17.0441 298.277 16.932 297.889 17.265 295.074C18.2029 286.786 24.7746 265.683 30.7924 251.428C46.8615 213.473 68.8363 185.023 96.7202 166.073C103.013 161.82 104.563 161.544 109.643 163.863C111.41 164.638 115.936 166.515 119.694 167.949L126.487 170.547L123.007 172.648C116.214 176.734 107.821 182.538 101.25 187.729C93.244 194.084 77.2837 209.882 71.5988 217.121C58.1258 234.249 47.9115 253.254 41.615 273.085C40.5106 276.508 39.0767 280.431 39.0767 280.431C39.0767 280.431 38.8068 281.442 38.635 282.091C38.4175 282.911 38.0811 284.192 38.0811 284.192C38.0811 284.192 37.3402 287.559 36.8646 289.716C36.4126 291.766 35.7778 292.867 35.7059 294.966C35.6699 296.016 35.8589 297.651 35.8589 297.651C35.8589 297.651 36.5894 297.563 31.2885 298.835C25.4338 300.269 20.0242 300.381 18.2029 299.11V299.107Z" fill="#0F6A3B"/>
<path d="M303.621 240.323C300.695 238.83 284.901 225.462 277.446 218.224C262.206 203.472 252.654 190.931 241.223 170.658C238.906 166.571 235.148 162.26 232.389 160.492C229.85 158.891 225.1 157.453 222.337 157.453C219.079 157.453 204.889 159.829 195.667 161.873C192.574 162.59 182.69 162.535 182.69 161.873C182.69 161.597 181.973 161.318 181.031 161.318C180.148 161.318 179.21 160.985 178.989 160.601C178.435 159.663 174.405 158.942 174.405 159.717C174.405 160.105 172.914 160.159 170.154 159.938C166.454 159.605 165.683 159.329 164.578 158.116C163.199 156.569 162.645 156.844 161.928 159.496C161.541 161.043 159.444 161.539 156.739 160.713C154.639 160.105 154.531 159.938 154.531 157.895C154.531 156.402 154.31 155.794 153.701 155.794C153.26 155.794 152.872 155.297 152.872 154.689C152.872 154.08 152.376 152.754 151.768 151.649C149.947 148.443 150.388 145.904 152.597 146.4C152.93 146.454 156.019 147.175 159.498 147.947C165.407 149.273 166.787 149.382 179.93 149.439C191.361 149.439 195.004 149.273 199.258 148.447C211.406 146.07 213.448 145.795 219.524 145.241C224.658 144.799 226.425 144.853 229.076 145.516C238.96 148.056 243.928 152.754 256.243 171.317C261.047 178.501 267.452 187.561 270.545 191.481C275.958 198.386 291.415 214.297 299.645 221.481L303.621 224.962V221.372C303.621 210.544 300.641 191.869 296.498 177.066C292.523 162.756 288.16 152.316 276.345 129C267.952 112.372 261.768 98.6704 258.621 89.6644C258.013 88.0631 257.35 86.7372 257.075 86.7372C256.854 86.7372 255.971 87.5667 255.142 88.5595C250.833 93.8087 247.136 97.1235 243.656 98.837C239.293 100.992 230.238 104.141 226.816 104.637C225.491 104.858 223.724 105.133 222.895 105.3C221.569 105.575 221.349 105.409 221.349 104.307C221.349 103.59 222.286 102.043 223.391 100.826C226.153 97.7865 233.605 88.4507 235.593 85.5234C238.022 81.9333 243.048 72.1521 244.982 67.1272C248.957 56.9618 251.829 43.7026 252.824 30.389C253.928 16.2459 254.425 12.1016 255.087 11.2754C255.804 10.3915 259.78 10.2249 260.276 11.1088C260.497 11.3842 261.105 16.5791 261.656 22.5457C263.698 44.369 267.068 57.2406 274.687 72.543C282.417 87.9577 295.999 104.695 308.592 114.255C318.531 121.823 326.87 126.243 343.102 132.488C366.127 141.382 370.269 143.425 384.238 152.985C399.369 163.263 416.818 182.322 416.818 188.51C416.818 189.945 416.543 190.774 415.934 190.995C414.555 191.492 402.903 190.22 395.502 188.731C386.78 186.963 382.029 186.412 382.029 187.238C382.029 187.572 381.037 187.847 379.545 187.847C378.166 187.847 377.061 187.626 377.061 187.293C377.061 186.63 374.299 186.575 373.473 187.184C373.198 187.405 372.644 188.068 372.314 188.676C371.322 190.444 367.951 190.941 364.53 189.781C362.929 189.227 361.604 188.564 361.604 188.289C361.604 188.068 361.217 187.847 360.775 187.847C358.124 187.847 336.092 177.569 324.002 170.719C319.693 168.234 310.033 162.43 304.953 159.115C304.236 158.673 303.519 158.507 303.294 158.728C303.074 158.894 303.848 161.267 305.007 163.919C312.683 181.819 317.376 205.356 317.597 227.618C317.705 234.193 317.597 235.298 316.604 237.011C314.341 240.88 307.77 242.59 303.627 240.326L303.621 240.323Z" fill="#0F6A3B"/>
<path d="M421.51 203.527C402.957 201.704 380.154 196.013 360.938 188.387C355.967 186.399 354.974 185.848 354.974 184.852C354.974 184.243 355.195 183.968 355.416 184.243C355.912 184.96 357.074 185.236 359.062 185.127C359.946 185.073 360.941 185.348 361.162 185.736C361.604 186.344 361.77 186.344 361.991 185.736C362.212 185.181 362.433 185.181 363.041 185.681C363.483 186.014 363.704 186.456 363.595 186.674C363.486 186.841 363.704 187.337 364.149 187.725C364.591 188.112 364.924 188.279 364.924 188.166C364.924 188 365.532 188.112 366.303 188.387C367.296 188.775 367.849 188.663 368.512 188.054C369.066 187.5 369.341 187.446 369.341 187.888C369.341 188.33 369.562 188.33 370.17 187.833C370.724 187.391 370.833 186.949 370.503 186.783C370.17 186.562 370.17 186.12 370.395 185.678C370.67 185.236 371.169 185.124 371.611 185.345C372.107 185.678 372.219 185.511 371.944 184.903C371.669 184.185 371.944 183.964 373.103 183.964C374.261 183.964 374.428 184.073 373.765 184.519C373.103 184.96 373.269 185.073 374.482 185.073C375.587 185.073 375.916 184.852 375.641 184.41C375.308 183.856 375.42 183.856 376.028 184.41C376.416 184.743 377.52 185.073 378.458 185.073C379.729 185.073 379.892 185.239 379.287 185.627C378.679 186.014 378.679 186.181 379.178 186.181C379.566 186.181 380.228 185.848 380.612 185.518C381.221 184.91 381.221 184.689 380.446 184.192C379.95 183.805 381.438 183.917 384.255 184.525C398.224 187.565 413.522 189.941 414.681 189.22C415.51 188.666 415.289 188.17 412.693 184.247C406.4 174.578 393.919 162.315 382.6 154.634C368.631 145.078 364.489 143.031 341.464 134.137C328.542 129.163 323.849 126.953 316.231 122.258C295.911 109.662 278.904 89.219 269.185 65.6313C264.105 53.256 261.73 42.7031 260.018 24.0858C259.464 18.0648 258.747 12.8699 258.417 12.5401C257.588 11.7106 256.317 12.9821 255.988 15.0798C255.767 16.0725 255.492 19.1119 255.325 21.8216C253.558 48.8941 250.245 63.0916 241.906 79.0026C240.248 82.2086 238.152 85.8532 237.268 87.1791C235.28 90.1064 227.825 99.4456 225.066 102.482C223.962 103.699 223.024 104.858 223.024 105.133C223.024 105.354 222.749 105.521 222.416 105.521C222.028 105.521 219.378 107.235 216.452 109.332C204.138 118.172 196.462 122.149 174.433 130.934C158.917 137.176 148.591 141.872 147.487 143.201C146.878 143.976 147.154 144.251 149.97 145.302C153.008 146.461 162.448 148.617 168.632 149.501C170.454 149.776 170.895 149.997 170.012 150.109C169.237 150.218 165.261 149.722 161.177 149.004C157.093 148.229 153.392 147.787 153.059 147.899C152.176 148.233 152.672 149.171 153.613 148.95C154 148.896 154.109 148.896 153.888 149.004C153.114 149.446 153.447 150.439 154.663 151.768C155.713 152.928 155.767 153.203 155.105 153.648C154.442 154.145 154.497 154.203 155.438 153.982C156.267 153.815 156.597 153.982 156.542 154.645C156.488 155.253 156.875 155.474 157.646 155.42C158.309 155.365 158.805 155.641 158.805 156.083C158.805 156.525 158.363 156.912 157.813 156.912C157.317 156.912 156.763 157.3 156.542 157.742C156.376 158.238 156.542 158.571 157.038 158.571C157.48 158.571 157.867 158.792 157.867 159.068C157.867 159.343 158.363 159.455 158.972 159.289C159.801 159.068 160.022 158.68 159.746 157.908C159.526 157.191 159.638 156.916 159.967 157.133C160.243 157.3 160.684 157.079 160.851 156.579C161.347 155.253 161.293 155.087 160.243 155.474C159.689 155.695 159.468 155.695 159.689 155.474C159.91 155.253 159.797 154.757 159.468 154.315C158.972 153.761 159.026 153.322 159.801 152.493C160.905 151.275 162.285 151.609 162.285 153.155C162.285 153.71 162.506 154.094 162.781 153.931C163.002 153.764 164.273 154.594 165.486 155.811C166.756 157.082 167.861 157.8 168.082 157.47C168.248 157.194 168.082 156.916 167.694 156.861C167.307 156.807 167.586 156.586 168.357 156.365C170.345 155.702 171.12 155.756 171.12 156.419C171.12 156.695 170.899 156.861 170.623 156.64C170.348 156.474 169.961 156.586 169.794 156.861C169.24 157.691 170.511 158.187 171.395 157.47C171.949 156.973 172.169 157.082 172.387 157.857C172.553 158.575 172.662 158.466 172.72 157.47C172.774 156.31 172.886 156.253 173.383 156.916C173.879 157.579 173.936 157.524 173.716 156.528C173.328 154.706 174.49 154.706 176.145 156.474C177.304 157.8 177.691 157.966 178.187 157.303C178.575 156.861 178.683 156.365 178.463 156.144C178.242 155.923 178.463 155.923 179.016 156.144C179.513 156.31 179.791 156.698 179.625 156.973C179.458 157.249 179.733 157.47 180.233 157.47C180.841 157.47 181.062 157.745 180.896 158.299C180.675 158.741 180.787 159.238 181.062 159.404C181.395 159.625 181.616 159.513 181.616 159.183C181.616 158.85 182.003 158.741 182.445 158.908C182.941 159.129 183.274 158.908 183.274 158.52C183.274 157.912 183.383 157.912 183.77 158.52C184.045 158.962 184.708 159.404 185.204 159.459C185.7 159.513 186.309 159.792 186.475 160.013C186.696 160.234 186.421 160.234 185.921 160.067C185.367 159.901 184.817 159.958 184.65 160.234C184.429 160.567 184.926 160.788 185.7 160.788C186.475 160.788 187.134 160.567 187.134 160.234C187.134 159.958 187.409 159.68 187.742 159.68C188.018 159.68 188.13 159.955 187.963 160.234C187.742 160.567 188.239 160.788 189.013 160.788C189.788 160.788 190.447 160.455 190.447 160.125C190.447 159.629 190.614 159.629 190.943 160.179C191.219 160.621 191.827 160.788 192.377 160.567C194.144 159.904 202.041 159.516 202.041 160.125C202.041 160.4 201.212 160.788 200.274 160.955C199.282 161.121 197.07 161.672 195.415 162.114C191.881 163.164 181.833 163.273 170.566 162.447C156.264 161.342 145.828 159.078 129.65 153.387C124.074 151.452 118.44 149.518 117.173 149.134C115.848 148.746 114.798 148.141 114.798 147.753C114.798 146.594 120.211 141.069 124.737 137.642C130.038 133.664 138.485 129.52 151.241 124.604C167.586 118.362 169.465 117.641 178.021 114.218C211.868 100.792 224.679 89.6338 233.792 65.7673C237.989 54.7723 240.197 42.1217 241.522 21.2946C242.019 13.2269 242.739 6.54292 243.289 4.16646L244.282 0.297501L257.367 0.130911C269.461 0.0221175 270.453 0.0765142 270.732 0.96046C270.898 1.51463 271.449 7.31467 271.89 13.8321C272.94 28.4172 274.045 37.532 275.866 46.0961C278.35 58.2503 280.338 63.2786 286.413 73.223C296.24 89.4672 308.83 101.897 325.174 111.508C331.967 115.54 338.426 118.192 352.008 122.336C365.148 126.369 370.67 128.524 380.667 133.386C397.507 141.674 412.638 152.724 427.933 167.968C438.755 178.742 451.29 195.204 452.007 199.624C452.283 201.392 452.116 201.667 450.461 202.551C448.803 203.435 447.04 203.602 436.159 203.656C429.312 203.71 422.741 203.656 421.527 203.547L421.51 203.527Z" fill="#0F6A3B"/>
<path d="M293.597 287.792C293.597 264.228 312.689 245.125 336.241 245.125V245.125C359.793 245.125 378.886 264.228 378.886 287.792V287.792C378.886 311.357 359.793 330.46 336.241 330.46V330.46C312.689 330.46 293.597 311.357 293.597 287.792V287.792Z" fill="#FF9F1C"/>
<path d="M202.53 413.243C202.53 393.434 218.58 377.375 238.379 377.375V377.375C258.178 377.375 274.228 393.434 274.228 413.243V413.243C274.228 433.052 258.178 449.111 238.379 449.111V449.111C218.58 449.111 202.53 433.052 202.53 413.243V413.243Z" fill="#FF9F1C"/>
<path d="M348.983 475.122C348.983 459.819 361.382 447.414 376.677 447.414V447.414C391.972 447.414 404.371 459.819 404.371 475.122V475.122C404.371 490.425 391.972 502.831 376.677 502.831V502.831C361.382 502.831 348.983 490.425 348.983 475.122V475.122Z" fill="#0F6A3B"/>
<path d="M131.852 509.458C131.852 489.648 147.902 473.59 167.7 473.59V473.59C187.499 473.59 203.549 489.648 203.549 509.458V509.458C203.549 529.267 187.499 545.325 167.7 545.325V545.325C147.902 545.325 131.852 529.267 131.852 509.458V509.458Z" fill="#8BCF3F"/>
<path d="M87.6777 315.33C87.6777 293.268 105.553 275.383 127.604 275.383V275.383C149.655 275.383 167.53 293.268 167.53 315.33V315.33C167.53 337.393 149.655 355.278 127.604 355.278V355.278C105.553 355.278 87.6777 337.393 87.6777 315.33V315.33Z" fill="#8BCF3F"/>
</g>
<defs>
<clipPath id="clip0_2859_208">
<rect width="473" height="648" fill="white" transform="translate(17)"/>
</clipPath>
</defs>
</svg>
