<svg width="2213" height="715" viewBox="0 0 2213 715" fill="none" xmlns="http://www.w3.org/2000/svg">
<path d="M937.44 145.001V439.001H855.12V210.941H743.4V439.001H661.5V145.001H937.44Z" fill="#8BCF3F"/>
<path d="M1230.03 211.361V439.001H1154.01V415.061C1145.61 424.021 1135.53 430.881 1123.77 435.641C1112.29 440.401 1099.97 442.781 1086.81 442.781C1057.13 442.781 1033.47 434.101 1015.83 416.741C998.469 399.381 989.789 373.341 989.789 338.621V211.361H1069.59V325.601C1069.59 358.361 1082.33 374.741 1107.81 374.741C1120.41 374.741 1130.63 370.401 1138.47 361.721C1146.31 352.761 1150.23 339.181 1150.23 320.981V211.361H1230.03Z" fill="#8BCF3F"/>
<path d="M1502.42 285.281C1519.78 290.881 1532.94 299.561 1541.9 311.321C1551.14 323.081 1555.76 337.641 1555.76 355.001C1555.76 381.041 1545.54 401.621 1525.1 416.741C1504.94 431.581 1476.24 439.001 1439 439.001H1288.22V145.001H1431.02C1466.3 145.001 1493.6 151.721 1512.92 165.161C1532.52 178.321 1542.32 197.081 1542.32 221.441C1542.32 235.721 1538.82 248.321 1531.82 259.241C1525.1 270.161 1515.3 278.841 1502.42 285.281ZM1370.12 262.601H1423.04C1446.56 262.601 1458.32 252.941 1458.32 233.621C1458.32 214.301 1446.56 204.641 1423.04 204.641H1370.12V262.601ZM1435.64 379.361C1459.72 379.361 1471.76 369.141 1471.76 348.701C1471.76 328.821 1459.72 318.881 1435.64 318.881H1370.12V379.361H1435.64Z" fill="#8BCF3F"/>
<path d="M1719.62 326.441H1681.82V439.001H1599.08V145.001H1681.82V259.241H1721.72L1791.86 145.001H1879.22L1787.24 286.961L1880.06 439.001H1786.4L1719.62 326.441Z" fill="#8BCF3F"/>
<path d="M2049.57 444.881C2018.49 444.881 1990.49 438.301 1965.57 425.141C1940.93 411.981 1921.47 393.781 1907.19 370.541C1893.19 347.301 1886.19 321.121 1886.19 292.001C1886.19 262.881 1893.19 236.701 1907.19 213.461C1921.47 190.221 1940.93 172.021 1965.57 158.861C1990.49 145.701 2018.49 139.121 2049.57 139.121C2080.65 139.121 2108.51 145.701 2133.15 158.861C2158.07 172.021 2177.53 190.221 2191.53 213.461C2205.81 236.701 2212.95 262.881 2212.95 292.001C2212.95 321.121 2205.81 347.301 2191.53 370.541C2177.53 393.781 2158.07 411.981 2133.15 425.141C2108.51 438.301 2080.65 444.881 2049.57 444.881ZM2049.57 376.001C2064.41 376.001 2077.85 372.501 2089.89 365.501C2101.93 358.501 2111.45 348.701 2118.45 336.101C2125.45 323.221 2128.95 308.521 2128.95 292.001C2128.95 275.481 2125.45 260.921 2118.45 248.321C2111.45 235.441 2101.93 225.501 2089.89 218.501C2077.85 211.501 2064.41 208.001 2049.57 208.001C2034.73 208.001 2021.29 211.501 2009.25 218.501C1997.21 225.501 1987.69 235.441 1980.69 248.321C1973.69 260.921 1970.19 275.481 1970.19 292.001C1970.19 308.521 1973.69 323.221 1980.69 336.101C1987.69 348.701 1997.21 358.501 2009.25 365.501C2021.29 372.501 2034.73 376.001 2049.57 376.001Z" fill="#8BCF3F"/>
<path d="M798.144 523.578V653.252H769.309V636.497C764.302 642.648 758.083 647.262 750.652 650.338C743.383 653.414 735.306 654.952 726.422 654.952C713.822 654.952 702.515 652.2 692.499 646.696C682.646 641.191 674.892 633.421 669.238 623.384C663.746 613.346 661 601.69 661 588.415C661 575.14 663.746 563.565 669.238 553.69C674.892 543.653 682.646 535.882 692.499 530.377C702.515 524.873 713.822 522.121 726.422 522.121C734.822 522.121 742.495 523.578 749.441 526.492C756.548 529.406 762.687 533.696 767.856 539.362V523.578H798.144ZM729.814 628.969C740.96 628.969 750.168 625.245 757.437 617.798C764.706 610.351 768.34 600.557 768.34 588.415C768.34 576.273 764.706 566.479 757.437 559.032C750.168 551.585 740.96 547.862 729.814 547.862C718.668 547.862 709.461 551.585 702.192 559.032C695.084 566.479 691.53 576.273 691.53 588.415C691.53 600.557 695.084 610.351 702.192 617.798C709.461 625.245 718.668 628.969 729.814 628.969Z" fill="#8BCF3F"/>
<path d="M897.136 654.952C883.728 654.952 871.694 652.119 861.032 646.453C850.371 640.787 842.052 632.935 836.075 622.898C830.098 612.699 827.11 601.205 827.11 588.415C827.11 575.626 830.098 564.213 836.075 554.175C842.052 544.138 850.29 536.287 860.79 530.62C871.452 524.954 883.567 522.121 897.136 522.121C909.897 522.121 921.043 524.711 930.573 529.892C940.266 535.072 947.535 542.519 952.381 552.233L929.12 565.831C925.404 559.842 920.72 555.39 915.066 552.476C909.574 549.4 903.516 547.862 896.893 547.862C885.586 547.862 876.217 551.585 868.786 559.032C861.356 566.317 857.64 576.112 857.64 588.415C857.64 600.719 861.275 610.594 868.544 618.041C875.975 625.326 885.424 628.969 896.893 628.969C903.516 628.969 909.574 627.512 915.066 624.598C920.72 621.522 925.404 616.989 929.12 610.999L952.381 624.598C947.373 634.311 940.023 641.839 930.331 647.181C920.801 652.362 909.735 654.952 897.136 654.952Z" fill="#8BCF3F"/>
<path d="M1036.03 654.952C1022.63 654.952 1010.59 652.119 999.931 646.453C989.269 640.787 980.95 632.935 974.974 622.898C968.997 612.699 966.008 601.205 966.008 588.415C966.008 575.626 968.997 564.213 974.974 554.175C980.95 544.138 989.189 536.287 999.688 530.62C1010.35 524.954 1022.46 522.121 1036.03 522.121C1048.8 522.121 1059.94 524.711 1069.47 529.892C1079.16 535.072 1086.43 542.519 1091.28 552.233L1068.02 565.831C1064.3 559.842 1059.62 555.39 1053.96 552.476C1048.47 549.4 1042.41 547.862 1035.79 547.862C1024.48 547.862 1015.12 551.585 1007.68 559.032C1000.25 566.317 996.539 576.112 996.539 588.415C996.539 600.719 1000.17 610.594 1007.44 618.041C1014.87 625.326 1024.32 628.969 1035.79 628.969C1042.41 628.969 1048.47 627.512 1053.96 624.598C1059.62 621.522 1064.3 616.989 1068.02 610.999L1091.28 624.598C1086.27 634.311 1078.92 641.839 1069.23 647.181C1059.7 652.362 1048.63 654.952 1036.03 654.952Z" fill="#8BCF3F"/>
<path d="M1173.72 654.952C1160.64 654.952 1148.84 652.119 1138.34 646.453C1127.84 640.787 1119.61 632.935 1113.63 622.898C1107.81 612.699 1104.91 601.205 1104.91 588.415C1104.91 575.626 1107.81 564.213 1113.63 554.175C1119.61 544.138 1127.84 536.287 1138.34 530.62C1148.84 524.954 1160.64 522.121 1173.72 522.121C1186.97 522.121 1198.84 524.954 1209.34 530.62C1219.84 536.287 1228 544.138 1233.81 554.175C1239.79 564.213 1242.78 575.626 1242.78 588.415C1242.78 601.205 1239.79 612.699 1233.81 622.898C1228 632.935 1219.84 640.787 1209.34 646.453C1198.84 652.119 1186.97 654.952 1173.72 654.952ZM1173.72 628.969C1184.87 628.969 1194.07 625.245 1201.34 617.798C1208.61 610.351 1212.25 600.557 1212.25 588.415C1212.25 576.273 1208.61 566.479 1201.34 559.032C1194.07 551.585 1184.87 547.862 1173.72 547.862C1162.57 547.862 1153.37 551.585 1146.1 559.032C1138.99 566.479 1135.44 576.273 1135.44 588.415C1135.44 600.557 1138.99 610.351 1146.1 617.798C1153.37 625.245 1162.57 628.969 1173.72 628.969Z" fill="#8BCF3F"/>
<path d="M1414.69 627.512V683.121H1386.34V653.252H1272.7V523.578H1302.99V627.512H1364.77V523.578H1395.06V627.512H1414.69Z" fill="#8BCF3F"/>
<path d="M1564.25 523.578V653.252H1535.42V636.739C1530.57 642.568 1524.51 647.1 1517.25 650.338C1510.14 653.414 1502.38 654.952 1493.98 654.952C1476.7 654.952 1463.05 650.176 1453.04 640.625C1443.02 630.911 1438.01 616.584 1438.01 597.643V523.578H1468.3V593.515C1468.3 605.171 1470.89 613.913 1476.05 619.741C1481.39 625.407 1488.98 628.24 1498.83 628.24C1509.49 628.24 1517.97 624.921 1524.27 618.284C1530.73 611.485 1533.96 601.771 1533.96 589.144V523.578H1564.25Z" fill="#8BCF3F"/>
<path d="M1731.15 523.578V653.252H1702.32V636.497C1697.31 642.648 1691.09 647.262 1683.66 650.338C1676.39 653.414 1668.31 654.952 1659.43 654.952C1646.83 654.952 1635.52 652.2 1625.51 646.696C1615.65 641.191 1607.9 633.421 1602.25 623.384C1596.75 613.346 1594.01 601.69 1594.01 588.415C1594.01 575.14 1596.75 563.565 1602.25 553.69C1607.9 543.653 1615.65 535.882 1625.51 530.377C1635.52 524.873 1646.83 522.121 1659.43 522.121C1667.83 522.121 1675.5 523.578 1682.45 526.492C1689.56 529.406 1695.7 533.696 1700.86 539.362V523.578H1731.15ZM1662.82 628.969C1673.97 628.969 1683.18 625.245 1690.45 617.798C1697.71 610.351 1701.35 600.557 1701.35 588.415C1701.35 576.273 1697.71 566.479 1690.45 559.032C1683.18 551.585 1673.97 547.862 1662.82 547.862C1651.68 547.862 1642.47 551.585 1635.2 559.032C1628.09 566.479 1624.54 576.273 1624.54 588.415C1624.54 600.557 1628.09 610.351 1635.2 617.798C1642.47 625.245 1651.68 628.969 1662.82 628.969Z" fill="#8BCF3F"/>
<path d="M1913.25 627.512V683.121H1884.9V653.252H1771.26V523.578H1801.55V627.512H1863.34V523.578H1893.63V627.512H1913.25Z" fill="#8BCF3F"/>
<path d="M2062.82 523.578V653.252H2033.99V636.739C2029.14 642.568 2023.08 647.1 2015.81 650.338C2008.71 653.414 2000.95 654.952 1992.55 654.952C1975.27 654.952 1961.62 650.176 1951.6 640.625C1941.59 630.911 1936.58 616.584 1936.58 597.643V523.578H1966.87V593.515C1966.87 605.171 1969.45 613.913 1974.62 619.741C1979.95 625.407 1987.54 628.24 1997.4 628.24C2008.06 628.24 2016.54 624.921 2022.84 618.284C2029.3 611.485 2032.53 601.771 2032.53 589.144V523.578H2062.82Z" fill="#8BCF3F"/>
<path d="M2213 523.578V653.252H2185.86V614.156H2151.7L2125.29 653.252H2092.82L2123.35 610.028C2113.98 606.79 2106.79 601.852 2101.78 595.215C2096.94 588.415 2094.51 580.078 2094.51 570.203C2094.51 555.309 2099.76 543.814 2110.26 535.72C2120.76 527.625 2135.22 523.578 2153.64 523.578H2213ZM2154.6 549.076C2135.06 549.076 2125.29 556.442 2125.29 571.174C2125.29 585.744 2134.74 593.029 2153.64 593.029H2185.86V549.076H2154.6Z" fill="#8BCF3F"/>
<g clip-path="url(#clip0_2877_283)">
<path d="M234.96 491.386C229.598 489.739 226.856 488.46 222.713 485.534C215.033 480.046 209.246 471.759 206.929 462.978C203.88 451.03 207.72 436.827 216.555 427.985C223.38 421.098 229.838 418.292 240.383 417.744C248.67 417.377 253.425 418.356 260.858 421.949C264.941 424.024 267.135 425.607 271.279 429.752C279.934 438.346 283.163 446.333 282.615 457.489C282.311 464.073 280.421 470.045 277.009 475.533C274.388 479.558 263.846 489.492 262.08 489.492C261.653 489.492 260.498 489.859 259.459 490.347C254.096 492.785 241.421 493.273 234.964 491.382L234.96 491.386Z" fill="#FF9F1C"/>
<path d="M134.595 514.064C129.233 509.188 90.5367 464.446 86.333 458.166C83.5917 454.081 83.9555 452.498 90.7805 439.331C94.0692 432.867 98.6405 422.87 100.898 417.082C103.152 411.23 105.713 405.681 106.504 404.706L108.027 402.939H117.349C130.208 402.939 136.909 401.356 148.917 395.564C154.095 393.066 155.558 392.822 158.239 393.797C162.567 395.444 192.18 421.231 195.473 426.167C197.423 429.093 197.239 432.631 194.742 440.434C193.399 444.823 192.975 447.445 192.792 453.541C192.424 463.598 193.403 468.231 197.787 477.133C199.617 480.91 201.139 484.572 201.139 485.299C201.139 488.102 198.518 491.823 191.145 499.746C179.505 512.181 181.395 511.206 167.805 511.57C159.458 511.814 155.802 512.117 154.215 512.789C151.35 514.068 141.6 516.326 139.163 516.326C137.7 516.326 136.422 515.715 134.592 514.072L134.595 514.064Z" fill="#8BCF3F"/>
<path d="M208.759 412.023C206.505 411.412 197.73 404.405 184.02 392.393C172.868 382.699 170.674 380.201 170.674 377.639C170.674 376.664 171.893 373.37 173.355 370.324C174.818 367.338 176.464 363.8 177.071 362.521C178.29 359.899 180.668 358.436 186.214 357.033C188.224 356.545 193.039 355.266 196.879 354.291C223.264 347.22 282.619 334.66 289.504 334.66C294.319 334.66 295.23 335.208 297.488 339.657C298.219 341.12 300.169 344.35 301.755 346.912C303.401 349.47 304.924 352.336 305.108 353.375C305.719 356.605 304.376 358.556 284.693 382.819C262.631 410.005 264.218 408.606 256.358 407.019C250.568 405.8 234.544 405.556 231.799 406.652C230.884 407.019 228.386 407.687 226.376 408.115C224.303 408.602 220.83 409.761 218.636 410.797C214.553 412.687 212.115 412.991 208.763 412.016L208.759 412.023Z" fill="#8BCF3F"/>
<path d="M493.886 393.306C472.436 378.616 441.724 355.327 417.165 335.153L411.679 330.644L411.862 323.389C412.534 301.627 401.565 282.121 382.065 270.353C376.459 266.939 372.131 265.172 364.455 263.038C360.615 261.942 358.237 260.903 357.326 259.988C356.535 259.073 355.56 256.39 354.769 253.16C352.391 242.979 347.884 216.949 348.247 215.426C348.795 213.292 351.232 213.535 357.874 216.461C386.76 229.201 417.472 238.65 438.799 241.393C446.415 242.308 446.902 242.488 446.539 243.771C446.355 244.626 447.817 246.453 451.717 250.294C474.75 273.095 492.18 302.963 500.04 333.138C504.487 350.267 504.915 353.621 504.915 374.894C504.915 385.439 504.731 394.829 504.427 395.804C503.636 398.73 500.891 398.122 493.886 393.306Z" fill="#0F6A3B"/>
<path d="M305.955 242.371C287.003 225.058 277.62 213.966 262.2 190.861C251.291 174.464 245.993 168.429 239.715 165.259C233.865 162.333 230.393 161.661 223.995 162.209C218.753 162.637 216.439 163 202.973 165.623C198.158 166.538 194.198 166.718 179.816 166.718C163.301 166.658 162.083 166.598 155.441 165.071C151.601 164.216 146.85 162.877 144.96 162.145C141.671 160.926 141.424 160.682 141.424 158.855C141.424 157.696 141.911 156.417 142.519 155.869C144.285 154.222 155.254 149.346 171.889 142.642C196.264 132.889 204.675 128.56 218.321 118.806C223.44 115.089 224.719 114.477 228.071 113.93C233.13 113.138 242.393 110.088 247.935 107.406C252.139 105.332 255.979 101.918 260.978 95.8857C262.32 94.2389 263.051 93.875 264.938 93.875C267.255 93.875 267.375 93.935 268.474 97.1049C271.946 107.042 278.771 122.16 288.034 140.508C298.331 160.93 302.051 169.036 306.255 180.86C313.2 200.243 318.139 226.518 318.139 244.198V249.926H316.189C314.483 249.926 312.9 248.767 305.951 242.367L305.955 242.371Z" fill="#0F6A3B"/>
<path d="M98.1562 592.401C79.6912 571.979 66.8325 549.182 57.8775 520.897C55.2562 512.547 53.0625 502.914 53.0625 499.744C53.0625 495.902 53.9775 494.499 62.445 485.845C72.255 475.848 70.9762 475.664 82.6162 489.383C87.675 495.295 95.595 504.56 100.29 509.925C104.981 515.289 109.492 520.53 110.224 521.509C111.015 522.544 113.82 525.714 116.441 528.58L121.256 533.884L119.182 538.945C116.074 546.628 115.159 550.649 114.795 558.452C114.427 566.194 115.039 571.131 117.292 578.202L118.695 582.651L116.257 585.577C114.915 587.224 111.99 590.394 109.796 592.709C104.374 598.257 103.459 598.257 98.1562 592.405V592.401Z" fill="#0F6A3B"/>
<path d="M240.69 688.045C218.936 673.051 201.263 658.053 185.663 641.412C173.659 628.609 170.674 624.771 170.674 622.149C170.674 620.138 170.794 619.955 172.44 619.955C174.878 619.955 183.593 617.332 188.528 615.138C193.283 613.003 196.815 610.689 202.178 606.116C205.714 603.066 206.201 602.886 209.186 602.886C212.355 602.886 212.599 603.07 224.299 611.604C230.82 616.361 237.949 622.029 240.143 624.224C246.236 630.38 251.783 641.108 254.891 652.936C256.11 657.445 256.234 659.58 256.294 671.468C256.294 682.564 256.11 685.61 255.135 689.328L254.04 693.717H251.419C249.165 693.717 247.823 693.045 240.694 688.048L240.69 688.045Z" fill="#0F6A3B"/>
<path d="M253.609 713.767C247.699 711.145 221.31 692.25 208.151 681.214C192.184 667.863 172.196 648.052 162.023 635.493C155.078 626.835 146.91 614.827 146.91 613.183C146.91 611.353 148.313 611.173 155.074 612.024C167.749 613.671 176.708 612.636 185.726 608.367C191.149 605.868 194.625 603.37 200.655 597.578C206.873 591.602 207.6 591.482 213.026 594.776C221.07 599.713 241.913 615.074 246.664 619.587C255.011 627.514 263.119 639.094 266.955 648.787C274.451 667.623 273.84 686.154 265.065 703.954C261.896 710.478 259.215 714.075 257.265 714.623C256.594 714.743 254.948 714.379 253.609 713.767ZM253.305 687.493C255.071 680.666 254.951 661.831 253.061 654.759C249.953 642.935 244.406 632.203 238.313 626.047C233.318 621.05 211.073 604.773 209.183 604.709C208.391 604.709 206.198 606.052 204.004 607.939C198.641 612.512 195.105 614.827 190.354 616.961C185.419 619.156 176.704 621.778 174.266 621.778C173.291 621.778 172.5 621.962 172.5 622.145C172.5 622.877 179.936 631.531 187.489 639.578C199.433 652.257 211.744 663.29 227.036 674.994C236.483 682.249 250.436 691.879 251.411 691.879C251.899 691.879 252.69 689.988 253.301 687.49L253.305 687.493Z" fill="#0F6A3B"/>
<path d="M114.671 530.524C111.99 527.538 109.185 524.368 108.454 523.333C107.662 522.358 104.126 518.212 100.594 514.187C94.1324 506.872 72.5624 481.757 71.8912 480.782C71.4037 480.11 57.4499 494.377 55.8637 497.179C53.4862 501.324 52.4512 499.557 52.4512 491.143V485.719L61.1062 476.637C66.8962 470.601 70.1849 467.555 71.0399 467.555C73.0499 467.555 79.9987 475.054 102.787 501.692C121.432 523.513 122.531 525.04 122.531 528.877C122.531 531.132 120.885 535.825 120.094 535.825C119.79 535.825 117.352 533.446 114.671 530.52V530.524Z" fill="#0F6A3B"/>
<path d="M300.772 499.498C299.43 499.011 297.116 498.035 295.594 497.304C294.071 496.572 291.937 495.961 290.839 495.961C288.829 495.901 288.765 495.841 289.072 493.643C289.256 492.12 289.072 491.144 288.525 490.657C288.037 490.289 287.67 489.01 287.67 487.914C287.67 485.904 287.73 485.84 290.167 485.84C292.057 485.84 295.53 487.119 303.146 490.533C308.872 493.155 313.08 495.349 312.469 495.469C311.857 495.59 310.579 495.409 309.667 495.102C307.961 494.49 307.901 494.554 308.021 496.321C308.205 498.516 306.862 500.59 306.071 499.371C305.584 498.699 305.46 498.699 305.156 499.491C304.669 500.65 303.997 500.65 300.769 499.491L300.772 499.498Z" fill="#0F6A3B"/>
<path d="M256.594 603.676C252.022 600.994 227.404 583.314 224.235 580.452C222.589 578.989 220.882 577.162 220.519 576.427C220.091 575.695 219.604 571.062 219.36 565.698C219.116 560.15 218.569 554.482 217.897 551.983C216.435 546.007 212.171 537.537 208.147 532.476L204.735 528.207L206.625 526.684C207.6 525.829 211.256 521.868 214.729 517.846C220.702 510.835 221.066 510.531 223.564 510.347C224.966 510.227 229.05 510.895 232.642 511.81C238.309 513.213 240.015 513.394 245.014 513.09C258.664 512.298 273.472 506.018 285.416 496.081C288.157 493.763 288.525 493.643 291.51 493.887C293.276 494.07 296.201 494.862 298.031 495.717C302.662 497.792 303.517 498.096 303.517 497.424C303.517 497.057 304.065 496.813 304.736 496.813C305.711 496.813 305.955 496.385 305.955 494.678C305.955 493.335 306.259 492.544 306.746 492.544C307.661 492.544 345.686 509.488 348.671 511.195C352.387 513.39 351.574 515.581 351.937 526.309C352.181 534.296 353.482 535.886 352.691 537.469C351.596 539.544 338.614 551.856 331.849 557.22C329.531 559.111 327.157 561.121 326.67 561.729C326.182 562.341 323.621 564.168 323.621 564.168L315.577 570.507C315.577 570.507 309.544 575.444 309.3 575.444C309.056 575.444 304.241 578.981 304.241 578.981L294.367 586.113L286.204 592.269L281.756 595.255L273.652 600.191C273.652 600.191 270.424 602.386 268.41 603.421C263.595 605.86 260.366 605.92 256.59 603.665L256.594 603.676Z" fill="#0F6A3B"/>
<path d="M205.102 528.695C202.117 524.794 201.934 523.575 203.76 520.465C205.466 517.599 215.52 505.223 217.957 503.092C219.967 501.262 222.405 501.326 228.986 503.336C233.801 504.799 235.324 504.983 243.487 504.983C251.895 504.983 253.054 504.863 257.809 503.276C266.216 500.474 272.434 496.997 281.329 489.989C283.339 488.406 285.776 486.819 286.691 486.452C288.521 485.78 291.934 485.66 293.396 486.208C295.042 486.819 294.491 487.855 292.665 487.487C290.835 487.119 288.949 487.855 289.984 488.522C291.75 489.618 292.785 494.374 291.262 494.374C290.895 494.374 290.835 494.678 291.019 494.986C291.202 495.353 291.079 495.597 290.651 495.597C290.284 495.597 288.701 496.633 287.115 497.976C274.564 508.521 260.182 514.313 244.946 514.92C238.061 515.224 236.659 515.104 230.749 513.641C227.152 512.726 223.804 512.118 223.376 512.298C222.949 512.418 219.66 516.016 216.064 520.225C212.527 524.37 208.935 528.271 208.08 528.819C206.861 529.61 206.677 529.978 207.289 530.71C207.656 531.197 207.836 531.565 207.656 531.565C207.472 531.565 206.314 530.286 205.099 528.699L205.102 528.695Z" fill="#0F6A3B"/>
<path d="M356.835 494.741C344.771 490.78 303.15 472.185 299.857 469.259C297.3 467.004 297.116 466.272 296.749 456.639C296.445 448.593 296.137 446.338 294.675 442.009C292.785 436.157 293.092 434.022 295.894 434.022C297.967 434.022 297.844 433.047 295.282 427.927C294.124 425.608 293.149 422.93 293.149 421.951C293.149 419.876 295.526 416.586 302.291 409.027C304.849 406.161 309.727 400.433 313.2 396.224C316.612 392.019 321.06 386.595 323.074 384.216C326.426 380.131 326.914 379.767 329.047 379.767C330.326 379.767 332.947 380.315 334.957 380.986C340.38 382.877 345.255 384.096 351.289 385.012C354.274 385.439 357.015 386.107 357.382 386.475C357.686 386.778 359.272 391.231 360.795 396.228C363.476 404.886 364.451 406.653 364.451 402.872C364.451 400.069 365.062 399.274 367.192 399.274C368.595 399.274 369.326 399.578 369.57 400.369C369.69 400.917 370.789 404.698 372.007 408.72C377.981 429.142 386.389 468.092 386.389 475.287C386.389 479.736 385.17 481.263 379.136 484.249C376.211 485.772 371.58 488.638 368.899 490.648C364.207 494.186 361.586 495.645 360 495.525C359.572 495.525 358.17 495.158 356.831 494.734L356.835 494.741Z" fill="#8BCF3F"/>
<path d="M295.47 444.815C294.127 439.451 290.962 432.623 287.426 427.686C284.257 423.237 283.77 421.894 284.561 419.824C284.929 418.968 289.924 412.569 295.714 405.557C301.564 398.61 309.911 388.429 314.359 383.001C318.806 377.576 323.194 372.576 324.049 371.844C326.122 370.198 327.645 370.321 333.007 372.456C338.917 374.774 345.742 376.481 353.362 377.576C363.052 378.919 363.48 379.467 368.415 396.536C371.216 406.105 371.704 409.091 369.574 403.911C368.902 402.388 368.051 401.108 367.624 401.108C367.196 401.108 367.012 401.412 367.196 401.72C367.38 402.088 367.256 402.331 366.892 402.331C366.465 402.331 366.405 402.699 366.892 403.491C367.32 404.346 367.26 404.77 366.709 405.014C366.161 405.317 366.161 405.441 366.769 405.745C367.804 406.233 367.684 407.268 366.649 406.84C366.037 406.597 365.917 406.96 366.161 408.243C366.281 409.159 366.221 409.766 365.977 409.463C365.674 409.219 364.942 409.463 364.395 410.01C363.052 411.229 363.116 411.473 359.152 398.366C357.57 393.369 356.044 388.857 355.616 388.429C355.249 388.001 352.447 387.27 349.462 386.846C343.245 385.871 340.504 385.199 333.802 383.068C328.316 381.238 328.867 380.994 323.809 387.274C316.312 396.659 308.572 405.925 304.125 410.866C301.567 413.732 298.459 417.389 297.24 418.972L295.046 421.958L297.727 427.323C299.374 430.612 300.225 432.931 299.861 433.115C299.494 433.358 299.25 433.846 299.314 434.21C299.557 436.161 299.194 436.588 297.731 436.284C296.636 436.101 295.965 436.345 295.537 437.14C295.11 437.995 295.17 438.299 295.657 438.299C296.145 438.299 296.145 438.543 295.597 439.214C294.986 439.946 295.05 440.921 295.901 444.031C296.512 446.165 296.876 448.236 296.756 448.54C296.636 448.908 296.025 447.261 295.477 444.822L295.47 444.815Z" fill="#8BCF3F"/>
<path d="M509.606 420.313C506.805 418.73 504.915 417.264 488.764 404.828C469.204 389.65 432.885 360.266 417.285 346.979C412.226 342.65 410.156 339.968 410.156 337.713C410.156 334.543 411.619 328.567 412.41 328.567C412.838 328.567 415.699 330.642 418.807 333.2C443.854 353.743 474.263 376.787 495.773 391.477C501.195 395.195 501.866 395.502 502.477 394.587C502.845 393.855 503.089 386.904 503.089 375.508C503.089 359.295 502.905 356.792 501.686 350.209C495.409 317.351 482.43 289.858 461.104 264.255C459.457 262.244 454.279 256.696 449.588 252.003C444.041 246.395 441.638 242.077 442.125 241.773C444.188 241.773 448.875 241.773 460.252 244.2C462.69 245.48 474.878 257.368 481.095 264.623C508.699 296.749 521.678 331.07 521.678 371.85C521.678 384.346 520.946 393.188 518.876 405.379C517.11 415.804 515.951 419.706 514.185 420.925C512.539 422.084 512.722 422.084 509.614 420.313H509.606Z" fill="#0F6A3B"/>
<path d="M22.5939 310.341C22.5939 305.585 30.1501 284.799 36.3639 272.363C46.2376 252.612 56.8389 238.106 73.4139 221.525C86.8201 208.114 98.8239 198.605 113.573 189.643L117.656 187.145L124.845 189.339C140.018 193.972 151.414 195.923 169.451 196.958C180.42 197.629 193.583 197.446 202.845 196.53L206.621 196.103V197.749C206.621 204.273 190.654 223.048 173.715 236.399C170.179 239.141 166.343 242.191 165.184 243.167C162.075 245.665 146.843 255.97 140.505 259.807C120.214 272.243 88.4026 288.52 64.6389 298.517C46.6014 306.136 27.9564 312.72 24.4201 312.72C22.7139 312.72 22.5901 312.6 22.5901 310.341H22.5939Z" fill="#0F6A3B"/>
<path d="M174.938 248.527C174.938 248.04 174.266 247.308 173.415 246.88C172.56 246.453 171.893 245.721 171.893 245.234C171.893 244.806 171.345 244.442 170.674 244.442C170.003 244.442 169.455 244.138 169.455 243.831C169.455 243.403 168.053 243.343 165.495 243.587C160.864 244.074 160.5 243.467 163.729 240.965C179.696 228.589 190.178 218.836 196.999 209.998C201.326 204.509 205.103 197.866 204.555 196.95C204.371 196.647 205.47 196.279 207.053 196.035C211.136 195.487 211.5 195.547 211.5 196.827C211.5 197.558 212.231 198.35 213.33 198.837C214.913 199.509 215.16 199.933 215.16 201.947C215.16 207.983 204.679 223.161 192.368 234.865C187.736 239.314 175.913 249.311 175.305 249.311C175.121 249.311 174.938 248.944 174.938 248.52V248.527Z" fill="#0F6A3B"/>
<path d="M18.5101 326.555C19.1214 321.982 20.0326 317.045 21.1914 312.412C22.1664 308.387 22.4701 307.839 23.6889 307.839C24.8476 307.839 24.9676 308.083 24.6639 309.362C24.3601 310.521 24.4801 310.825 25.0914 310.641C67.4439 297.171 119.483 271.812 155.314 247.06C159.581 244.134 163.418 241.696 163.969 241.636C168.54 240.905 170.734 240.905 171.098 241.756C171.281 242.244 172.013 242.611 172.744 242.611C173.415 242.611 173.779 242.368 173.415 242.124C172.196 241.268 172.56 240.293 174.026 240.417C175.609 240.477 176.584 242.064 175.856 243.283C175.613 243.651 175.065 243.771 174.578 243.587C173.299 243.099 173.543 244.014 174.945 244.93C175.676 245.357 176.164 245.417 176.164 245.05C176.164 244.746 176.468 244.438 176.775 244.438C177.143 244.438 177.323 244.622 177.323 244.926C177.079 246.269 177.566 246.205 179.273 244.806C180.308 243.951 181.59 243.223 182.138 243.283C182.993 243.283 182.929 243.403 181.954 243.831C181.283 244.074 179.213 245.721 177.446 247.428C172.204 252.365 154.961 264.069 138.386 273.946C134.546 276.264 130.89 278.519 130.343 279.007C129.795 279.494 127.721 280.653 125.771 281.565C123.761 282.54 120.956 284.063 119.434 285.039C116.569 286.929 112.793 288.88 96.6414 296.987C64.4664 313.14 39.4201 323.505 20.5914 328.501L18.2139 329.113L18.5176 326.555H18.5101Z" fill="#0F6A3B"/>
<path d="M213.33 204.213C213.33 203.238 213.33 202.202 213.39 202.018C213.39 201.775 212.599 201.227 211.56 200.676C210.218 200.064 209.67 199.333 209.67 198.357C209.67 197.382 209.426 197.014 208.755 197.262C208.268 197.446 207.596 197.446 207.173 197.202C205.954 196.41 207.964 195.679 211.56 195.679C215.828 195.679 216.679 196.47 216.191 200.188C215.52 205.005 213.326 208.114 213.326 204.213H213.33Z" fill="#0F6A3B"/>
<path d="M289.256 669.206C289.072 668.414 288.769 665.916 288.585 663.538C287.794 654.212 284.501 642.628 279.686 632.267L277.369 627.206L283.279 623.429C309.727 606.604 331.174 590.207 357.806 566.495C361.766 562.897 363.596 562.957 370.177 566.863C372.919 568.446 376.455 570.4 378.037 571.068C380.659 572.227 380.902 572.531 380.902 574.421C380.902 577.104 373.957 591.126 367.496 601.363C349.762 629.524 327.581 651.046 300.221 666.591C292.541 670.92 289.74 671.588 289.252 669.213L289.256 669.206Z" fill="#0F6A3B"/>
<path d="M290.535 687.186C289.804 686.331 289.56 684.26 289.376 677.189C289.192 669.202 289.316 668.351 290.167 668.531C291.934 669.018 307.474 659.693 318.686 651.462C330.57 642.684 345.742 627.382 355.796 614.032C363.412 603.911 373.102 587.757 377.55 577.7L379.072 574.163L376.207 572.883C374.625 572.212 371.089 570.261 368.347 568.678C365.546 567.031 363.105 565.692 362.925 565.692C362.681 565.692 361.219 566.851 359.636 568.314C333.311 591.783 311.19 608.731 286.267 624.517C282.611 626.835 279.502 629.089 279.259 629.577C278.771 630.856 275.542 624.396 275.482 622.018C275.482 619.216 277.005 617.689 286.575 611.106C314.91 591.599 322.282 586.051 342.09 569.106C359.212 554.476 360.964 551.816 364.312 551.816C366.81 551.816 366.525 554.54 370.549 557.526C376.766 562.158 383.711 565.388 391.631 567.403C391.631 567.403 396.187 567.403 398.456 567.009C400.725 566.616 398.456 571.12 398.456 571.12C398.456 571.12 394.616 585.507 389.437 595.868C370.121 634.334 338.677 665.665 299.981 685.111C293.216 688.525 291.997 688.769 290.535 687.186Z" fill="#0F6A3B"/>
<path d="M100.41 614.767C96.0825 612.513 81.3975 597.455 73.4138 587.03C63.9075 574.655 53.79 556.734 48.0037 541.921C42.4575 527.654 37.2188 508.575 37.2188 502.295C37.2188 499.737 37.4625 499.369 41.3625 495.712C47.1525 490.224 54.0975 484.008 54.3413 484.008C54.525 484.008 54.8287 491.507 54.8887 498.638C54.8887 501.26 57.3863 511.561 59.7038 519.06C68.6625 547.345 81.765 570.509 100.042 590.564L104.066 595.013L108.574 590.256C111.071 587.634 113.876 584.464 114.851 583.245C115.826 581.966 117.701 580.702 118.125 580.702C118.5 581.452 122.527 590.009 122.527 592.267C122.527 594.645 120.274 597.995 113.021 606.469C107.779 612.689 104.366 615.675 102.724 615.675C102.42 615.675 101.321 615.247 100.406 614.76L100.41 614.767Z" fill="#0F6A3B"/>
<path d="M432.641 567.831C428.865 563.99 427.279 561.248 427.219 558.686C427.219 556.675 427.83 555.636 431.91 550.579C437.089 544.179 440.441 535.337 441.053 526.683C441.54 519.492 440.138 512.725 436.605 505.409C434.228 500.593 432.949 498.826 428.561 494.437C424.721 490.596 421.856 488.401 418.08 486.33C406.076 479.747 406.928 481.086 403.091 463.29C399.315 445.734 393.949 424.64 387.611 402.331C382.796 385.386 381.518 380.142 381.701 378.067C382.005 375.265 383.408 373.311 386.76 370.996C396.51 364.229 397.973 363.681 401.201 365.632C403.335 366.851 407.355 369.837 436.665 391.662C446.048 398.673 461.404 409.95 470.79 416.777C480.173 423.545 489.071 430.188 490.534 431.531L493.215 433.969L492.848 446.649C491.873 480.786 482.063 513.032 464.573 539.734C458.723 548.696 450.191 559.668 444.341 565.824C438.064 572.468 437.333 572.592 432.641 567.835V567.831Z" fill="#8BCF3F"/>
<path d="M15.0979 491.269C10.8304 488.831 3.45792 463.233 0.960419 442.267C-0.502081 430.505 -0.014581 407.161 1.81542 396.554C4.13292 382.841 7.11792 371.991 11.3817 361.02C14.7342 352.547 16.0729 350.293 18.5104 348.77C22.7779 346.149 67.6579 329.207 69.7917 329.207C70.4629 329.207 66.8329 331.645 66.8329 343.407C66.7729 356.388 66.8929 357.975 68.1754 362.727C69.7579 368.578 73.2942 376.499 76.2192 380.707C77.2542 382.23 80.3029 385.951 82.9242 388.936C88.5304 395.335 89.1417 397.041 87.4954 402.285C86.1529 406.673 78.6604 421.664 74.1492 429.162C60.3154 451.894 36.7954 478.835 21.9867 488.891C17.9629 491.573 16.5642 492.12 15.1017 491.269H15.0979Z" fill="#8BCF3F"/>
<path d="M181.335 338.687C178.958 337.652 178.47 336.98 176.764 332.224C174.69 326.188 172.316 321.923 168.293 316.618C163.785 310.582 160.249 307.169 153.304 301.864C148.429 298.207 147.818 297.475 147.638 295.585C147.394 292.783 148.856 291.5 161.531 282.845C192.548 261.632 218.753 237.856 231 219.752C234.536 214.571 236.059 213.108 237.521 213.596C238.133 213.78 244.163 219.936 250.868 227.191C257.633 234.506 271.463 249.136 281.7 259.745C292.241 270.657 300.713 280.043 301.324 281.326C302.666 284.128 302.359 285.835 298.946 293.945C297.728 296.871 296.081 302.236 295.29 305.833C294.011 311.502 293.524 312.601 291.634 314.551C289.988 316.258 288.585 316.99 285.968 317.601C284.078 318.029 282.251 318.577 281.884 318.82C281.58 319.064 278.835 319.552 275.79 319.979C267.563 321.075 254.036 323.821 227.04 329.857C198.461 336.256 193.586 337.476 190.965 338.635C188.648 339.73 183.776 339.794 181.339 338.695L181.335 338.687Z" fill="#0F6A3B"/>
<path d="M1.32768 330.033C0.0489294 329.118 -0.0748207 328.69 0.292679 325.584C1.32768 316.438 8.58018 293.154 15.2214 277.424C32.9552 235.545 57.2064 204.154 87.9789 183.244C94.9239 178.551 96.6339 178.247 102.24 180.806C104.19 181.661 109.185 183.732 113.333 185.315L120.829 188.181L116.989 190.499C109.493 195.008 100.23 201.412 92.9777 207.14C84.1427 214.151 66.5289 231.583 60.2552 239.57C45.3864 258.469 34.1139 279.439 27.1652 301.32C25.9464 305.098 24.3639 309.427 24.3639 309.427C24.3639 309.427 24.066 310.542 23.8764 311.257C23.6365 312.163 23.2652 313.576 23.2652 313.576C23.2652 313.576 22.4476 317.291 21.9227 319.672C21.4239 321.934 20.7233 323.149 20.6439 325.464C20.6042 326.622 20.8127 328.427 20.8127 328.427C20.8127 328.427 21.6189 328.33 15.7689 329.733C9.30768 331.316 3.33768 331.44 1.32768 330.037V330.033Z" fill="#0F6A3B"/>
<path d="M316.312 265.173C313.084 263.526 295.654 248.776 287.426 240.79C270.607 224.513 260.066 210.674 247.451 188.305C244.894 183.796 240.746 179.039 237.701 177.089C234.9 175.322 229.657 173.735 226.609 173.735C223.012 173.735 207.352 176.357 197.175 178.612C193.762 179.403 182.854 179.343 182.854 178.612C182.854 178.308 182.062 178 181.024 178C180.049 178 179.014 177.633 178.77 177.209C178.159 176.173 173.711 175.378 173.711 176.233C173.711 176.661 172.065 176.721 169.02 176.477C164.936 176.11 164.085 175.806 162.866 174.467C161.344 172.76 160.732 173.064 159.941 175.99C159.514 177.696 157.2 178.244 154.215 177.333C151.897 176.661 151.777 176.477 151.777 174.223C151.777 172.576 151.534 171.904 150.862 171.904C150.375 171.904 149.947 171.357 149.947 170.685C149.947 170.014 149.4 168.551 148.729 167.332C146.719 163.794 147.206 160.992 149.644 161.54C150.011 161.6 153.42 162.395 157.26 163.246C163.781 164.709 165.304 164.829 179.809 164.893C192.424 164.893 196.444 164.709 201.139 163.798C214.545 161.176 216.799 160.872 223.504 160.26C229.17 159.773 231.12 159.833 234.045 160.564C244.954 163.366 250.436 168.551 264.026 189.033C269.329 196.959 276.397 206.957 279.81 211.282C285.784 218.901 302.842 236.457 311.925 244.384L316.312 248.225V244.263C316.312 232.316 313.024 211.71 308.452 195.376C304.065 179.587 299.25 168.067 286.211 142.34C276.949 123.993 270.124 108.875 266.651 98.9377C265.98 97.1708 265.249 95.7078 264.945 95.7078C264.701 95.7078 263.726 96.6231 262.811 97.7185C258.056 103.511 253.976 107.168 250.136 109.059C245.321 111.437 235.327 114.911 231.551 115.458C230.089 115.702 228.139 116.006 227.224 116.19C225.761 116.494 225.517 116.31 225.517 115.095C225.517 114.303 226.552 112.596 227.771 111.253C230.82 107.9 239.044 97.5985 241.237 94.3686C243.919 90.4072 249.465 79.6147 251.599 74.0702C255.986 62.8538 259.155 48.2237 260.254 33.5335C261.472 17.9281 262.02 13.3552 262.751 12.4437C263.542 11.4683 267.93 11.2845 268.477 12.2599C268.721 12.5637 269.392 18.2957 270 24.8793C272.254 48.9589 275.974 63.1614 284.381 80.0461C292.912 97.0545 307.901 115.522 321.799 126.071C332.767 134.421 341.97 139.298 359.884 146.189C385.294 156.003 389.865 158.257 405.281 168.806C421.98 180.146 441.236 201.176 441.236 208.003C441.236 209.586 440.932 210.502 440.261 210.746C438.739 211.293 425.88 209.89 417.712 208.247C408.086 206.296 402.844 205.689 402.844 206.6C402.844 206.968 401.749 207.272 400.102 207.272C398.58 207.272 397.361 207.028 397.361 206.66C397.361 205.929 394.312 205.869 393.401 206.54C393.097 206.784 392.486 207.516 392.122 208.187C391.027 210.138 387.307 210.685 383.531 209.406C381.765 208.795 380.302 208.063 380.302 207.759C380.302 207.516 379.875 207.272 379.387 207.272C376.462 207.272 352.147 195.932 338.805 188.373C334.05 185.63 323.389 179.227 317.782 175.569C316.991 175.082 316.2 174.898 315.952 175.142C315.709 175.326 316.564 177.944 317.842 180.87C326.314 200.621 331.492 226.591 331.736 251.155C331.856 258.41 331.736 259.629 330.641 261.52C328.144 265.789 320.891 267.675 316.32 265.177L316.312 265.173Z" fill="#0F6A3B"/>
<path d="M446.415 224.573C425.94 222.562 400.774 216.282 379.567 207.868C374.081 205.674 372.986 205.066 372.986 203.967C372.986 203.295 373.23 202.992 373.474 203.295C374.021 204.087 375.304 204.391 377.497 204.271C378.472 204.211 379.571 204.515 379.815 204.942C380.302 205.614 380.486 205.614 380.73 204.942C380.974 204.331 381.217 204.331 381.889 204.882C382.376 205.25 382.62 205.738 382.5 205.978C382.38 206.161 382.62 206.709 383.111 207.137C383.599 207.564 383.966 207.748 383.966 207.624C383.966 207.441 384.637 207.564 385.489 207.868C386.584 208.296 387.195 208.172 387.926 207.501C388.537 206.889 388.841 206.829 388.841 207.317C388.841 207.804 389.085 207.804 389.756 207.257C390.367 206.769 390.487 206.281 390.124 206.098C389.756 205.854 389.756 205.366 390.004 204.878C390.307 204.391 390.859 204.267 391.346 204.511C391.894 204.878 392.017 204.695 391.714 204.023C391.41 203.232 391.714 202.988 392.992 202.988C394.271 202.988 394.455 203.108 393.724 203.599C392.992 204.087 393.176 204.211 394.515 204.211C395.734 204.211 396.097 203.967 395.794 203.479C395.426 202.868 395.55 202.868 396.221 203.479C396.649 203.847 397.867 204.211 398.902 204.211C400.305 204.211 400.485 204.395 399.817 204.822C399.146 205.25 399.146 205.434 399.697 205.434C400.125 205.434 400.856 205.066 401.28 204.702C401.951 204.031 401.951 203.787 401.096 203.239C400.549 202.811 402.191 202.935 405.3 203.607C420.716 206.96 437.599 209.583 438.877 208.787C439.792 208.176 439.549 207.628 436.684 203.299C429.739 192.63 415.965 179.099 403.474 170.625C388.057 160.08 383.486 157.822 358.076 148.009C343.815 142.52 338.636 140.082 330.229 134.901C307.804 121.003 289.035 98.4462 278.31 72.4196C272.704 58.7649 270.082 47.1208 268.192 26.5786C267.581 19.935 266.79 14.203 266.426 13.8392C265.511 12.9238 264.109 14.3268 263.745 16.6414C263.501 17.7368 263.197 21.0904 263.014 24.0802C261.064 53.9519 257.407 69.6174 248.205 87.1736C246.375 90.711 244.061 94.7324 243.086 96.1955C240.892 99.4253 232.665 109.73 229.62 113.08C228.401 114.423 227.366 115.702 227.366 116.006C227.366 116.25 227.062 116.434 226.695 116.434C226.267 116.434 223.342 118.324 220.114 120.639C206.524 130.392 198.052 134.781 173.741 144.475C156.619 151.362 145.222 156.543 144.004 158.01C143.332 158.865 143.636 159.169 146.745 160.328C150.097 161.607 160.515 163.985 167.34 164.961C169.35 165.265 169.837 165.508 168.862 165.632C168.007 165.752 163.62 165.205 159.112 164.413C154.605 163.558 150.521 163.07 150.154 163.194C149.179 163.562 149.726 164.597 150.765 164.353C151.192 164.293 151.312 164.293 151.069 164.413C150.214 164.901 150.581 165.996 151.924 167.463C153.082 168.742 153.142 169.046 152.411 169.537C151.68 170.085 151.74 170.149 152.779 169.905C153.694 169.721 154.057 169.905 153.997 170.636C153.937 171.308 154.365 171.552 155.216 171.492C155.947 171.432 156.495 171.736 156.495 172.223C156.495 172.711 156.007 173.139 155.4 173.139C154.852 173.139 154.241 173.566 153.997 174.054C153.814 174.602 153.997 174.969 154.545 174.969C155.032 174.969 155.46 175.213 155.46 175.517C155.46 175.821 156.007 175.945 156.679 175.761C157.594 175.517 157.837 175.089 157.534 174.238C157.29 173.446 157.414 173.142 157.777 173.382C158.081 173.566 158.569 173.322 158.752 172.771C159.3 171.308 159.24 171.124 158.081 171.552C157.47 171.796 157.226 171.796 157.47 171.552C157.714 171.308 157.59 170.76 157.226 170.273C156.679 169.661 156.739 169.177 157.594 168.262C158.812 166.919 160.335 167.287 160.335 168.993C160.335 169.605 160.579 170.029 160.882 169.849C161.126 169.665 162.529 170.58 163.867 171.923C165.27 173.326 166.489 174.118 166.732 173.754C166.916 173.45 166.732 173.142 166.305 173.082C165.877 173.022 166.185 172.778 167.036 172.535C169.23 171.803 170.085 171.863 170.085 172.595C170.085 172.899 169.841 173.082 169.537 172.839C169.234 172.655 168.806 172.778 168.622 173.082C168.011 173.998 169.414 174.545 170.389 173.754C171 173.206 171.244 173.326 171.484 174.181C171.667 174.973 171.787 174.853 171.851 173.754C171.911 172.475 172.035 172.411 172.582 173.142C173.13 173.874 173.194 173.814 172.95 172.715C172.522 170.704 173.805 170.704 175.631 172.655C176.91 174.118 177.337 174.302 177.885 173.57C178.312 173.082 178.432 172.535 178.189 172.291C177.945 172.047 178.189 172.047 178.8 172.291C179.347 172.475 179.655 172.902 179.471 173.206C179.287 173.51 179.591 173.754 180.142 173.754C180.814 173.754 181.057 174.058 180.874 174.669C180.63 175.157 180.754 175.705 181.057 175.888C181.425 176.132 181.669 176.008 181.669 175.644C181.669 175.277 182.096 175.157 182.584 175.341C183.131 175.584 183.499 175.341 183.499 174.913C183.499 174.241 183.619 174.241 184.046 174.913C184.35 175.401 185.081 175.888 185.629 175.948C186.176 176.008 186.847 176.316 187.031 176.56C187.275 176.804 186.971 176.804 186.42 176.62C185.809 176.436 185.201 176.5 185.017 176.804C184.774 177.171 185.321 177.415 186.176 177.415C187.031 177.415 187.759 177.171 187.759 176.804C187.759 176.5 188.062 176.192 188.43 176.192C188.734 176.192 188.857 176.496 188.674 176.804C188.43 177.171 188.977 177.415 189.832 177.415C190.687 177.415 191.415 177.047 191.415 176.684C191.415 176.136 191.599 176.136 191.962 176.744C192.266 177.231 192.937 177.415 193.545 177.171C195.495 176.44 204.21 176.012 204.21 176.684C204.21 176.987 203.295 177.415 202.26 177.599C201.165 177.783 198.724 178.39 196.897 178.878C192.997 180.037 181.909 180.157 169.474 179.246C153.69 178.027 142.174 175.528 124.32 169.249C118.166 167.114 111.949 164.98 110.55 164.556C109.087 164.128 107.929 163.46 107.929 163.033C107.929 161.753 113.902 155.657 118.897 151.876C124.747 147.487 134.07 142.914 148.147 137.49C166.185 130.602 168.259 129.807 177.701 126.03C215.055 111.216 229.192 98.9039 239.25 72.5697C243.881 60.438 246.319 46.4793 247.781 23.4988C248.329 14.5969 249.124 7.22185 249.731 4.59968L250.826 0.33069L265.267 0.146876C278.614 0.0268337 279.709 0.0868547 280.016 1.0622C280.2 1.67366 280.807 8.0734 281.295 15.2647C282.454 31.3578 283.672 41.4151 285.682 50.8646C288.424 64.2755 290.617 69.8237 297.322 80.7963C308.167 98.7201 322.061 112.435 340.099 123.04C347.595 127.489 354.724 130.415 369.712 134.988C384.214 139.437 390.307 141.815 401.34 147.18C419.925 156.325 436.624 168.517 453.502 185.338C465.446 197.226 479.28 215.39 480.071 220.266C480.375 222.217 480.191 222.521 478.365 223.496C476.535 224.472 474.589 224.655 462.581 224.715C455.025 224.775 447.772 224.715 446.434 224.595L446.415 224.573Z" fill="#0F6A3B"/>
<path d="M305.25 317.548C305.25 291.547 326.321 270.469 352.313 270.469V270.469C378.304 270.469 399.375 291.547 399.375 317.548V317.548C399.375 343.549 378.304 364.627 352.313 364.627V364.627C326.321 364.627 305.25 343.549 305.25 317.548V317.548Z" fill="#FF9F1C"/>
<path d="M204.75 455.971C204.75 434.113 222.463 416.395 244.312 416.395V416.395C266.162 416.395 283.875 434.113 283.875 455.971V455.971C283.875 477.828 266.162 495.547 244.312 495.547V495.547C222.463 495.547 204.75 477.828 204.75 455.971V455.971Z" fill="#FF9F1C"/>
<path d="M366.375 524.245C366.375 507.36 380.058 493.672 396.938 493.672V493.672C413.817 493.672 427.5 507.36 427.5 524.245V524.245C427.5 541.13 413.817 554.818 396.938 554.818V554.818C380.058 554.818 366.375 541.13 366.375 524.245V524.245Z" fill="#0F6A3B"/>
<path d="M126.75 562.135C126.75 540.278 144.463 522.559 166.312 522.559V522.559C188.162 522.559 205.875 540.278 205.875 562.135V562.135C205.875 583.992 188.162 601.711 166.312 601.711V601.711C144.463 601.711 126.75 583.992 126.75 562.135V562.135Z" fill="#8BCF3F"/>
<path d="M78 347.933C78 323.59 97.7275 303.855 122.062 303.855V303.855C146.398 303.855 166.125 323.59 166.125 347.933V347.933C166.125 372.277 146.398 392.011 122.062 392.011V392.011C97.7275 392.011 78 372.277 78 347.933V347.933Z" fill="#8BCF3F"/>
</g>
<defs>
<clipPath id="clip0_2877_283">
<rect width="522" height="715" fill="white"/>
</clipPath>
</defs>
</svg>
