<svg width="398" height="545" viewBox="0 0 398 545" fill="none" xmlns="http://www.w3.org/2000/svg">
<g clip-path="url(#clip0_2854_4006)">
<path d="M179.146 374.555C175.057 373.3 172.967 372.325 169.808 370.094C163.952 365.911 159.54 359.595 157.773 352.901C155.449 343.794 158.377 332.968 165.113 326.228C170.317 320.979 175.24 318.84 183.28 318.422C189.599 318.142 193.224 318.888 198.891 321.628C202.005 323.209 203.678 324.416 206.837 327.575C213.436 334.126 215.898 340.214 215.48 348.718C215.249 353.736 213.808 358.288 211.206 362.471C209.207 365.539 201.17 373.111 199.824 373.111C199.498 373.111 198.617 373.391 197.825 373.763C193.736 375.622 184.072 375.993 179.149 374.552L179.146 374.555Z" fill="#ED971F"/>
<path d="M102.622 391.839C98.5337 388.122 69.0297 354.018 65.8245 349.231C63.7345 346.117 64.0118 344.911 69.2155 334.874C71.7231 329.948 75.2084 322.327 76.9297 317.915C78.648 313.455 80.6009 309.226 81.2042 308.482L82.365 307.135H89.4729C99.2771 307.135 104.387 305.929 113.542 301.514C117.49 299.609 118.605 299.424 120.65 300.167C123.949 301.422 146.528 321.078 149.039 324.841C150.525 327.071 150.385 329.767 148.481 335.715C147.457 339.06 147.134 341.059 146.994 345.706C146.714 353.372 147.46 356.903 150.803 363.688C152.198 366.568 153.359 369.359 153.359 369.913C153.359 372.049 151.36 374.886 145.739 380.925C136.864 390.404 138.305 389.66 127.943 389.938C121.579 390.123 118.791 390.355 117.582 390.867C115.397 391.842 107.963 393.563 106.105 393.563C104.99 393.563 104.015 393.097 102.62 391.845L102.622 391.839Z" fill="#71943E"/>
<path d="M159.169 314.059C157.45 313.593 150.76 308.252 140.307 299.096C131.803 291.707 130.131 289.803 130.131 287.85C130.131 287.106 131.06 284.596 132.175 282.274C133.29 279.998 134.545 277.302 135.009 276.327C135.938 274.328 137.751 273.213 141.979 272.143C143.512 271.772 147.183 270.796 150.111 270.053C170.228 264.663 215.484 255.09 220.733 255.09C224.404 255.09 225.099 255.507 226.82 258.899C227.378 260.014 228.865 262.476 230.074 264.429C231.329 266.379 232.49 268.563 232.63 269.355C233.096 271.817 232.073 273.304 217.065 291.799C200.244 312.521 201.453 311.454 195.461 310.245C191.046 309.315 178.829 309.129 176.736 309.964C176.038 310.245 174.134 310.754 172.601 311.08C171.02 311.451 168.373 312.335 166.7 313.124C163.586 314.565 161.728 314.797 159.172 314.053L159.169 314.059Z" fill="#71943E"/>
<path d="M376.564 299.794C360.21 288.597 336.793 270.846 318.068 255.468L313.885 252.031L314.025 246.501C314.537 229.914 306.174 215.045 291.306 206.075C287.031 203.473 283.732 202.126 277.879 200.499C274.951 199.664 273.139 198.872 272.444 198.175C271.841 197.477 271.097 195.432 270.494 192.97C268.681 185.21 265.244 165.369 265.522 164.208C265.939 162.581 267.798 162.767 272.861 164.997C294.886 174.708 318.302 181.91 334.563 184.001C340.37 184.698 340.741 184.836 340.464 185.813C340.324 186.465 341.439 187.858 344.413 190.786C361.974 208.165 375.263 230.932 381.256 253.933C384.647 266.989 384.973 269.545 384.973 285.761C384.973 293.798 384.833 300.955 384.601 301.699C383.998 303.929 381.905 303.466 376.564 299.794Z" fill="#305836"/>
<path d="M233.276 184.744C218.826 171.548 211.672 163.092 199.915 145.481C191.598 132.983 187.558 128.382 182.771 125.966C178.311 123.736 175.664 123.224 170.786 123.641C166.789 123.967 165.024 124.245 154.757 126.243C151.086 126.941 148.067 127.078 137.102 127.078C124.51 127.033 123.58 126.987 118.517 125.823C115.589 125.171 111.966 124.15 110.525 123.593C108.018 122.663 107.829 122.478 107.829 121.085C107.829 120.202 108.201 119.226 108.664 118.809C110.011 117.554 118.374 113.837 131.057 108.727C149.642 101.292 156.055 97.9926 166.46 90.5582C170.363 87.7245 171.338 87.2585 173.894 86.841C177.751 86.2377 184.813 83.913 189.039 81.8685C192.244 80.2873 195.172 77.6852 198.983 73.0873C200.007 71.832 200.564 71.5547 202.002 71.5547C203.769 71.5547 203.861 71.6004 204.699 74.0166C207.346 81.5911 212.55 93.1145 219.612 107.1C227.464 122.666 230.3 128.845 233.505 137.858C238.8 152.633 242.566 172.66 242.566 186.136V190.503H241.079C239.778 190.503 238.572 189.619 233.273 184.741L233.276 184.744Z" fill="#305836"/>
<path d="M74.8398 451.549C60.7612 435.983 50.957 418.606 44.1292 397.046C42.1306 390.681 40.458 383.338 40.458 380.922C40.458 377.994 41.1557 376.925 47.6117 370.328C55.0914 362.708 54.1164 362.568 62.9913 373.024C66.8484 377.531 72.887 384.593 76.4667 388.682C80.0436 392.771 83.4832 396.766 84.0407 397.512C84.644 398.301 86.7827 400.718 88.7813 402.902L92.4525 406.945L90.8713 410.803C88.5011 416.659 87.8034 419.724 87.5261 425.672C87.2459 431.573 87.7119 435.336 89.4303 440.726L90.4996 444.117L88.6412 446.348C87.6176 447.603 85.3874 450.019 83.7148 451.783C79.5804 456.013 78.8827 456.013 74.8398 451.552V451.549Z" fill="#305836"/>
<path d="M183.514 524.452C166.928 513.023 153.453 501.592 141.559 488.907C132.406 479.148 130.13 476.223 130.13 474.224C130.13 472.692 130.222 472.552 131.477 472.552C133.336 472.552 139.98 470.553 143.743 468.88C147.369 467.253 150.062 465.489 154.151 462.003C156.847 459.679 157.218 459.541 159.494 459.541C161.91 459.541 162.096 459.681 171.017 466.187C175.989 469.812 181.424 474.133 183.097 475.806C187.743 480.498 191.972 488.676 194.342 497.691C195.271 501.128 195.366 502.755 195.412 511.817C195.412 520.275 195.271 522.597 194.528 525.43L193.693 528.776H191.695C189.976 528.776 188.953 528.264 183.517 524.455L183.514 524.452Z" fill="#305836"/>
<path d="M193.364 544.059C188.858 542.06 168.738 527.658 158.705 519.245C146.531 509.069 131.291 493.968 123.534 484.395C118.239 477.796 112.012 468.643 112.012 467.39C112.012 465.995 113.081 465.858 118.236 466.507C127.9 467.762 134.731 466.973 141.607 463.719C145.742 461.815 148.392 459.91 152.99 455.495C157.73 450.94 158.285 450.849 162.422 453.359C168.555 457.122 184.447 468.831 188.069 472.271C194.434 478.313 200.615 487.14 203.54 494.529C209.256 508.886 208.79 523.011 202.099 536.579C199.683 541.552 197.639 544.294 196.152 544.711C195.64 544.803 194.385 544.525 193.364 544.059ZM193.133 524.032C194.479 518.828 194.388 504.471 192.947 499.081C190.577 490.068 186.348 481.887 181.702 477.195C177.893 473.386 160.933 460.98 159.492 460.931C158.888 460.931 157.216 461.955 155.543 463.393C151.454 466.879 148.758 468.643 145.135 470.27C141.373 471.943 134.728 473.941 132.87 473.941C132.126 473.941 131.523 474.081 131.523 474.221C131.523 474.779 137.193 481.376 142.951 487.509C152.058 497.174 161.444 505.583 173.104 514.505C180.306 520.035 190.946 527.375 191.689 527.375C192.061 527.375 192.664 525.934 193.13 524.029L193.133 524.032Z" fill="#305836"/>
<path d="M87.431 404.388C85.3867 402.112 83.248 399.696 82.6904 398.907C82.0871 398.163 79.3909 395.004 76.6976 391.936C71.7712 386.36 55.3251 367.216 54.8133 366.473C54.4416 365.961 43.8025 376.835 42.5931 378.971C40.7804 382.131 39.9912 380.784 39.9912 374.37V370.236L46.5902 363.313C51.0048 358.712 53.5123 356.391 54.1642 356.391C55.6968 356.391 60.9949 362.107 78.3702 382.411C92.5861 399.044 93.4239 400.208 93.4239 403.133C93.4239 404.852 92.1687 408.429 91.5654 408.429C91.3338 408.429 89.4753 406.616 87.431 404.386V404.388Z" fill="#305836"/>
<path d="M229.324 380.735C228.301 380.364 226.537 379.62 225.376 379.063C224.215 378.505 222.588 378.039 221.75 378.039C220.218 377.993 220.169 377.947 220.404 376.272C220.544 375.111 220.404 374.367 219.986 373.996C219.614 373.715 219.334 372.74 219.334 371.905C219.334 370.373 219.38 370.324 221.238 370.324C222.679 370.324 225.327 371.299 231.134 373.901C235.5 375.9 238.708 377.573 238.242 377.664C237.776 377.756 236.801 377.619 236.106 377.384C234.805 376.918 234.76 376.967 234.851 378.313C234.991 379.986 233.968 381.567 233.364 380.638C232.993 380.126 232.898 380.126 232.667 380.73C232.295 381.613 231.783 381.613 229.321 380.73L229.324 380.735Z" fill="#305836"/>
<path d="M195.64 460.144C192.155 458.099 173.384 444.623 170.968 442.441C169.713 441.326 168.412 439.933 168.135 439.373C167.809 438.815 167.437 435.284 167.251 431.195C167.065 426.966 166.648 422.646 166.136 420.741C165.021 416.186 161.77 409.73 158.702 405.872L156.1 402.618L157.541 401.457C158.285 400.806 161.072 397.786 163.72 394.721C168.275 389.377 168.552 389.145 170.456 389.005C171.526 388.913 174.639 389.422 177.378 390.12C181.699 391.189 182.999 391.327 186.811 391.095C197.218 390.492 208.509 385.705 217.616 378.131C219.706 376.363 219.986 376.272 222.262 376.458C223.609 376.598 225.839 377.201 227.234 377.853C230.765 379.434 231.417 379.666 231.417 379.154C231.417 378.874 231.835 378.688 232.346 378.688C233.09 378.688 233.276 378.362 233.276 377.061C233.276 376.038 233.507 375.434 233.879 375.434C234.576 375.434 263.569 388.35 265.845 389.651C268.678 391.324 268.058 392.994 268.335 401.172C268.521 407.259 269.513 408.472 268.91 409.678C268.075 411.259 258.176 420.644 253.018 424.733C251.251 426.174 249.441 427.707 249.07 428.17C248.698 428.636 246.745 430.029 246.745 430.029L240.612 434.861C240.612 434.861 236.012 438.624 235.826 438.624C235.64 438.624 231.969 441.32 231.969 441.32L224.441 446.756L218.216 451.448L214.825 453.724L208.646 457.487C208.646 457.487 206.185 459.16 204.649 459.949C200.978 461.808 198.516 461.854 195.637 460.135L195.64 460.144Z" fill="#305836"/>
<path d="M156.38 402.99C154.104 400.016 153.964 399.087 155.357 396.717C156.658 394.532 164.323 385.099 166.182 383.475C167.714 382.079 169.573 382.128 174.591 383.661C178.262 384.776 179.423 384.916 185.647 384.916C192.057 384.916 192.941 384.824 196.566 383.615C202.977 381.479 207.717 378.828 214.499 373.487C216.032 372.28 217.89 371.071 218.588 370.791C219.983 370.279 222.585 370.187 223.7 370.605C224.955 371.071 224.535 371.86 223.143 371.58C221.747 371.299 220.309 371.86 221.098 372.369C222.445 373.204 223.234 376.83 222.073 376.83C221.793 376.83 221.747 377.061 221.887 377.296C222.027 377.576 221.933 377.762 221.607 377.762C221.327 377.762 220.12 378.551 218.911 379.575C209.341 387.612 198.376 392.027 186.759 392.49C181.51 392.722 180.44 392.631 175.934 391.515C173.192 390.818 170.639 390.354 170.313 390.492C169.987 390.583 167.48 393.325 164.738 396.534C162.042 399.693 159.302 402.667 158.651 403.084C157.721 403.688 157.581 403.968 158.047 404.526C158.327 404.897 158.465 405.178 158.327 405.178C158.187 405.178 157.304 404.202 156.377 402.993L156.38 402.99Z" fill="#305836"/>
<path d="M272.07 377.113C262.872 374.093 231.137 359.919 228.627 357.689C226.677 355.97 226.537 355.413 226.257 348.07C226.025 341.936 225.791 340.218 224.676 336.918C223.235 332.458 223.469 330.831 225.605 330.831C227.186 330.831 227.092 330.087 225.139 326.184C224.255 324.417 223.512 322.375 223.512 321.629C223.512 320.048 225.325 317.54 230.483 311.778C232.433 309.594 236.152 305.228 238.8 302.019C241.402 298.814 244.793 294.679 246.328 292.866C248.884 289.753 249.256 289.475 250.883 289.475C251.858 289.475 253.857 289.893 255.389 290.405C259.523 291.846 263.24 292.775 267.841 293.473C270.117 293.799 272.207 294.308 272.487 294.588C272.719 294.819 273.928 298.214 275.089 302.022C277.133 308.622 277.877 309.968 277.877 307.086C277.877 304.95 278.343 304.344 279.967 304.344C281.036 304.344 281.594 304.576 281.779 305.179C281.871 305.596 282.709 308.479 283.638 311.544C288.193 327.111 294.603 356.8 294.603 362.284C294.603 365.675 293.674 366.839 289.073 369.115C286.843 370.276 283.312 372.46 281.268 373.993C277.691 376.689 275.692 377.802 274.483 377.71C274.157 377.71 273.087 377.43 272.067 377.107L272.07 377.113Z" fill="#71943E"/>
<path d="M225.282 339.057C224.258 334.968 221.845 329.764 219.149 326.001C216.733 322.61 216.361 321.586 216.964 320.008C217.245 319.356 221.053 314.478 225.468 309.134C229.928 303.838 236.293 296.078 239.684 291.94C243.075 287.805 246.42 283.994 247.072 283.436C248.653 282.181 249.814 282.275 253.902 283.902C258.408 285.669 263.612 286.97 269.422 287.805C276.81 288.829 277.136 289.246 280.899 302.257C283.035 309.551 283.406 311.827 281.782 307.878C281.271 306.717 280.621 305.742 280.296 305.742C279.97 305.742 279.829 305.974 279.97 306.208C280.11 306.489 280.015 306.674 279.738 306.674C279.412 306.674 279.366 306.955 279.738 307.558C280.064 308.21 280.018 308.533 279.598 308.719C279.18 308.951 279.18 309.045 279.644 309.276C280.433 309.648 280.341 310.437 279.552 310.111C279.086 309.926 278.995 310.203 279.18 311.181C279.272 311.879 279.226 312.342 279.04 312.11C278.809 311.924 278.251 312.11 277.834 312.528C276.81 313.457 276.859 313.643 273.837 303.652C272.63 299.843 271.466 296.404 271.14 296.078C270.86 295.752 268.724 295.194 266.448 294.871C261.708 294.127 259.618 293.616 254.508 291.991C250.325 290.596 250.746 290.41 246.889 295.197C241.173 302.351 235.272 309.414 231.881 313.18C229.931 315.364 227.561 318.152 226.631 319.359L224.959 321.635L227.003 325.724C228.258 328.231 228.907 329.998 228.63 330.139C228.35 330.324 228.164 330.696 228.212 330.974C228.398 332.46 228.121 332.786 227.006 332.555C226.171 332.415 225.659 332.601 225.333 333.207C225.007 333.859 225.053 334.09 225.425 334.09C225.796 334.09 225.796 334.276 225.379 334.788C224.913 335.346 224.962 336.089 225.611 338.459C226.077 340.086 226.354 341.665 226.262 341.896C226.171 342.177 225.705 340.921 225.287 339.063L225.282 339.057Z" fill="#71943E"/>
<path d="M388.55 320.379C386.415 319.172 384.974 318.054 372.659 308.575C357.745 297.006 330.054 274.609 318.16 264.481C314.303 261.181 312.725 259.136 312.725 257.418C312.725 255.002 313.84 250.447 314.443 250.447C314.769 250.447 316.95 252.028 319.321 253.978C338.417 269.636 361.603 287.201 378.003 298.399C382.137 301.232 382.649 301.467 383.115 300.769C383.395 300.212 383.581 294.913 383.581 286.226C383.581 273.868 383.441 271.961 382.512 266.943C377.726 241.897 367.83 220.941 351.57 201.425C350.314 199.893 346.366 195.664 342.789 192.087C338.56 187.812 336.728 184.521 337.099 184.289C338.672 184.289 342.246 184.289 350.921 186.139C352.779 187.114 362.071 196.176 366.812 201.706C387.859 226.193 397.754 252.354 397.754 283.438C397.754 292.963 397.197 299.703 395.618 308.996C394.272 316.942 393.388 319.916 392.042 320.845C390.786 321.729 390.926 321.729 388.556 320.379H388.55Z" fill="#305836"/>
<path d="M17.2263 236.554C17.2263 232.928 22.9875 217.084 27.7252 207.605C35.2535 192.551 43.3364 181.493 55.9741 168.855C66.1957 158.632 75.348 151.384 86.5932 144.553L89.7069 142.648L95.188 144.321C106.756 147.853 115.445 149.339 129.198 150.129C137.561 150.64 147.597 150.5 154.659 149.803L157.538 149.477V150.732C157.538 155.704 145.364 170.016 132.449 180.192C129.753 182.282 126.828 184.607 125.944 185.351C123.574 187.255 111.96 195.11 107.128 198.035C91.6568 207.514 67.4023 219.921 49.2836 227.541C35.5308 233.348 21.3149 238.367 18.6187 238.367C17.3178 238.367 17.2234 238.275 17.2234 236.554H17.2263Z" fill="#305836"/>
<path d="M133.381 189.437C133.381 189.065 132.869 188.507 132.22 188.181C131.568 187.855 131.059 187.298 131.059 186.926C131.059 186.6 130.642 186.323 130.13 186.323C129.618 186.323 129.201 186.091 129.201 185.857C129.201 185.531 128.132 185.485 126.182 185.671C122.651 186.043 122.373 185.579 124.835 183.672C137.009 174.239 145.001 166.805 150.202 160.068C153.501 155.885 156.38 150.821 155.963 150.123C155.823 149.891 156.661 149.611 157.867 149.425C160.981 149.008 161.258 149.053 161.258 150.029C161.258 150.586 161.816 151.189 162.654 151.561C163.86 152.073 164.049 152.396 164.049 153.932C164.049 158.532 156.057 170.101 146.671 179.023C143.14 182.414 134.124 190.034 133.661 190.034C133.521 190.034 133.381 189.754 133.381 189.431V189.437Z" fill="#305836"/>
<path d="M14.1126 248.912C14.5786 245.426 15.2734 241.663 16.1569 238.132C16.9003 235.064 17.1319 234.646 18.0611 234.646C18.9446 234.646 19.0361 234.832 18.8045 235.807C18.5729 236.691 18.6644 236.923 19.1305 236.782C51.4222 226.514 91.0993 207.185 118.419 188.319C121.673 186.088 124.598 184.23 125.018 184.184C128.503 183.626 130.176 183.626 130.453 184.275C130.593 184.647 131.151 184.927 131.708 184.927C132.22 184.927 132.498 184.742 132.22 184.556C131.291 183.904 131.568 183.16 132.686 183.255C133.893 183.3 134.636 184.51 134.082 185.439C133.896 185.719 133.478 185.811 133.107 185.671C132.132 185.299 132.317 185.997 133.387 186.694C133.944 187.02 134.316 187.066 134.316 186.786C134.316 186.554 134.548 186.32 134.782 186.32C135.062 186.32 135.2 186.46 135.2 186.692C135.014 187.715 135.385 187.667 136.686 186.6C137.475 185.948 138.453 185.393 138.871 185.439C139.523 185.439 139.474 185.531 138.731 185.857C138.219 186.043 136.641 187.298 135.294 188.599C131.297 192.362 118.15 201.283 105.512 208.812C102.585 210.579 99.797 212.297 99.3795 212.669C98.9621 213.041 97.3809 213.924 95.8942 214.619C94.3616 215.363 92.223 216.524 91.0621 217.267C88.8777 218.708 85.9985 220.195 73.6839 226.374C49.152 238.687 30.0555 246.587 15.6994 250.396L13.8867 250.862L14.1183 248.912H14.1126Z" fill="#305836"/>
<path d="M162.654 155.659C162.654 154.915 162.654 154.126 162.699 153.986C162.699 153.8 162.096 153.383 161.304 152.962C160.28 152.496 159.863 151.939 159.863 151.195C159.863 150.452 159.677 150.171 159.165 150.36C158.794 150.5 158.282 150.5 157.959 150.314C157.029 149.711 158.562 149.154 161.304 149.154C164.558 149.154 165.207 149.757 164.835 152.591C164.323 156.262 162.651 158.632 162.651 155.659H162.654Z" fill="#305836"/>
<path d="M220.544 510.096C220.404 509.493 220.172 507.588 220.032 505.775C219.429 498.667 216.918 489.837 213.247 481.939L211.48 478.082L215.986 475.203C236.152 462.378 252.504 449.88 272.81 431.806C275.829 429.064 277.225 429.109 282.242 432.086C284.332 433.293 287.029 434.782 288.235 435.291C290.234 436.175 290.42 436.406 290.42 437.848C290.42 439.892 285.124 450.58 280.198 458.384C266.677 479.849 249.765 496.254 228.904 508.103C223.048 511.403 220.913 511.912 220.541 510.102L220.544 510.096Z" fill="#305836"/>
<path d="M221.519 523.801C220.961 523.149 220.775 521.571 220.635 516.181C220.495 510.093 220.59 509.444 221.239 509.581C222.585 509.953 234.434 502.844 242.983 496.571C252.044 489.88 263.612 478.217 271.277 468.04C277.084 460.325 284.473 448.013 287.864 440.347L289.024 437.65L286.84 436.675C285.633 436.163 282.937 434.677 280.847 433.47C278.711 432.215 276.85 431.194 276.713 431.194C276.527 431.194 275.412 432.077 274.205 433.193C254.134 451.081 237.267 464 218.265 476.032C215.477 477.799 213.107 479.518 212.921 479.889C212.55 480.864 210.088 475.94 210.042 474.128C210.042 471.992 211.203 470.828 218.499 465.81C240.104 450.941 245.725 446.712 260.827 433.796C273.882 422.644 275.217 420.617 277.771 420.617C279.675 420.617 279.458 422.693 282.525 424.969C287.266 428.5 292.561 430.962 298.6 432.498C298.6 432.498 302.074 432.498 303.804 432.198C305.533 431.898 303.804 435.331 303.804 435.331C303.804 435.331 300.876 446.297 296.927 454.195C282.2 483.515 258.225 507.397 228.721 522.22C223.563 524.822 222.634 525.008 221.519 523.801Z" fill="#305836"/>
<path d="M76.5582 468.6C73.2587 466.881 62.0621 455.403 55.9749 447.457C48.7268 438.024 41.0127 424.365 36.601 413.073C32.3722 402.199 28.3779 387.656 28.3779 382.869C28.3779 380.919 28.5638 380.639 31.5373 377.851C35.9519 373.668 41.2472 368.93 41.433 368.93C41.5731 368.93 41.8047 374.646 41.8505 380.081C41.8505 382.08 43.7547 389.932 45.5217 395.648C52.3523 417.208 62.3423 434.864 76.278 450.151L79.3459 453.542L82.7827 449.916C84.6869 447.918 86.8256 445.501 87.569 444.572C88.3124 443.597 89.742 442.633 90.0651 442.633C90.351 443.205 93.4218 449.728 93.4218 451.449C93.4218 453.262 91.7034 455.815 86.1737 462.275C82.1766 467.015 79.5747 469.291 78.3223 469.291C78.0908 469.291 77.253 468.966 76.5554 468.594L76.5582 468.6Z" fill="#305836"/>
<path d="M329.868 432.823C326.989 429.895 325.779 427.805 325.733 425.852C325.733 424.319 326.199 423.527 329.31 419.673C333.259 414.794 335.815 408.055 336.281 401.458C336.653 395.977 335.583 390.818 332.89 385.243C331.077 381.571 330.102 380.224 326.757 376.879C323.829 373.951 321.645 372.278 318.766 370.7C309.613 365.682 310.262 366.702 307.337 353.137C304.458 339.755 300.367 323.677 295.535 306.672C291.863 293.756 290.888 289.759 291.028 288.178C291.26 286.042 292.329 284.552 294.886 282.788C302.319 277.629 303.435 277.212 305.896 278.699C307.523 279.628 310.588 281.904 332.936 298.54C340.089 303.884 351.798 312.48 358.954 317.684C366.108 322.842 372.893 327.906 374.008 328.93L376.052 330.788L375.772 340.453C375.029 366.474 367.549 391.053 354.214 411.406C349.753 418.237 343.249 426.601 338.788 431.293C334.002 436.357 333.445 436.451 329.868 432.826V432.823Z" fill="#71943E"/>
<path d="M11.5114 374.463C8.25762 372.605 2.63644 353.093 0.732218 337.112C-0.382869 328.146 -0.0111735 310.353 1.38411 302.268C3.1511 291.816 5.42702 283.545 8.67792 275.183C11.234 268.724 12.2548 267.006 14.1133 265.846C17.367 263.847 51.5859 250.934 53.2127 250.934C53.7245 250.934 50.9568 252.792 50.9568 261.757C50.9111 271.652 51.0026 272.861 51.9804 276.483C53.187 280.943 55.8832 286.981 58.1134 290.189C58.9025 291.35 61.2271 294.186 63.2257 296.461C67.5002 301.339 67.9662 302.639 66.711 306.636C65.6874 309.981 59.9747 321.408 56.5351 327.123C45.9876 344.451 28.0547 364.986 16.7637 372.651C13.6958 374.695 12.6293 375.112 11.5142 374.463H11.5114Z" fill="#71943E"/>
<path d="M138.259 258.159C136.447 257.37 136.075 256.858 134.774 253.232C133.193 248.631 131.383 245.38 128.315 241.337C124.878 236.736 122.182 234.134 116.887 230.091C113.17 227.303 112.704 226.745 112.567 225.304C112.381 223.168 113.496 222.19 123.16 215.594C146.808 199.424 166.788 181.301 176.127 167.502C178.823 163.553 179.984 162.438 181.099 162.809C181.565 162.95 186.162 167.642 191.275 173.172C196.433 178.748 206.977 189.899 214.783 197.986C222.82 206.304 229.279 213.458 229.745 214.436C230.769 216.572 230.534 217.873 227.932 224.055C227.003 226.285 225.748 230.374 225.145 233.116C224.17 237.437 223.798 238.275 222.357 239.761C221.102 241.062 220.032 241.62 218.037 242.086C216.596 242.412 215.203 242.83 214.923 243.015C214.691 243.201 212.598 243.573 210.277 243.899C204.004 244.734 193.691 246.827 173.107 251.428C151.317 256.306 147.6 257.235 145.602 258.119C143.835 258.954 140.121 259.002 138.262 258.164L138.259 258.159Z" fill="#305836"/>
<path d="M1.0126 251.563C0.0376168 250.865 -0.0567366 250.539 0.223465 248.172C1.0126 241.2 6.54229 223.452 11.6059 211.463C25.1271 179.54 43.6175 155.613 67.08 139.675C72.3753 136.098 73.6791 135.866 77.9536 137.816C79.4403 138.468 83.2488 140.046 86.4111 141.253L92.1266 143.438L89.1988 145.205C83.4832 148.642 76.421 153.523 70.8913 157.889C64.1551 163.233 50.7254 176.521 45.942 182.609C34.6053 197.014 26.0105 212.998 20.7125 229.677C19.7832 232.556 18.5766 235.856 18.5766 235.856C18.5766 235.856 18.3495 236.706 18.2049 237.252C18.022 237.941 17.7389 239.019 17.7389 239.019C17.7389 239.019 17.1155 241.851 16.7153 243.665C16.335 245.389 15.8009 246.315 15.7403 248.08C15.71 248.963 15.869 250.339 15.869 250.339C15.869 250.339 16.4837 250.265 12.0234 251.334C7.09697 252.541 2.54513 252.635 1.0126 251.566V251.563Z" fill="#305836"/>
<path d="M241.173 202.126C238.711 200.871 225.421 189.627 219.148 183.54C206.325 171.133 198.288 160.585 188.669 143.534C186.719 140.097 183.557 136.471 181.235 134.984C179.1 133.638 175.102 132.428 172.778 132.428C170.036 132.428 158.096 134.427 150.336 136.145C147.734 136.749 139.417 136.703 139.417 136.145C139.417 135.914 138.813 135.679 138.021 135.679C137.278 135.679 136.489 135.399 136.303 135.076C135.837 134.287 132.446 133.681 132.446 134.332C132.446 134.658 131.191 134.704 128.869 134.518C125.756 134.238 125.106 134.007 124.177 132.986C123.016 131.685 122.55 131.916 121.947 134.147C121.621 135.448 119.857 135.865 117.581 135.17C115.814 134.658 115.723 134.518 115.723 132.8C115.723 131.545 115.537 131.033 115.025 131.033C114.653 131.033 114.327 130.615 114.327 130.103C114.327 129.592 113.91 128.476 113.398 127.547C111.866 124.851 112.237 122.715 114.096 123.132C114.376 123.178 116.975 123.784 119.903 124.433C124.875 125.548 126.036 125.64 137.095 125.689C146.713 125.689 149.778 125.548 153.358 124.854C163.58 122.855 165.298 122.623 170.41 122.157C174.731 121.785 176.217 121.831 178.448 122.389C186.765 124.525 190.945 128.476 201.307 144.089C205.35 150.131 210.739 157.751 213.341 161.048C217.896 166.855 230.902 180.237 237.827 186.279L241.173 189.207V186.188C241.173 177.08 238.665 161.374 235.18 148.924C231.835 136.889 228.163 128.108 218.222 108.498C211.16 94.5126 205.956 82.9893 203.308 75.4147C202.797 74.068 202.239 72.9528 202.007 72.9528C201.822 72.9528 201.078 73.6505 200.381 74.4854C196.755 78.9003 193.644 81.6882 190.716 83.1294C187.045 84.9422 179.425 87.59 176.546 88.0075C175.431 88.1933 173.944 88.425 173.247 88.5651C172.132 88.7967 171.946 88.6566 171.946 87.7301C171.946 87.1268 172.735 85.8258 173.664 84.8021C175.989 82.2458 182.259 74.3939 183.932 71.932C185.976 68.9125 190.205 60.686 191.832 56.4598C195.177 47.9103 197.593 36.7586 198.431 25.5612C199.36 13.6662 199.777 10.1806 200.335 9.48575C200.938 8.74231 204.283 8.6022 204.701 9.34564C204.887 9.57725 205.398 13.9464 205.862 18.9646C207.58 37.3191 210.416 48.1447 216.827 61.0148C223.331 73.9793 234.759 88.0561 245.356 96.0967C253.719 102.462 260.735 106.179 274.394 111.432C293.768 118.912 297.253 120.63 309.007 128.671C321.739 137.315 336.421 153.345 336.421 158.549C336.421 159.755 336.189 160.453 335.678 160.639C334.517 161.056 324.713 159.987 318.485 158.735C311.146 157.248 307.149 156.784 307.149 157.479C307.149 157.759 306.314 157.991 305.059 157.991C303.898 157.991 302.968 157.805 302.968 157.525C302.968 156.967 300.644 156.922 299.949 157.434C299.718 157.619 299.252 158.177 298.974 158.689C298.139 160.176 295.303 160.593 292.424 159.618C291.077 159.152 289.962 158.594 289.962 158.363C289.962 158.177 289.636 157.991 289.264 157.991C287.034 157.991 268.495 149.347 258.322 143.585C254.697 141.495 246.568 136.614 242.293 133.826C241.69 133.455 241.087 133.315 240.898 133.5C240.712 133.641 241.364 135.636 242.339 137.867C248.798 152.921 252.747 172.717 252.933 191.44C253.024 196.97 252.933 197.9 252.098 199.341C250.193 202.595 244.664 204.033 241.178 202.129L241.173 202.126Z" fill="#305836"/>
<path d="M340.37 171.179C324.758 169.646 305.57 164.859 289.402 158.446C285.219 156.773 284.384 156.31 284.384 155.472C284.384 154.96 284.57 154.729 284.755 154.96C285.173 155.563 286.151 155.795 287.823 155.704C288.567 155.658 289.404 155.889 289.59 156.215C289.962 156.727 290.102 156.727 290.288 156.215C290.474 155.749 290.66 155.749 291.171 156.17C291.543 156.45 291.729 156.822 291.637 157.005C291.546 157.145 291.729 157.562 292.104 157.888C292.475 158.214 292.755 158.354 292.755 158.26C292.755 158.12 293.267 158.214 293.916 158.446C294.751 158.772 295.217 158.677 295.775 158.166C296.241 157.699 296.472 157.654 296.472 158.025C296.472 158.397 296.658 158.397 297.17 157.98C297.636 157.608 297.728 157.236 297.45 157.096C297.17 156.91 297.17 156.539 297.359 156.167C297.59 155.795 298.011 155.701 298.382 155.887C298.8 156.167 298.894 156.027 298.663 155.515C298.431 154.912 298.663 154.726 299.637 154.726C300.612 154.726 300.753 154.817 300.195 155.192C299.638 155.563 299.778 155.658 300.798 155.658C301.728 155.658 302.005 155.472 301.773 155.1C301.493 154.634 301.587 154.634 302.099 155.1C302.425 155.38 303.354 155.658 304.144 155.658C305.213 155.658 305.35 155.798 304.841 156.124C304.329 156.45 304.329 156.59 304.75 156.59C305.076 156.59 305.633 156.31 305.956 156.032C306.468 155.521 306.468 155.335 305.816 154.917C305.399 154.591 306.651 154.686 309.021 155.197C320.776 157.754 333.648 159.752 334.623 159.146C335.32 158.68 335.134 158.263 332.95 154.963C327.655 146.831 317.153 136.517 307.629 130.058C295.875 122.02 292.389 120.299 273.016 112.818C262.142 108.635 258.193 106.777 251.783 102.828C234.685 92.2337 220.375 75.0402 212.198 55.2017C207.923 44.7935 205.925 35.918 204.483 20.2599C204.017 15.196 203.414 10.8268 203.137 10.5494C202.439 9.85175 201.37 10.9212 201.092 12.6854C200.907 13.5204 200.675 16.0766 200.535 18.3556C199.048 41.1249 196.26 53.0657 189.244 66.4477C187.849 69.1441 186.085 72.2094 185.341 73.3245C183.669 75.7865 177.395 83.6412 175.074 86.1946C174.145 87.2183 173.355 88.1934 173.355 88.425C173.355 88.6108 173.124 88.7509 172.844 88.7509C172.518 88.7509 170.287 90.1921 167.826 91.9563C157.464 99.3907 151.005 102.736 132.469 110.125C119.414 115.375 110.725 119.324 109.796 120.442C109.284 121.094 109.515 121.325 111.886 122.209C114.442 123.184 122.385 124.997 127.588 125.74C129.121 125.972 129.492 126.157 128.749 126.252C128.097 126.343 124.752 125.926 121.315 125.323C117.878 124.671 114.765 124.299 114.485 124.393C113.741 124.673 114.159 125.463 114.951 125.277C115.277 125.231 115.368 125.231 115.182 125.323C114.53 125.694 114.811 126.529 115.834 127.647C116.718 128.622 116.763 128.854 116.206 129.228C115.648 129.646 115.694 129.695 116.486 129.509C117.184 129.369 117.461 129.509 117.415 130.066C117.37 130.578 117.695 130.764 118.344 130.718C118.902 130.672 119.319 130.904 119.319 131.276C119.319 131.648 118.948 131.973 118.485 131.973C118.067 131.973 117.601 132.299 117.415 132.671C117.275 133.089 117.415 133.369 117.833 133.369C118.204 133.369 118.53 133.555 118.53 133.786C118.53 134.018 118.948 134.112 119.46 133.972C120.157 133.786 120.343 133.46 120.111 132.811C119.926 132.208 120.02 131.976 120.297 132.159C120.529 132.299 120.901 132.114 121.041 131.693C121.458 130.578 121.412 130.438 120.529 130.764C120.063 130.95 119.877 130.95 120.063 130.764C120.249 130.578 120.154 130.161 119.877 129.789C119.46 129.323 119.505 128.954 120.157 128.256C121.086 127.233 122.247 127.513 122.247 128.814C122.247 129.28 122.433 129.603 122.665 129.466C122.851 129.326 123.92 130.023 124.941 131.047C126.01 132.116 126.939 132.72 127.125 132.442C127.265 132.211 127.125 131.976 126.799 131.931C126.473 131.885 126.708 131.699 127.357 131.513C129.029 130.956 129.681 131.001 129.681 131.559C129.681 131.79 129.495 131.931 129.264 131.745C129.032 131.605 128.706 131.699 128.566 131.931C128.1 132.628 129.169 133.046 129.913 132.442C130.379 132.025 130.565 132.116 130.748 132.768C130.888 133.372 130.979 133.28 131.028 132.442C131.074 131.467 131.168 131.419 131.585 131.976C132.003 132.534 132.051 132.488 131.866 131.65C131.54 130.118 132.518 130.118 133.91 131.605C134.885 132.72 135.211 132.86 135.628 132.302C135.954 131.931 136.046 131.513 135.86 131.327C135.674 131.141 135.86 131.141 136.326 131.327C136.743 131.467 136.978 131.793 136.838 132.025C136.698 132.257 136.929 132.442 137.35 132.442C137.861 132.442 138.047 132.674 137.907 133.14C137.721 133.512 137.816 133.929 138.047 134.069C138.327 134.255 138.513 134.161 138.513 133.884C138.513 133.603 138.839 133.512 139.211 133.652C139.628 133.838 139.909 133.652 139.909 133.326C139.909 132.814 140 132.814 140.326 133.326C140.558 133.698 141.115 134.069 141.533 134.115C141.95 134.161 142.462 134.395 142.602 134.581C142.788 134.767 142.556 134.767 142.136 134.627C141.67 134.487 141.207 134.536 141.067 134.767C140.881 135.047 141.298 135.233 141.95 135.233C142.602 135.233 143.157 135.047 143.157 134.767C143.157 134.536 143.388 134.301 143.668 134.301C143.9 134.301 143.994 134.533 143.854 134.767C143.668 135.047 144.086 135.233 144.738 135.233C145.39 135.233 145.944 134.953 145.944 134.676C145.944 134.258 146.084 134.258 146.362 134.721C146.593 135.093 147.105 135.233 147.568 135.047C149.055 134.49 155.7 134.164 155.7 134.676C155.7 134.907 155.002 135.233 154.213 135.373C153.378 135.513 151.517 135.977 150.124 136.348C147.151 137.232 138.696 137.323 129.215 136.629C117.181 135.699 108.4 133.795 94.7876 129.008C90.0956 127.381 85.3551 125.754 84.2886 125.431C83.1735 125.105 82.29 124.596 82.29 124.27C82.29 123.295 86.8447 118.649 90.6532 115.766C95.1135 112.421 102.221 108.935 112.955 104.801C126.708 99.5509 128.289 98.9447 135.488 96.0653C163.969 84.7735 174.748 75.389 182.416 55.3161C185.947 46.0688 187.806 35.429 188.921 17.9124C189.338 11.127 189.944 5.50548 190.408 3.50676L191.243 0.252775L202.253 0.112664C212.429 0.0211639 213.264 0.0669142 213.499 0.810356C213.639 1.27644 214.102 6.15456 214.474 11.636C215.357 23.9028 216.286 31.5688 217.819 38.7716C219.909 48.994 221.581 53.223 226.694 61.5867C234.962 75.2489 245.556 85.7028 259.309 93.7863C265.024 97.1776 270.459 99.4079 281.888 102.893C292.944 106.285 297.59 108.098 306.002 112.187C320.172 119.158 332.904 128.451 345.773 141.272C354.88 150.334 365.428 164.179 366.031 167.896C366.262 169.383 366.122 169.615 364.73 170.358C363.335 171.101 361.851 171.242 352.696 171.287C346.934 171.333 341.405 171.287 340.384 171.196L340.37 171.179Z" fill="#305836"/>
<path d="M232.738 242.049C232.738 222.23 248.804 206.164 268.621 206.164V206.164C288.439 206.164 304.504 222.23 304.504 242.049V242.049C304.504 261.868 288.439 277.935 268.621 277.935V277.935C248.804 277.935 232.738 261.868 232.738 242.049V242.049Z" fill="#ED971F"/>
<path d="M156.112 347.557C156.112 330.897 169.617 317.391 186.277 317.391V317.391C202.936 317.391 216.441 330.897 216.441 347.557V347.557C216.441 364.218 202.936 377.724 186.277 377.724V377.724C169.617 377.724 156.112 364.218 156.112 347.557V347.557Z" fill="#ED971F"/>
<path d="M279.344 399.601C279.344 386.73 289.777 376.297 302.646 376.297V376.297C315.516 376.297 325.949 386.73 325.949 399.601V399.601C325.949 412.471 315.516 422.905 302.646 422.905V422.905C289.777 422.905 279.344 412.471 279.344 399.601V399.601Z" fill="#305836"/>
<path d="M96.6406 428.479C96.6406 411.819 110.146 398.312 126.805 398.312V398.312C143.465 398.312 156.97 411.819 156.97 428.479V428.479C156.97 445.14 143.465 458.646 126.805 458.646V458.646C110.146 458.646 96.6406 445.14 96.6406 428.479V428.479Z" fill="#71943E"/>
<path d="M59.4717 265.207C59.4717 246.652 74.5129 231.609 93.0672 231.609V231.609C111.622 231.609 126.663 246.652 126.663 265.207V265.207C126.663 283.763 111.622 298.805 93.0672 298.805V298.805C74.5129 298.805 59.4717 283.763 59.4717 265.207V265.207Z" fill="#305836"/>
</g>
<defs>
<clipPath id="clip0_2854_4006">
<rect width="398" height="545" fill="white"/>
</clipPath>
</defs>
</svg>
